<svg width="86" height="86" viewBox="0 0 86 86" fill="none" xmlns="http://www.w3.org/2000/svg">
<circle cx="43" cy="43" r="42.5" fill="white" stroke="#D291DE"/>
<path d="M48.991 39.8836L43.1744 40.1579C43.1391 40.1579 43.1058 40.1658 43.0725 40.1697C42.4353 39.777 41.7727 39.4276 41.0925 39.1276C36.9756 37.3079 31.9569 36.402 27.4911 36.7257C25.8875 36.8421 24.1505 37.1421 22.4744 37.7086C19.7121 38.6421 17.1126 40.2961 15.5365 43.0395C10.2218 52.2961 19.8729 61.4915 26.5638 63.9191C32.5548 66.0922 41.0101 66.7237 46.1758 61.2882C48.2088 59.1487 49.338 56.2217 49.6712 53.1448C49.9614 50.4684 49.487 48.0862 48.5028 46.0415L49.9104 41.048C50.081 40.4461 49.6144 39.8539 48.9929 39.8836H48.991Z" fill="#D291DE"/>
<path d="M52.606 17.4136C47.0129 13.9458 38.444 13.8491 34.2212 19.5432C32.5313 21.8208 31.7589 25.0537 33.1528 27.5248C35.8072 32.2281 41.7316 33.2367 46.9992 32.1748L50.23 34.6676C50.6338 34.9794 51.22 34.7998 51.3847 34.3163L52.8785 29.9386C53.1255 29.7866 53.3666 29.6327 53.596 29.4709C58.3853 26.1176 57.2306 20.2794 52.604 17.4097L52.606 17.4136Z" fill="#44B4FF"/>
<path d="M70.3429 35.2809C68.5531 33.7059 65.8516 32.7723 63.5912 33.6526C61.6465 34.4105 60.284 35.7802 59.4116 37.45L55.7986 38.8691C55.3261 39.0546 55.1732 39.6526 55.4986 40.0454L58.1687 43.2684C58.2158 45.6743 58.849 48.0605 59.8959 49.8763C62.3013 54.0447 67.4337 53.6816 70.3547 50.2434C73.8874 46.0888 74.8166 39.2184 70.3429 35.2789V35.2809Z" fill="#A0E468"/>
</svg>
