<svg width="570" height="493" viewBox="0 0 570 493" fill="none" xmlns="http://www.w3.org/2000/svg">
<path d="M504.925 152.329C507.824 122.363 514.76 93.9938 502.498 65.1774C479.991 12.2963 412.102 -15.7792 359.348 9.26904C332.371 22.0423 309.303 40.7295 279.592 47.5887C199.402 66.0971 75.6296 -32.5122 31.9835 82.2935C17.0005 121.686 23.0422 173.596 50.1342 206.526C58.8328 217.089 69.4601 226.286 75.8978 238.37C93.5121 271.439 68.5787 307.779 57.3383 338.627C30.6423 411.523 131.295 451.861 185.926 459.295C276.233 471.66 350.726 368.197 440.535 410.348C503.124 439.727 558.048 368.197 546.553 296.666C539.029 249.84 500.939 205.019 504.503 157.298C504.631 155.65 504.771 154.002 504.925 152.329Z" fill="#C4B39B"/>
<path d="M504.925 152.329C507.824 122.363 514.76 93.9938 502.498 65.1774C479.991 12.2963 412.102 -15.7792 359.348 9.26904C332.371 22.0423 309.303 40.7295 279.592 47.5887C199.402 66.0971 75.6296 -32.5122 31.9835 82.2935C17.0005 121.686 23.0422 173.596 50.1342 206.526C58.8328 217.089 69.4601 226.286 75.8978 238.37C93.5121 271.439 68.5787 307.779 57.3383 338.627C30.6423 411.523 131.295 451.861 185.926 459.295C276.233 471.66 350.726 368.197 440.535 410.348C503.124 439.727 558.048 368.197 546.553 296.666C539.029 249.84 500.939 205.019 504.503 157.298C504.631 155.65 504.771 154.002 504.925 152.329Z" fill="#F5F5F5"/>
<path d="M74.927 171.821C99.286 171.821 119.033 152.074 119.033 127.715C119.033 103.356 99.286 83.6094 74.927 83.6094C50.5679 83.6094 30.821 103.356 30.821 127.715C30.821 152.074 50.5679 171.821 74.927 171.821Z" fill="white" stroke="#455A64" stroke-linecap="round" stroke-linejoin="round"/>
<path d="M71.6442 167.44C96.0033 167.44 115.75 147.693 115.75 123.334C115.75 98.9749 96.0033 79.228 71.6442 79.228C47.2852 79.228 27.5383 98.9749 27.5383 123.334C27.5383 147.693 47.2852 167.44 71.6442 167.44Z" fill="white" stroke="#455A64" stroke-linecap="round" stroke-linejoin="round"/>
<path d="M71.6443 163.059C93.5836 163.059 111.369 145.273 111.369 123.334C111.369 101.395 93.5836 83.6094 71.6443 83.6094C49.7049 83.6094 31.9196 101.395 31.9196 123.334C31.9196 145.273 49.7049 163.059 71.6443 163.059Z" fill="#2E353A" stroke="#455A64" stroke-linecap="round" stroke-linejoin="round"/>
<path d="M66.982 93.4702C66.982 93.4702 62.6008 82.5108 54.9369 74.8468C47.273 67.1829 16.0297 62.2397 16.0297 62.2397C21.0748 67.1058 25.6626 72.4248 29.7353 78.1296C36.85 87.9905 60.3911 110.459 60.3911 110.459C60.3911 110.459 48.8952 100.598 38.4722 99.4991C28.0493 98.4007 1.76199 103.88 0.152565 103.88C-1.45686 103.88 10.0135 108.262 18.2394 112.094C26.4654 115.926 58.2324 119.221 58.2324 119.221C58.2324 119.221 44.5395 123.053 35.2406 126.348C25.9417 129.644 17.1282 153.734 17.1282 153.734C17.1282 153.734 29.1861 142.775 39.5963 140.041C50.0064 137.308 64.7978 132.377 64.7978 132.377C64.7978 132.377 55.4861 142.788 53.3019 149.915C51.1177 157.043 52.7527 173.469 52.7527 173.469C52.7527 173.469 57.6831 158.141 63.7121 152.099C69.7411 146.058 76.2937 135.724 76.2937 135.724C79.3285 140.671 82.0751 145.788 84.5197 151.052C88.9009 160.364 91.6343 174.044 91.6343 174.044C91.6343 174.044 98.7618 158.716 98.2126 151.052C97.6633 143.388 89.4501 129.682 89.4501 129.682C89.4501 129.682 94.9298 125.85 103.143 129.133C111.356 132.416 125.611 146.121 125.611 146.121C125.611 146.121 122.316 128.035 116.836 120.92C111.356 113.805 87.8024 111.595 87.8024 111.595C87.8024 111.595 100.959 103.931 109.172 102.284C117.385 100.636 128.332 104.481 128.332 104.481C128.332 104.481 115.737 86.9431 105.876 85.8446C96.0156 84.7461 81.2242 100.048 81.2242 100.048L85.6182 78.1296C86.7039 72.6498 84.5197 58.9697 84.5197 58.9697C84.5197 58.9697 78.4907 62.2524 71.3633 72.6626C69.2773 75.661 67.8147 79.0478 67.0621 82.622C66.3096 86.1963 66.2823 89.8852 66.982 93.4702Z" fill="#C4B39B"/>
<path opacity="0.5" d="M66.982 93.4702C66.982 93.4702 62.6008 82.5108 54.9369 74.8468C47.273 67.1829 16.0297 62.2397 16.0297 62.2397C21.0748 67.1058 25.6626 72.4248 29.7353 78.1296C36.85 87.9905 60.3911 110.459 60.3911 110.459C60.3911 110.459 48.8952 100.598 38.4722 99.4991C28.0493 98.4007 1.76199 103.88 0.152565 103.88C-1.45686 103.88 10.0135 108.262 18.2394 112.094C26.4654 115.926 58.2324 119.221 58.2324 119.221C58.2324 119.221 44.5395 123.053 35.2406 126.348C25.9417 129.644 17.1282 153.734 17.1282 153.734C17.1282 153.734 29.1861 142.775 39.5963 140.041C50.0064 137.308 64.7978 132.377 64.7978 132.377C64.7978 132.377 55.4861 142.788 53.3019 149.915C51.1177 157.043 52.7527 173.469 52.7527 173.469C52.7527 173.469 57.6831 158.141 63.7121 152.099C69.7411 146.058 76.2937 135.724 76.2937 135.724C79.3285 140.671 82.0751 145.788 84.5197 151.052C88.9009 160.364 91.6343 174.044 91.6343 174.044C91.6343 174.044 98.7618 158.716 98.2126 151.052C97.6633 143.388 89.4501 129.682 89.4501 129.682C89.4501 129.682 94.9298 125.85 103.143 129.133C111.356 132.416 125.611 146.121 125.611 146.121C125.611 146.121 122.316 128.035 116.836 120.92C111.356 113.805 87.8024 111.595 87.8024 111.595C87.8024 111.595 100.959 103.931 109.172 102.284C117.385 100.636 128.332 104.481 128.332 104.481C128.332 104.481 115.737 86.9431 105.876 85.8446C96.0156 84.7461 81.2242 100.048 81.2242 100.048L85.6182 78.1296C86.7039 72.6498 84.5197 58.9697 84.5197 58.9697C84.5197 58.9697 78.4907 62.2524 71.3633 72.6626C69.2773 75.661 67.8147 79.0478 67.0621 82.622C66.3096 86.1963 66.2823 89.8852 66.982 93.4702Z" fill="black"/>
<path d="M77.7754 76.7884C78.1586 75.2172 78.5801 73.6461 79.0527 72.1006" stroke="#455A64" stroke-width="0.5" stroke-linecap="round" stroke-linejoin="round"/>
<path d="M41.1801 76.7886C46.2894 80.5311 52.676 85.7298 56.0226 90.1877C62.0516 98.4009 74.1095 115.938 74.1095 115.938C73.7641 104.159 74.6977 92.3772 76.894 80.7994" stroke="#455A64" stroke-width="0.5" stroke-linecap="round" stroke-linejoin="round"/>
<path d="M33.5673 71.5513C33.5673 71.5513 35.164 72.5731 37.5526 74.2209" stroke="#455A64" stroke-width="0.5" stroke-linecap="round" stroke-linejoin="round"/>
<path d="M74.1095 115.939C74.1095 115.939 94.9298 95.1182 103.692 93.4705C112.455 91.8227 120.131 98.4009 120.131 98.4009" stroke="#455A64" stroke-width="0.5" stroke-linecap="round" stroke-linejoin="round"/>
<path d="M36.9011 133.348C31.7918 136.567 31.3703 138.457 31.3703 138.457" stroke="#455A64" stroke-width="0.5" stroke-linecap="round" stroke-linejoin="round"/>
<path d="M119.582 135.111C119.582 135.111 116.299 126.885 104.791 123.053C93.2821 119.221 75.2208 118.672 75.2208 118.672C75.2208 118.672 49.8659 126.974 40.5926 131.305" stroke="#455A64" stroke-width="0.5" stroke-linecap="round" stroke-linejoin="round"/>
<path d="M64.1336 115.542C70.2648 117.331 75.208 118.672 75.208 118.672" stroke="#455A64" stroke-width="0.5" stroke-linecap="round" stroke-linejoin="round"/>
<path d="M25.5457 105.809C31.498 106.167 39.162 106.984 43.4282 108.811C46.9025 110.305 53.749 112.464 60.2122 114.393" stroke="#455A64" stroke-width="0.5" stroke-linecap="round" stroke-linejoin="round"/>
<path d="M17.1282 105.528C17.1282 105.528 19.1336 105.528 22.0842 105.643" stroke="#455A64" stroke-width="0.5" stroke-linecap="round" stroke-linejoin="round"/>
<path d="M74.1095 121.955C74.1095 121.955 58.7817 144.946 57.6704 150.452C57.0121 153.699 56.6445 156.999 56.5719 160.313" stroke="#455A64" stroke-width="0.5" stroke-linecap="round" stroke-linejoin="round"/>
<path d="M80.9304 129.197C83.881 133.029 87.4192 138.138 88.9009 142.225C90.6256 147.212 91.9079 152.341 92.7329 157.553" stroke="#455A64" stroke-width="0.5" stroke-linecap="round" stroke-linejoin="round"/>
<path d="M76.2937 123.603C76.2937 123.603 77.571 124.957 79.2188 127.039" stroke="#455A64" stroke-width="0.5" stroke-linecap="round" stroke-linejoin="round"/>
<path d="M60.0206 98.1964C60.0206 98.1964 57.1977 86.7005 58.9477 76.0348C60.6976 65.3692 83.2168 43.1055 83.2168 43.1055C81.9652 50.0003 81.3453 56.995 81.3647 64.0025C81.3647 76.1626 75.2974 108.147 75.2974 108.147C75.2974 108.147 78.8867 93.432 86.7039 86.4322C94.5211 79.4325 119.084 68.5497 120.412 67.6173C121.741 66.6848 114.958 76.929 110.526 84.8484C106.094 92.7677 82.1694 114.01 82.1694 114.01C82.1694 114.01 95.5302 109.13 105.008 106.346C114.486 103.561 135.664 118.046 135.664 118.046C135.664 118.046 119.48 116.181 109.427 120.026C99.3749 123.871 84.4813 128.494 84.4813 128.494C84.4813 128.494 98.1231 131.522 104.05 136.031C109.977 140.54 118.254 154.884 118.254 154.884C118.254 154.884 105.302 145.291 96.8841 143.912C88.4666 142.532 77.0601 137.921 77.0601 137.921C77.4927 143.707 78.2518 149.464 79.3337 155.165C81.2114 165.294 86.9977 178.016 86.9977 178.016C86.9977 178.016 72.2701 169.714 68.2338 163.161C64.1975 156.608 62.8946 140.693 62.8946 140.693C62.8946 140.693 56.2014 140.77 51.3987 148.229C46.596 155.689 43.0578 175.129 43.0578 175.129C43.0578 175.129 35.1895 158.524 35.4833 149.583C35.7771 140.642 53.634 125.084 53.634 125.084C53.634 125.084 38.485 126.527 30.8466 129.976C23.2082 133.425 16.5406 142.941 16.5406 142.941C16.5406 142.941 16.5406 121.354 23.9235 114.712C31.3064 108.07 52.2673 111.902 52.2673 111.902L35.9176 96.6636C31.8301 92.8316 25.6223 80.4416 25.6223 80.4416C25.6223 80.4416 32.4432 79.5986 44.2968 83.9031C47.7422 85.1095 50.9098 86.9965 53.6111 89.452C56.3123 91.9075 58.4921 94.8813 60.0206 98.1964Z" fill="#C4B39B"/>
<path d="M41.525 90.9411C40.2477 89.881 39.047 88.8591 37.7697 87.8628" stroke="#455A64" stroke-width="0.5" stroke-linecap="round" stroke-linejoin="round"/>
<path d="M71.2483 69.5972C69.2685 75.6261 67.0587 83.5583 67.0076 89.1274C66.9054 99.346 67.3397 120.588 67.3397 120.588C60.7468 110.821 53.1102 101.801 44.5651 93.6875" stroke="#455A64" stroke-width="0.5" stroke-linecap="round" stroke-linejoin="round"/>
<path d="M74.3905 60.8984C74.3905 60.8984 73.6752 62.6611 72.7045 65.3818" stroke="#455A64" stroke-width="0.5" stroke-linecap="round" stroke-linejoin="round"/>
<path d="M67.3397 120.588C67.3397 120.588 38.2806 115.824 30.2079 119.604C22.1352 123.385 19.7339 133.17 19.7339 133.17" stroke="#455A64" stroke-width="0.5" stroke-linecap="round" stroke-linejoin="round"/>
<path d="M107.729 113.026C113.719 112.694 115.15 113.908 115.15 113.908" stroke="#455A64" stroke-width="0.5" stroke-linecap="round" stroke-linejoin="round"/>
<path d="M41.5889 162.689C41.5889 162.689 39.4685 154.092 46.5704 144.27C53.6723 134.447 68.055 123.462 68.055 123.462C68.055 123.462 93.4864 115.402 103.539 113.524" stroke="#455A64" stroke-width="0.5" stroke-linecap="round" stroke-linejoin="round"/>
<path d="M75.2207 114.457C71.2866 119.476 68.0677 123.462 68.0677 123.462" stroke="#455A64" stroke-width="0.5" stroke-linecap="round" stroke-linejoin="round"/>
<path d="M100.882 84.0435C96.2582 87.8754 90.5103 92.9847 88.1089 96.9061C86.1546 100.15 81.8501 105.847 77.7243 111.225" stroke="#455A64" stroke-width="0.5" stroke-linecap="round" stroke-linejoin="round"/>
<path d="M107.55 78.896C107.55 78.896 105.928 80.0711 103.59 81.8849" stroke="#455A64" stroke-width="0.5" stroke-linecap="round" stroke-linejoin="round"/>
<path d="M70.8523 125.505C70.8523 125.505 96.7436 135.239 100.818 139.058C103.248 141.311 105.471 143.778 107.46 146.428" stroke="#455A64" stroke-width="0.5" stroke-linecap="round" stroke-linejoin="round"/>
<path d="M69.5367 135.341C69.3579 140.169 69.4473 146.364 70.6607 150.579C72.1666 155.643 74.1201 160.563 76.4981 165.281" stroke="#455A64" stroke-width="0.5" stroke-linecap="round" stroke-linejoin="round"/>
<path d="M70.0348 128.06C70.0348 128.06 69.8305 129.874 69.6772 132.556" stroke="#455A64" stroke-width="0.5" stroke-linecap="round" stroke-linejoin="round"/>
<path d="M145.256 156.71H434.787C438.401 156.71 441.868 158.146 444.424 160.702C446.98 163.258 448.416 166.725 448.416 170.339V358.106C448.416 360.063 448.03 362.002 447.281 363.81C446.532 365.619 445.434 367.262 444.05 368.646C442.666 370.03 441.022 371.128 439.214 371.877C437.405 372.627 435.467 373.012 433.509 373.012H146.534C144.576 373.012 142.638 372.627 140.829 371.877C139.021 371.128 137.377 370.03 135.993 368.646C134.609 367.262 133.511 365.619 132.762 363.81C132.013 362.002 131.627 360.063 131.627 358.106V170.339C131.627 166.725 133.063 163.258 135.619 160.702C138.175 158.146 141.642 156.71 145.256 156.71Z" fill="white" stroke="#455A64" stroke-linecap="round" stroke-linejoin="round"/>
<path d="M251.223 178.003H233.391V189.716H251.223V178.003Z" fill="#2E353A"/>
<path d="M193.45 250.262H176.896V266.688H193.45V250.262Z" fill="#2E353A"/>
<path d="M266.589 192.526H249.907V208.953H266.589V192.526Z" fill="#2E353A"/>
<path d="M230.569 178.003H212.737V189.716H230.569V178.003Z" fill="#2E353A"/>
<path d="M286.081 192.526H269.399V208.953H286.081V192.526Z" fill="#2E353A"/>
<path d="M271.864 178.003H254.033V189.716H271.864V178.003Z" fill="#2E353A"/>
<path d="M183.448 231.012H152.077V247.439H183.448V231.012Z" fill="#2E353A"/>
<path d="M227.592 192.526H210.911V208.953H227.592V192.526Z" fill="#2E353A"/>
<path d="M174.085 250.262H152.077V266.688H174.085V250.262Z" fill="#2E353A"/>
<path d="M292.519 178.003H274.687V189.716H292.519V178.003Z" fill="#2E353A"/>
<path d="M188.596 192.526H171.914V208.953H188.596V192.526Z" fill="#2E353A"/>
<path d="M189.273 178.003H171.441V189.716H189.273V178.003Z" fill="#2E353A"/>
<path d="M209.927 178.003H192.096V189.716H209.927V178.003Z" fill="#2E353A"/>
<path d="M208.088 192.526H191.406V208.953H208.088V192.526Z" fill="#2E353A"/>
<path d="M247.084 192.526H230.403V208.953H247.084V192.526Z" fill="#2E353A"/>
<path d="M375.123 178.003H357.292V189.716H375.123V178.003Z" fill="#2E353A"/>
<path d="M395.765 178.003H377.933V189.716H395.765V178.003Z" fill="#2E353A"/>
<path d="M383.579 192.526H366.897V208.953H383.579V192.526Z" fill="#2E353A"/>
<path d="M403.084 192.526H386.402V208.953H403.084V192.526Z" fill="#2E353A"/>
<path d="M433.931 250.262H409.368V266.688H433.931V250.262Z" fill="#2E353A"/>
<path d="M416.419 178.003H398.587V189.716H416.419V178.003Z" fill="#2E353A"/>
<path d="M169.104 192.526H152.077V208.953H169.104V192.526Z" fill="#2E353A"/>
<path d="M313.173 178.003H295.342V189.716H313.173V178.003Z" fill="#2E353A"/>
<path d="M333.815 178.003H315.983V189.716H333.815V178.003Z" fill="#2E353A"/>
<path d="M325.09 192.526H308.409V208.953H325.09V192.526Z" fill="#2E353A"/>
<path d="M364.087 192.526H347.405V208.953H364.087V192.526Z" fill="#2E353A"/>
<path d="M305.586 192.526H288.904V208.953H305.586V192.526Z" fill="#2E353A"/>
<path d="M344.582 192.526H327.901V208.953H344.582V192.526Z" fill="#2E353A"/>
<path d="M354.469 178.003H336.637V189.716H354.469V178.003Z" fill="#2E353A"/>
<path d="M329.063 250.262H312.509V266.688H329.063V250.262Z" fill="#2E353A"/>
<path d="M415.921 231.012H399.367V247.439H415.921V231.012Z" fill="#2E353A"/>
<path d="M396.544 231.012H379.99V247.439H396.544V231.012Z" fill="#2E353A"/>
<path d="M406.545 250.262H389.991V266.688H406.545V250.262Z" fill="#2E353A"/>
<path d="M387.181 250.262H370.627V266.688H387.181V250.262Z" fill="#2E353A"/>
<path d="M348.427 250.262H331.873V266.688H348.427V250.262Z" fill="#2E353A"/>
<path d="M367.804 250.262H351.25V266.688H367.804V250.262Z" fill="#2E353A"/>
<path d="M377.167 231.012H360.613V247.439H377.167V231.012Z" fill="#2E353A"/>
<path d="M357.803 231.012H341.249V247.439H357.803V231.012Z" fill="#2E353A"/>
<path d="M433.944 178.003H419.242V189.716H433.944V178.003Z" fill="#2E353A"/>
<path d="M168.631 178.003H152.077V189.716H168.631V178.003Z" fill="#2E353A"/>
<path d="M433.944 269.498H152.077V286.576H433.944V269.498Z" fill="#2E353A"/>
<path d="M433.931 192.526H405.894V208.953H433.931V192.526Z" fill="#2E353A"/>
<path d="M433.931 231.012H418.731V247.439H433.931V231.012Z" fill="#2E353A"/>
<path d="M414.056 228.075H411.233V211.776H394.679V228.075H391.869V211.776H375.315V228.075H372.492V211.776H355.938V228.075H353.115V211.776H336.561V228.075H333.751V211.776H317.197V228.075H314.374V211.776H297.82V228.075H294.997V211.776H278.443V228.075H275.632V211.776H259.078V228.075H256.256V211.776H239.701V228.075H236.879V211.776H220.324V228.075H217.514V211.776H200.96V228.075H198.137V211.776H181.583V228.075H178.76V211.776H152.077V228.202H433.931V211.776H414.056V228.075Z" fill="#2E353A"/>
<path d="M280.307 231.012H263.753V247.439H280.307V231.012Z" fill="#2E353A"/>
<path d="M338.426 231.012H321.872V247.439H338.426V231.012Z" fill="#2E353A"/>
<path d="M241.566 231.012H225.012V247.439H241.566V231.012Z" fill="#2E353A"/>
<path d="M251.568 250.262H235.014V266.688H251.568V250.262Z" fill="#2E353A"/>
<path d="M260.931 231.012H244.376V247.439H260.931V231.012Z" fill="#2E353A"/>
<path d="M222.189 231.012H205.635V247.439H222.189V231.012Z" fill="#2E353A"/>
<path d="M212.827 250.262H196.273V266.688H212.827V250.262Z" fill="#2E353A"/>
<path d="M232.191 250.262H215.637V266.688H232.191V250.262Z" fill="#2E353A"/>
<path d="M299.684 231.012H283.13V247.439H299.684V231.012Z" fill="#2E353A"/>
<path d="M309.686 250.262H293.132V266.688H309.686V250.262Z" fill="#2E353A"/>
<path d="M319.049 231.012H302.495V247.439H319.049V231.012Z" fill="#2E353A"/>
<path d="M270.945 250.262H254.391V266.688H270.945V250.262Z" fill="#2E353A"/>
<path d="M290.309 250.262H273.755V266.688H290.309V250.262Z" fill="#2E353A"/>
<path d="M202.812 231.012H186.258V247.439H202.812V231.012Z" fill="#2E353A"/>
<path d="M466.503 39.1968H111.842C110.102 39.1981 108.387 39.5995 106.827 40.3697C105.268 41.14 103.906 42.2585 102.848 43.6389C101.79 45.0192 101.064 46.6244 100.725 48.3304C100.386 50.0363 100.444 51.7973 100.895 53.4772L126.825 150.017C127.471 152.427 128.893 154.557 130.872 156.076C132.851 157.596 135.276 158.42 137.771 158.422H173.97V165.102H406.047V158.46H440.535C443.03 158.458 445.454 157.634 447.433 156.114C449.412 154.595 450.835 152.465 451.481 150.056L477.411 53.5156C477.868 51.8363 477.932 50.0745 477.598 48.3664C477.265 46.6584 476.543 45.05 475.488 43.6657C474.434 42.2814 473.075 41.1583 471.517 40.3834C469.959 39.6084 468.243 39.2024 466.503 39.1968Z" fill="#2E353A" stroke="#455A64" stroke-linecap="round" stroke-linejoin="round"/>
<path d="M426.395 149.902H151.949L124.5 51.127H453.832L426.395 149.902Z" fill="#C4B39B" stroke="#455A64" stroke-linecap="round" stroke-linejoin="round"/>
<path d="M170.164 106.55V107.827H165.323V106.55H170.164Z" fill="#2E353A"/>
<path d="M176.193 106.55V107.827H171.339V106.55H176.193Z" fill="#2E353A"/>
<path d="M182.222 106.55V107.827H177.406V106.55H182.222Z" fill="#2E353A"/>
<path d="M188.238 106.55V107.827H183.397V106.55H188.238Z" fill="#2E353A"/>
<path d="M194.267 106.55V107.827H189.413V106.55H194.267Z" fill="#2E353A"/>
<path d="M200.296 106.55V107.827H195.442V106.55H200.296Z" fill="#2E353A"/>
<path d="M206.312 106.55V107.827H201.471V106.55H206.312Z" fill="#2E353A"/>
<path d="M212.277 113.282L206.938 99.0522H208.215L213.555 113.282H212.277Z" fill="#2E353A"/>
<path d="M165.285 85.832V87.1094H160.444V85.832H165.285Z" fill="#2E353A"/>
<path d="M171.314 85.832V87.1094H166.473V85.832H171.314Z" fill="#2E353A"/>
<path d="M177.406 85.832V87.1094H172.553V85.832H177.406Z" fill="#2E353A"/>
<path d="M183.372 85.832V87.1094H178.518V85.832H183.372Z" fill="#2E353A"/>
<path d="M189.388 85.832V87.1094H184.547V85.832H189.388Z" fill="#2E353A"/>
<path d="M199.581 85.832V87.1094H194.727V85.832H199.581Z" fill="#2E353A"/>
<path d="M205.597 85.832V87.1094H200.756V85.832H205.597Z" fill="#2E353A"/>
<path d="M211.626 85.832V87.1094H206.785V85.832H211.626Z" fill="#2E353A"/>
<path d="M217.655 85.832V87.1094H212.801V85.832H217.655Z" fill="#2E353A"/>
<path d="M223.671 85.832V87.1094H218.83V85.832H223.671Z" fill="#2E353A"/>
<path d="M229.7 85.832V87.1094H224.859V85.832H229.7Z" fill="#2E353A"/>
<path d="M235.729 85.832V87.1094H230.875V85.832H235.729Z" fill="#2E353A"/>
<path d="M245.909 85.832V87.1094H241.068V85.832H245.909Z" fill="#2E353A"/>
<path d="M251.938 85.832V87.1094H247.084V85.832H251.938Z" fill="#2E353A"/>
<path d="M257.967 85.832V87.1094H253.113V85.832H257.967Z" fill="#2E353A"/>
<path d="M268.096 85.832V87.1094H263.255V85.832H268.096Z" fill="#2E353A"/>
<path d="M274.176 85.832V87.1094H269.374V85.832H274.176Z" fill="#2E353A"/>
<path d="M280.205 85.832V87.1094H275.351V85.832H280.205Z" fill="#2E353A"/>
<path d="M302.865 85.832V87.1094H298.024V85.832H302.865Z" fill="#2E353A"/>
<path d="M308.894 85.832V87.1094H304.04V85.832H308.894Z" fill="#2E353A"/>
<path d="M314.923 85.832V87.1094H310.069V85.832H314.923Z" fill="#2E353A"/>
<path d="M320.939 85.832V87.1094H316.098V85.832H320.939Z" fill="#2E353A"/>
<path d="M326.968 85.832V87.1094H322.114V85.832H326.968Z" fill="#2E353A"/>
<path d="M337.148 85.832V87.1094H332.307V85.832H337.148Z" fill="#2E353A"/>
<path d="M343.177 85.832V87.1094H338.349V85.832H343.177Z" fill="#2E353A"/>
<path d="M349.206 85.832V87.1094H344.352V85.832H349.206Z" fill="#2E353A"/>
<path d="M359.386 85.832V87.1094H354.545V85.832H359.386Z" fill="#2E353A"/>
<path d="M369.58 85.832V87.1094H364.726V85.832H369.58Z" fill="#2E353A"/>
<path d="M450.357 295.76L436.69 348.488L449.617 352.281L450.357 295.76Z" fill="white" stroke="#455A64" stroke-linecap="round" stroke-linejoin="round"/>
<path d="M456.489 240.03C454.946 237.661 454.383 234.785 454.917 232.009C455.62 226.81 461.892 225.622 461.892 225.622C461.892 225.622 463.258 224.587 468.278 226.491C473.298 228.394 512.116 233.656 536.921 237.016C561.727 240.375 569.761 238.204 569.417 246.723C569.072 255.243 547.306 331.704 546.974 334.105C546.642 336.506 456.489 240.03 456.489 240.03Z" fill="white" stroke="#455A64" stroke-miterlimit="10"/>
<path d="M560.826 254.178L456.478 240.033L439.616 364.417L543.964 378.563L560.826 254.178Z" fill="white" stroke="#455A64" stroke-linecap="round" stroke-linejoin="round"/>
<path d="M541.43 278.989L547.498 279.819" stroke="#455A64" stroke-width="0.5" stroke-linecap="round" stroke-linejoin="round"/>
<path d="M503.43 273.841L536.628 278.35" stroke="#455A64" stroke-width="0.5" stroke-linecap="round" stroke-linejoin="round"/>
<path d="M463.194 268.387L498.627 273.189" stroke="#455A64" stroke-width="0.5" stroke-linecap="round" stroke-linejoin="round"/>
<path d="M531.927 288.964L546.003 290.88" stroke="#455A64" stroke-width="0.5" stroke-linecap="round" stroke-linejoin="round"/>
<path d="M461.7 279.448L517.532 287.01" stroke="#455A64" stroke-width="0.5" stroke-linecap="round" stroke-linejoin="round"/>
<path d="M490.031 294.546L544.509 301.929" stroke="#455A64" stroke-width="0.5" stroke-linecap="round" stroke-linejoin="round"/>
<path d="M460.193 290.497L484.424 293.793" stroke="#455A64" stroke-width="0.5" stroke-linecap="round" stroke-linejoin="round"/>
<path d="M508.131 308.265L543.002 312.991" stroke="#455A64" stroke-width="0.5" stroke-linecap="round" stroke-linejoin="round"/>
<path d="M478.535 304.241L504.133 307.716" stroke="#455A64" stroke-width="0.5" stroke-linecap="round" stroke-linejoin="round"/>
<path d="M458.698 301.559L474.128 303.653" stroke="#455A64" stroke-width="0.5" stroke-linecap="round" stroke-linejoin="round"/>
<path d="M529.028 322.354L541.507 324.04" stroke="#455A64" stroke-width="0.5" stroke-linecap="round" stroke-linejoin="round"/>
<path d="M457.204 312.621L520.636 321.217" stroke="#455A64" stroke-width="0.5" stroke-linecap="round" stroke-linejoin="round"/>
<path d="M504.733 330.312L540.013 335.101" stroke="#455A64" stroke-width="0.5" stroke-linecap="round" stroke-linejoin="round"/>
<path d="M455.697 323.669L498.73 329.507" stroke="#455A64" stroke-width="0.5" stroke-linecap="round" stroke-linejoin="round"/>
<path d="M515.629 343.059L538.505 346.15" stroke="#455A64" stroke-width="0.5" stroke-linecap="round" stroke-linejoin="round"/>
<path d="M469.236 336.762L510.034 342.293" stroke="#455A64" stroke-width="0.5" stroke-linecap="round" stroke-linejoin="round"/>
<path d="M454.202 334.731L464.433 336.11" stroke="#455A64" stroke-width="0.5" stroke-linecap="round" stroke-linejoin="round"/>
<path d="M560.833 254.183C560.833 254.183 562.621 236.837 569.008 243.811" stroke="#455A64" stroke-linecap="round" stroke-linejoin="round"/>
<path d="M525.451 387.803L525.336 398.827L518.911 389.758L493.122 303.015L499.662 301.061L525.451 387.803Z" fill="white" stroke="#455A64" stroke-linecap="round" stroke-linejoin="round"/>
<path d="M497.102 304.767L493.534 305.808L518.873 392.686L522.442 391.646L497.102 304.767Z" fill="#C4B39B" stroke="#455A64" stroke-width="0.5" stroke-linecap="round" stroke-linejoin="round"/>
<path d="M525.451 387.829L518.924 389.771L525.336 398.827L525.451 387.829Z" stroke="#455A64" stroke-linecap="round" stroke-linejoin="round"/>
<path d="M522.13 394.293L525.336 398.827L525.4 393.322L522.13 394.293Z" fill="#2E353A" stroke="#455A64" stroke-linecap="round" stroke-linejoin="round"/>
<path d="M493.505 292.324C492.64 292.584 491.913 293.176 491.482 293.97C491.051 294.765 490.952 295.697 491.206 296.564L493.122 303.015L499.662 301.073L497.746 294.623C497.486 293.757 496.894 293.03 496.099 292.599C495.305 292.169 494.373 292.07 493.505 292.324Z" fill="white" stroke="#455A64" stroke-linecap="round" stroke-linejoin="round"/>
<path d="M493.505 292.324C492.64 292.584 491.913 293.176 491.482 293.97C491.051 294.765 490.952 295.697 491.206 296.564L492.126 299.643L498.653 297.701L497.746 294.623C497.486 293.757 496.894 293.03 496.099 292.599C495.305 292.169 494.373 292.07 493.505 292.324Z" fill="#2E353A" stroke="#455A64" stroke-linecap="round" stroke-linejoin="round"/>
<path d="M171.85 241.09C171.033 242.24 170.228 243.441 169.423 244.705" stroke="#455A64" stroke-linecap="round" stroke-linejoin="round"/>
<path d="M185.211 225.711C181.652 229.01 178.359 232.585 175.363 236.403" stroke="#455A64" stroke-linecap="round" stroke-linejoin="round"/>
<path d="M170.713 232.494C167.224 237.388 164.062 242.509 161.248 247.822" stroke="#455A64" stroke-linecap="round" stroke-linejoin="round"/>
<path d="M260.803 260.582C259.998 261.732 259.181 262.932 258.376 264.184" stroke="#455A64" stroke-linecap="round" stroke-linejoin="round"/>
<path d="M274.164 245.203C270.611 248.505 267.323 252.079 264.328 255.894" stroke="#455A64" stroke-linecap="round" stroke-linejoin="round"/>
<path d="M259.679 251.96C256.191 256.883 253.029 262.029 250.214 267.365" stroke="#455A64" stroke-linecap="round" stroke-linejoin="round"/>
<path d="M388.305 228.969C387.143 228.177 385.916 227.385 384.652 226.593" stroke="#455A64" stroke-linecap="round" stroke-linejoin="round"/>
<path d="M403.888 242.099C400.529 238.601 396.903 235.368 393.044 232.43" stroke="#455A64" stroke-linecap="round" stroke-linejoin="round"/>
<path d="M396.889 227.691C391.918 224.278 386.73 221.193 381.356 218.456" stroke="#455A64" stroke-linecap="round" stroke-linejoin="round"/>
<path d="M256.92 308.163C256.256 312.965 255.259 319.658 254.263 323.631" stroke="#455A64" stroke-linecap="round" stroke-linejoin="round"/>
<path d="M257.661 302.325C257.661 302.325 257.558 303.232 257.367 304.701" stroke="#455A64" stroke-linecap="round" stroke-linejoin="round"/>
<path d="M261.071 315.954C259.676 320.607 257.969 325.16 255.962 329.583" stroke="#455A64" stroke-linecap="round" stroke-linejoin="round"/>
<path d="M324.937 322.762C324.937 322.762 325.793 333.837 331.745 339.802" stroke="#455A64" stroke-linecap="round" stroke-linejoin="round"/>
<path d="M324.081 333.836C324.081 333.836 326.636 341.5 331.745 344.911" stroke="#455A64" stroke-linecap="round" stroke-linejoin="round"/>
<g style="mix-blend-mode:multiply">
<path d="M150.583 393.028C150.583 393.028 156.254 388.468 156.254 349.267C156.254 310.066 162.781 281.428 170.828 268.872C178.875 256.316 186.399 251.283 189.924 251.283C193.45 251.283 190.921 255.805 185.901 262.332C180.881 268.859 176.359 272.385 174.341 280.432C172.323 288.479 172.336 298.519 174.852 297.51C177.368 296.501 181.379 276.408 184.892 268.872C188.404 261.336 196.962 251.782 201.982 247.26C207.002 242.738 218.064 229.173 223.084 232.686C228.103 236.198 225.102 241.231 222.087 243.236C219.073 245.242 207.002 257.287 201.484 264.849C195.966 272.41 192.441 291.481 195.455 291.979C198.47 292.477 207.513 264.35 212.533 258.321C217.553 252.293 237.658 235.7 242.18 235.202C246.701 234.704 247.212 241.729 243.189 245.254C239.165 248.78 225.6 263.839 221.078 272.883C216.556 281.926 214.538 298.519 218.524 294.495C222.509 290.472 229.074 273.892 234.605 268.361C240.136 262.83 256.715 245.254 260.739 247.26C264.763 249.265 263.753 254.298 260.241 257.811C256.728 261.323 243.15 280.432 239.638 290.472C236.125 300.511 232.089 328.664 234.107 324.653C236.125 320.642 242.652 300.026 246.165 291.442C249.677 282.859 256.715 278.886 257.725 282.897C258.734 286.908 256.715 288.926 254.199 297.982C251.683 307.039 251.644 331.193 244.159 344.707C236.674 358.221 206.632 387.139 202.621 397.179C199.716 404.094 196.247 410.759 192.249 417.105" fill="#C4B39B"/>
</g>
<g style="mix-blend-mode:multiply">
<path d="M429.741 396.426C429.741 396.426 423.93 388.468 423.93 349.267C423.93 310.066 417.39 281.428 409.355 268.872C401.321 256.316 393.772 251.283 390.259 251.283C386.747 251.283 389.25 255.805 394.283 262.332C399.316 268.859 403.825 272.385 405.779 280.432C407.733 288.479 407.797 298.519 405.281 297.51C402.764 296.501 398.754 276.408 395.228 268.872C391.703 261.336 383.17 251.782 378.15 247.26C373.131 242.738 362.069 229.173 357.036 232.686C352.004 236.198 355.031 241.231 358.045 243.236C361.06 245.242 373.118 257.287 378.649 264.849C384.179 272.41 387.692 291.481 384.677 291.979C381.663 292.477 372.658 264.35 367.638 258.347C362.618 252.344 342.5 235.726 337.979 235.227C333.457 234.729 332.959 241.755 336.982 245.28C341.006 248.805 354.571 263.865 359.093 272.908C363.614 281.952 365.62 298.544 361.647 294.521C357.675 290.497 351.097 273.918 345.579 268.387C340.061 262.856 323.468 245.28 319.445 247.285C315.421 249.291 316.43 254.323 319.943 257.836C323.455 261.349 337.033 280.457 340.546 290.497C344.059 300.537 348.082 328.689 346.077 324.678C344.071 320.668 337.532 300.052 334.019 291.468C330.506 282.884 323.468 278.912 322.459 282.923C321.45 286.933 323.468 288.952 325.972 298.008C328.475 307.064 328.526 331.218 336.024 344.732C343.522 358.246 372.709 384.623 376.733 394.676C380.756 404.728 388.037 420.567 388.037 420.567" fill="#C4B39B"/>
</g>
<path d="M148.667 402.684C148.667 402.684 156.203 378.07 156.203 338.818C156.203 299.566 162.73 270.979 170.777 258.423C178.824 245.867 186.348 240.835 189.873 240.835C193.399 240.835 190.869 245.356 185.85 251.884C180.83 258.411 176.308 261.936 174.29 269.97C172.272 278.005 172.284 288.07 174.801 287.061C177.317 286.052 181.328 265.96 184.841 258.423C188.353 250.887 196.911 241.333 201.931 236.811C206.951 232.289 218.013 218.724 223.032 222.237C228.052 225.75 225.051 230.782 222.036 232.788C219.022 234.793 206.951 246.838 201.433 254.4C195.915 261.962 192.389 281.032 195.404 281.53C198.418 282.028 207.462 253.902 212.482 247.86C217.502 241.818 237.607 225.251 242.128 224.753C246.65 224.255 247.161 231.28 243.137 234.806C239.114 238.331 225.549 253.391 221.027 262.434C216.505 271.478 214.487 288.07 218.472 284.046C222.458 280.023 229.023 263.443 234.554 257.912C240.085 252.382 256.664 234.806 260.688 236.811C264.711 238.817 263.702 243.849 260.19 247.362C256.677 250.874 243.099 269.97 239.587 280.023C236.074 290.075 232.038 318.215 234.056 314.191C236.074 310.168 242.601 289.577 246.114 280.981C249.626 272.385 256.664 268.412 257.673 272.436C258.682 276.459 256.664 278.465 254.148 287.508C251.632 296.551 251.593 320.718 244.108 334.245C236.623 347.772 207.424 384.495 203.4 394.548C199.376 404.6 190.333 426.711 190.333 426.711" fill="white"/>
<path d="M148.667 402.684C148.667 402.684 156.203 378.07 156.203 338.818C156.203 299.566 162.73 270.979 170.777 258.423C178.824 245.867 186.348 240.835 189.873 240.835C193.399 240.835 190.869 245.356 185.85 251.884C180.83 258.411 176.308 261.936 174.29 269.97C172.272 278.005 172.284 288.07 174.801 287.061C177.317 286.052 181.328 265.96 184.841 258.423C188.353 250.887 196.911 241.333 201.931 236.811C206.951 232.289 218.013 218.724 223.032 222.237C228.052 225.75 225.051 230.782 222.036 232.788C219.022 234.793 206.951 246.838 201.433 254.4C195.915 261.962 192.389 281.032 195.404 281.53C198.418 282.028 207.462 253.902 212.482 247.86C217.502 241.818 237.607 225.251 242.128 224.753C246.65 224.255 247.161 231.28 243.137 234.806C239.114 238.331 225.549 253.391 221.027 262.434C216.505 271.478 214.487 288.07 218.472 284.046C222.458 280.023 229.023 263.443 234.554 257.912C240.085 252.382 256.664 234.806 260.688 236.811C264.711 238.817 263.702 243.849 260.19 247.362C256.677 250.874 243.099 269.97 239.587 280.023C236.074 290.075 232.038 318.215 234.056 314.191C236.074 310.168 242.601 289.577 246.114 280.981C249.626 272.385 256.664 268.412 257.673 272.436C258.682 276.459 256.664 278.465 254.148 287.508C251.632 296.551 251.593 320.718 244.108 334.245C236.623 347.772 207.424 384.495 203.4 394.548C199.376 404.6 190.333 426.711 190.333 426.711" stroke="#455A64" stroke-linecap="round" stroke-linejoin="round"/>
<path d="M431.453 402.684C431.453 402.684 423.917 378.07 423.917 338.818C423.917 299.566 417.377 270.979 409.343 258.423C401.308 245.867 393.759 240.835 390.247 240.835C386.734 240.835 389.238 245.356 394.27 251.884C399.303 258.411 403.812 261.936 405.766 269.97C407.72 278.005 407.784 288.07 405.268 287.061C402.752 286.052 398.741 265.96 395.215 258.423C391.69 250.887 383.157 241.333 378.138 236.811C373.118 232.289 362.056 218.724 357.023 222.237C351.991 225.75 355.018 230.782 358.033 232.788C361.047 234.793 373.105 246.838 378.636 254.4C384.167 261.962 387.679 281.032 384.665 281.53C381.65 282.028 372.607 253.902 367.587 247.86C362.567 241.818 342.449 225.251 337.928 224.753C333.406 224.255 332.908 231.28 336.931 234.806C340.955 238.331 354.52 253.391 359.042 262.434C363.563 271.478 365.569 288.07 361.596 284.046C357.624 280.023 351.046 263.443 345.528 257.912C340.01 252.382 323.417 234.806 319.394 236.811C315.37 238.817 316.379 243.849 319.892 247.362C323.404 250.874 336.982 269.97 340.495 280.023C344.008 290.075 348.031 318.215 346.026 314.191C344.02 310.168 337.48 289.577 333.968 280.981C330.455 272.385 323.417 268.412 322.408 272.436C321.399 276.459 323.417 278.465 325.921 287.508C328.424 296.551 328.475 320.718 335.973 334.245C343.471 347.772 372.658 384.495 376.681 394.548C380.705 404.6 389.748 426.711 389.748 426.711" fill="white"/>
<path d="M431.453 402.684C431.453 402.684 423.917 378.07 423.917 338.818C423.917 299.566 417.377 270.979 409.343 258.423C401.308 245.867 393.759 240.835 390.247 240.835C386.734 240.835 389.238 245.356 394.27 251.884C399.303 258.411 403.812 261.936 405.766 269.97C407.72 278.005 407.784 288.07 405.268 287.061C402.752 286.052 398.741 265.96 395.215 258.423C391.69 250.887 383.157 241.333 378.138 236.811C373.118 232.289 362.056 218.724 357.023 222.237C351.991 225.75 355.018 230.782 358.033 232.788C361.047 234.793 373.105 246.838 378.636 254.4C384.167 261.962 387.679 281.032 384.665 281.53C381.65 282.028 372.607 253.902 367.587 247.86C362.567 241.818 342.449 225.251 337.928 224.753C333.406 224.255 332.908 231.28 336.931 234.806C340.955 238.331 354.52 253.391 359.042 262.434C363.563 271.478 365.569 288.07 361.596 284.046C357.624 280.023 351.046 263.443 345.528 257.912C340.01 252.382 323.417 234.806 319.394 236.811C315.37 238.817 316.379 243.849 319.892 247.362C323.404 250.874 336.982 269.97 340.495 280.023C344.008 290.075 348.031 318.215 346.026 314.191C344.02 310.168 337.48 289.577 333.968 280.981C330.455 272.385 323.417 268.412 322.408 272.436C321.399 276.459 323.417 278.465 325.921 287.508C328.424 296.551 328.475 320.718 335.973 334.245C343.471 347.772 372.658 384.495 376.681 394.548C380.705 404.6 389.748 426.711 389.748 426.711" stroke="#455A64" stroke-linecap="round" stroke-linejoin="round"/>
<path d="M116.861 479.323H193.501C194.497 475.491 195.749 471.2 197.333 466.55C203.362 448.489 222.879 425.906 222.879 425.906C208.891 413.586 192.453 404.366 174.647 398.852C145.269 389.809 123.759 392.465 123.759 392.465C127.719 408.791 128.154 425.774 125.036 442.281C121.204 460.879 118.65 472.643 116.861 479.323Z" fill="#2E353A" stroke="#455A64" stroke-linecap="round" stroke-linejoin="round"/>
<path d="M386.121 479.324H465.749C463.194 472.707 457.676 458.337 452.158 443.967C444.622 424.399 447.637 398.06 444.622 398.06C441.608 398.06 407.746 395.8 391.192 401.062C374.638 406.325 355.81 421.384 355.81 421.384C364.333 431.288 371.66 442.16 377.639 453.777C381.483 461.921 384.331 470.498 386.121 479.324Z" fill="#2E353A" stroke="#455A64" stroke-linecap="round" stroke-linejoin="round"/>
<path d="M164.735 408.049C164.186 405.878 156.011 409.148 156.011 409.148C156.011 409.148 158.745 398.801 154.389 398.801C150.033 398.801 149.484 406.465 149.484 406.465C149.484 406.465 141.309 403.208 141.309 408.1C141.309 412.992 146.751 412.903 146.751 412.903C146.751 412.903 140.211 421.078 145.116 422.7C150.021 424.322 153.278 418.344 153.278 418.344C153.278 418.344 156.548 423.798 160.942 421.614C165.336 419.43 162.028 414.538 162.028 414.538C162.028 414.538 165.272 410.233 164.735 408.049ZM153.84 416.224C153.429 416.132 153.052 415.927 152.753 415.63C152.453 415.334 152.244 414.959 152.148 414.549C152.053 414.139 152.075 413.71 152.213 413.312C152.35 412.914 152.597 412.563 152.926 412.299C153.254 412.035 153.651 411.87 154.069 411.821C154.487 411.773 154.911 411.844 155.291 412.026C155.671 412.208 155.991 412.493 156.216 412.85C156.441 413.206 156.56 413.619 156.561 414.04C156.469 414.681 156.136 415.263 155.631 415.669C155.126 416.074 154.486 416.273 153.84 416.224ZM176.717 469.105C176.168 466.934 167.993 470.204 167.993 470.204C167.993 470.204 170.726 459.857 166.358 459.857C161.989 459.857 161.466 467.521 161.466 467.521C161.466 467.521 153.291 464.251 153.291 469.143C153.291 474.036 158.745 474.048 158.745 474.048C158.745 474.048 152.205 482.223 157.11 483.858C162.015 485.493 165.272 479.49 165.272 479.49C165.272 479.49 168.542 484.944 172.936 482.76C177.33 480.575 174.022 475.683 174.022 475.683C174.022 475.683 177.253 471.225 176.717 469.105ZM165.821 477.28C165.41 477.188 165.033 476.983 164.734 476.686C164.435 476.39 164.225 476.015 164.13 475.605C164.034 475.195 164.056 474.766 164.194 474.368C164.331 473.97 164.579 473.619 164.907 473.355C165.236 473.091 165.632 472.926 166.05 472.877C166.469 472.829 166.892 472.9 167.272 473.082C167.652 473.264 167.973 473.549 168.197 473.906C168.422 474.262 168.541 474.675 168.542 475.096C168.45 475.732 168.115 476.308 167.608 476.703C167.101 477.098 166.461 477.282 165.821 477.216V477.28ZM128.779 477.28C128.23 475.096 120.068 478.366 120.068 478.366C120.068 478.366 122.788 468.019 118.433 468.019C114.077 468.019 113.528 475.683 113.528 475.683C113.528 475.683 105.353 472.413 105.353 477.318C105.353 482.223 110.807 482.223 110.807 482.223C110.807 482.223 104.267 490.385 109.172 492.02C114.077 493.655 117.334 487.665 117.334 487.665C117.334 487.665 120.604 493.106 124.998 490.935C129.392 488.763 126.096 483.858 126.096 483.858C126.096 483.858 129.328 479.388 128.792 477.216L128.779 477.28ZM117.883 485.442C117.472 485.35 117.094 485.144 116.795 484.847C116.495 484.55 116.286 484.175 116.191 483.764C116.096 483.353 116.119 482.924 116.258 482.525C116.396 482.127 116.645 481.776 116.974 481.513C117.304 481.25 117.701 481.085 118.12 481.039C118.54 480.992 118.963 481.064 119.343 481.248C119.723 481.432 120.042 481.719 120.265 482.077C120.489 482.435 120.606 482.849 120.604 483.271C120.509 483.902 120.175 484.473 119.671 484.865C119.167 485.257 118.532 485.441 117.896 485.378L117.883 485.442ZM188.136 434.796H194.127C198.482 434.796 201.203 439.701 201.203 439.701C191.955 442.358 188.149 434.732 188.149 434.732L188.136 434.796ZM182.145 477.28H188.136C192.492 477.28 195.212 482.185 195.212 482.185C185.965 484.842 182.158 477.216 182.158 477.216L182.145 477.28ZM129.877 469.105H135.868C140.224 469.105 142.944 474.01 142.944 474.01C133.684 476.667 129.877 469.105 129.877 469.105ZM158.834 430.67L162.334 435.537C164.889 439.088 162.475 444.146 162.475 444.146C154.862 438.156 158.834 430.607 158.834 430.607V430.67ZM128.868 446.944L131.602 441.617C133.607 437.785 139.202 437.555 139.202 437.555C137.324 447.033 128.868 446.944 128.868 446.944Z" fill="white"/>
<path d="M421.234 418.395C420.685 416.224 412.51 419.494 412.51 419.494C412.51 419.494 415.244 409.147 410.888 409.147C406.532 409.147 405.983 416.811 405.983 416.811C405.983 416.811 397.808 413.554 397.808 418.446C397.808 423.339 403.263 423.351 403.263 423.351C403.263 423.351 396.723 431.526 401.628 433.161C406.532 434.796 409.79 428.793 409.79 428.793C409.79 428.793 413.06 434.247 417.454 432.063C421.848 429.878 418.539 424.986 418.539 424.986C418.539 424.986 421.771 420.567 421.234 418.395ZM410.339 426.57C409.928 426.479 409.551 426.273 409.252 425.977C408.952 425.68 408.743 425.305 408.647 424.895C408.552 424.485 408.574 424.056 408.712 423.658C408.849 423.26 409.096 422.909 409.425 422.645C409.753 422.381 410.15 422.216 410.568 422.168C410.986 422.119 411.41 422.19 411.79 422.372C412.17 422.554 412.49 422.84 412.715 423.196C412.94 423.552 413.059 423.965 413.06 424.386C412.983 425.034 412.654 425.626 412.146 426.034C411.637 426.442 410.988 426.635 410.339 426.57ZM446.819 460.879C446.283 458.695 438.108 461.965 438.108 461.965C438.108 461.965 440.829 451.618 436.473 451.618C432.117 451.618 431.581 459.282 431.581 459.282C431.581 459.282 423.406 456.012 423.406 460.917C423.406 465.822 428.847 465.822 428.847 465.822C428.847 465.822 422.32 473.984 427.225 475.619C432.13 477.254 435.387 471.264 435.387 471.264C435.387 471.264 438.657 476.705 443.051 474.534C447.445 472.362 444.137 467.457 444.137 467.457C444.137 467.457 447.368 463.05 446.819 460.879ZM435.936 469.105C435.525 469.013 435.147 468.807 434.848 468.51C434.548 468.213 434.339 467.838 434.244 467.427C434.149 467.016 434.172 466.587 434.311 466.188C434.449 465.79 434.698 465.439 435.027 465.176C435.357 464.913 435.754 464.748 436.174 464.701C436.593 464.655 437.016 464.727 437.396 464.911C437.776 465.095 438.095 465.382 438.319 465.74C438.542 466.098 438.659 466.512 438.657 466.933C438.577 467.579 438.248 468.168 437.739 468.573C437.231 468.979 436.584 469.17 435.936 469.105ZM419.599 477.28C419.05 475.096 410.888 478.366 410.888 478.366C410.888 478.366 413.609 468.019 409.253 468.019C404.898 468.019 404.348 475.683 404.348 475.683C404.348 475.683 396.173 472.413 396.173 477.318C396.173 482.223 401.628 482.223 401.628 482.223C401.628 482.223 395.088 490.385 399.993 492.02C404.898 493.655 408.155 487.664 408.155 487.664C408.155 487.664 411.425 493.106 415.819 490.934C420.213 488.763 416.917 483.858 416.917 483.858C416.917 483.858 420.098 479.387 419.599 477.216V477.28ZM408.704 485.442C408.292 485.35 407.915 485.144 407.615 484.847C407.316 484.55 407.107 484.175 407.012 483.764C406.917 483.353 406.94 482.923 407.078 482.525C407.217 482.127 407.465 481.776 407.795 481.513C408.125 481.25 408.522 481.085 408.941 481.038C409.36 480.992 409.784 481.064 410.164 481.248C410.543 481.432 410.863 481.719 411.086 482.077C411.309 482.435 411.427 482.849 411.425 483.27C411.329 483.904 410.994 484.477 410.487 484.87C409.98 485.262 409.341 485.444 408.704 485.378V485.442ZM444.648 445.142H450.638C454.994 445.142 457.715 450.047 457.715 450.047C448.454 452.704 444.648 445.079 444.648 445.079V445.142ZM380.386 476.13H386.376C390.732 476.13 393.453 481.022 393.453 481.022C384.192 483.756 380.386 476.13 380.386 476.13ZM415.333 441.004L418.833 445.87C421.388 449.421 418.974 454.48 418.974 454.48C411.361 448.502 415.333 441.004 415.333 441.004ZM450.753 471.455L454.24 476.322C456.795 479.86 454.381 484.931 454.381 484.931C446.768 478.991 450.753 471.455 450.753 471.455ZM385.316 457.29L388.05 451.963C390.055 448.131 395.714 447.901 395.714 447.901C393.823 457.379 385.303 457.29 385.303 457.29H385.316Z" fill="white"/>
</svg>
