<svg width="630" height="596" viewBox="0 0 630 596" fill="none" xmlns="http://www.w3.org/2000/svg">
<path d="M315 595.545C488.97 595.545 630 522.562 630 432.533C630 342.504 488.97 269.521 315 269.521C141.03 269.521 0 342.504 0 432.533C0 522.562 141.03 595.545 315 595.545Z" fill="#F5F5F5"/>
<path d="M477.973 545.433C523.856 545.433 561.051 522.457 561.051 494.114C561.051 465.772 523.856 442.796 477.973 442.796C432.089 442.796 394.894 465.772 394.894 494.114C394.894 522.457 432.089 545.433 477.973 545.433Z" fill="#E0E0E0"/>
<path d="M170.274 511.64L53.612 444.278C49.5354 441.932 49.5354 438.117 53.612 435.771L264.481 313.984C266.767 312.827 269.293 312.225 271.855 312.225C274.416 312.225 276.942 312.827 279.228 313.984L395.89 381.346C399.953 383.705 399.953 387.52 395.89 389.866L185.02 511.64C182.737 512.804 180.21 513.41 177.647 513.41C175.084 513.41 172.557 512.804 170.274 511.64Z" fill="#E0E0E0"/>
<path d="M123.059 11.6069L110.986 18.5542C111.053 18.0237 111.088 17.4897 111.091 16.955V13.4813C111.091 7.26811 106.739 4.76447 101.365 7.85798C99.0577 9.27974 97.0821 11.1794 95.5709 13.4289C94.6927 5.64271 88.5712 2.73272 81.1521 7.01906C73.1168 11.6593 66.6021 22.9454 66.6021 32.2259V37.4691C66.5502 39.5465 66.9715 41.6084 67.8343 43.4988L57.8459 49.2664C56.2744 50.29 54.9664 51.6697 54.028 53.2936C53.0897 54.9174 52.5475 56.7397 52.4454 58.6124C52.4454 62.0598 54.8573 63.4493 57.8459 61.7321L123.032 24.0989C124.602 23.073 125.908 21.6927 126.846 20.0693C127.784 18.4459 128.328 16.6248 128.433 14.7528C128.459 11.2792 126.034 9.88973 123.059 11.6069Z" fill="#EBEBEB"/>
<path d="M180.957 37.6657L171.873 42.909C171.873 42.5026 171.952 42.1094 171.952 41.7161V39.0552C171.952 34.3756 168.662 32.5012 164.611 34.8213C162.862 35.8986 161.368 37.3432 160.233 39.0552C159.565 33.1697 154.99 30.9675 149.34 34.2052C143.284 37.7051 138.356 46.2253 138.356 53.225V57.1574C138.319 58.7244 138.637 60.2793 139.286 61.7059L131.749 66.0578C130.561 66.8344 129.573 67.88 128.865 69.1098C128.157 70.3396 127.748 71.719 127.673 73.1362C127.673 75.7578 129.508 76.7933 131.749 75.4956L180.957 47.0904C182.14 46.3165 183.125 45.2748 183.831 44.0496C184.537 42.8245 184.944 41.4503 185.02 40.0383C185.02 37.4298 183.198 36.4336 180.957 37.6657Z" fill="#EBEBEB"/>
<path d="M159.774 434.368C164.31 406.841 163.589 396.918 151.634 372.419C145.02 359.274 134.899 348.214 122.39 340.462C112.008 334.236 102.112 332.296 93.6441 336.189C88.1256 338.718 84.2456 345.653 85.7792 353.229C87.1818 359.967 99.4509 372 110.685 381.713C127.725 396.525 149.891 416.987 152.866 453.65L150.926 472.381L159.774 434.368Z" fill="#C4B39B"/>
<path opacity="0.2" d="M159.774 434.368C164.31 406.841 163.589 396.918 151.634 372.419C145.02 359.274 134.899 348.214 122.39 340.462C112.008 334.236 102.112 332.296 93.6441 336.189C88.1256 338.718 84.2456 345.653 85.7792 353.229C87.1818 359.967 99.4509 372 110.685 381.713C127.725 396.525 149.891 416.987 152.866 453.65L150.926 472.381L159.774 434.368Z" fill="#181717"/>
<path d="M155.226 449.089C155.005 449.025 154.815 448.884 154.69 448.691C154.565 448.499 154.513 448.268 154.544 448.04C161.78 398.937 128.839 359.049 102.295 349.14C102.063 349.051 101.876 348.875 101.773 348.65C101.67 348.424 101.66 348.167 101.745 347.934C101.788 347.819 101.854 347.714 101.939 347.625C102.023 347.536 102.124 347.464 102.236 347.414C102.348 347.364 102.469 347.337 102.592 347.334C102.714 347.331 102.836 347.352 102.951 347.396C130.084 357.529 163.759 398.229 156.392 448.328C156.375 448.45 156.333 448.567 156.27 448.672C156.207 448.778 156.124 448.87 156.025 448.943C155.927 449.016 155.814 449.069 155.695 449.098C155.576 449.128 155.452 449.133 155.331 449.115L155.226 449.089Z" fill="white"/>
<path d="M158.529 490.405C158.07 490.812 157.598 491.218 157.113 491.611C150.651 496.855 140.912 498.31 132.785 498.48C127.424 498.585 120.201 498.703 115.652 495.465C113.398 493.866 111.799 491.021 112.507 488.361C113.267 485.477 116.439 483.379 116.242 480.404C110.213 479.486 103.75 482.121 98.1139 479.801C93.8669 478.058 91.1797 473.929 88.7547 470.035C87.3915 467.689 85.8447 465.067 86.6181 462.446C87.5357 459.379 91.0618 458.068 94.1028 457.072C94.923 456.859 95.6905 456.48 96.3574 455.957C96.6868 455.689 96.9288 455.329 97.0525 454.923C97.1762 454.517 97.1761 454.083 97.0521 453.677C96.672 452.707 95.4923 452.366 94.4305 452.235C92.2284 451.92 90 451.894 87.8765 451.461C85.6579 451.129 83.6165 450.057 82.0827 448.42C80.3918 446.388 80.0379 443.583 79.8281 440.949C79.4284 436.469 79.297 431.969 79.4349 427.474C79.4349 426.399 78.8975 415.676 78.5304 415.873C89.0169 411.626 100.814 410.525 111.917 410.944C118.143 411.18 127.345 412.491 131.054 418.324C132.053 420.003 132.616 421.904 132.693 423.856C132.693 424.55 132.274 428.194 132.693 428.457C132.862 428.542 133.055 428.568 133.241 428.53C133.426 428.492 133.594 428.392 133.715 428.247C133.953 427.949 134.115 427.598 134.187 427.224C134.751 425.311 135.682 423.777 136.258 421.981C136.835 420.185 136.717 418.232 137.936 416.738C138.562 416.103 139.323 415.616 140.163 415.314C141.002 415.012 141.899 414.903 142.786 414.995C149.34 415.178 154.924 420.5 157.415 426.595C159.905 432.691 159.958 439.481 159.971 446.061L163.117 439.625C166.774 432.114 170.89 446.048 171.532 448.669C173.412 456.147 173.199 463.999 170.918 471.364C168.636 478.729 164.373 485.326 158.595 490.432L158.529 490.405Z" fill="#C4B39B"/>
<path d="M159.119 492.096C158.954 492.074 158.799 492.006 158.671 491.899C158.543 491.792 158.449 491.652 158.398 491.493C149.327 463.35 106.306 426.176 89.8427 420.552C89.6185 420.478 89.4332 420.317 89.3275 420.105C89.2218 419.894 89.2044 419.649 89.2791 419.425C89.3567 419.2 89.5199 419.014 89.7334 418.909C89.947 418.803 90.1935 418.786 90.4195 418.861C107.158 424.576 150.874 462.341 160.102 490.956C160.172 491.18 160.151 491.423 160.043 491.632C159.935 491.84 159.749 491.998 159.525 492.07C159.395 492.117 159.254 492.126 159.119 492.096Z" fill="white"/>
<path d="M106.975 466.378C106.823 466.38 106.674 466.339 106.544 466.26C106.415 466.181 106.309 466.068 106.241 465.932C106.188 465.837 106.154 465.732 106.142 465.623C106.13 465.515 106.139 465.405 106.17 465.3C106.2 465.195 106.251 465.098 106.319 465.013C106.388 464.928 106.473 464.857 106.569 464.805C117.411 459.761 129.677 458.671 141.239 461.725C139.378 447.686 142.458 436.518 144.32 429.78V429.531C144.381 429.317 144.524 429.135 144.717 429.025C144.911 428.915 145.14 428.885 145.355 428.941C145.569 429.002 145.75 429.146 145.858 429.34C145.966 429.534 145.993 429.763 145.932 429.977V430.226C144.045 437.042 140.899 448.459 143.075 462.747C143.1 462.887 143.088 463.031 143.04 463.164C142.992 463.298 142.909 463.416 142.799 463.507C142.692 463.598 142.565 463.661 142.427 463.691C142.29 463.721 142.148 463.716 142.013 463.678C130.528 460.332 118.219 461.263 107.368 466.299C107.245 466.355 107.11 466.382 106.975 466.378Z" fill="white"/>
<path d="M334.597 2.54903L164.729 100.663C162.041 102.211 159.79 104.416 158.186 107.07C156.581 109.725 155.675 112.743 155.553 115.842V484.729C155.553 490.956 159.394 498.218 164.126 500.957C168.858 503.697 177.064 503.382 182.477 500.275L351.689 402.581C354.523 400.727 356.882 398.233 358.576 395.301C360.27 392.368 361.252 389.079 361.442 385.698V18.0821C361.442 11.8689 357.601 4.607 352.856 1.86741C348.111 -0.872177 339.984 -0.557583 334.597 2.54903Z" fill="#37474F"/>
<path d="M180.21 501.442C174.966 503.474 168.308 503.369 164.218 501.01C159.486 498.27 155.645 491.008 155.645 484.782V115.79C155.745 112.838 156.593 109.961 158.11 107.427L173.905 116.393C171.172 119.573 169.572 123.57 169.356 127.757V492.699C169.291 500.184 174.023 503.736 180.21 501.442Z" fill="#263238"/>
<path d="M177.837 112.827C175.338 114.466 173.258 116.668 171.764 119.256C170.271 121.845 169.406 124.747 169.238 127.731V492.699C169.238 501.101 175.189 504.496 182.464 500.341L351.703 402.634C354.536 400.779 356.895 398.286 358.589 395.353C360.283 392.421 361.265 389.132 361.455 385.75V18.0822C361.455 11.8952 357.064 9.35223 351.703 12.4588L177.837 112.827Z" fill="#455A64"/>
<path d="M186.711 136.907C184.014 138.664 181.769 141.033 180.159 143.821C178.549 146.608 177.619 149.736 177.444 152.951V463.403C177.444 469.314 181.599 471.713 186.711 468.764L345.909 376.837C348.603 375.073 350.846 372.702 352.456 369.912C354.066 367.123 354.997 363.995 355.176 360.779V50.328C355.176 44.4425 351.008 42.0437 345.909 44.9799L186.711 136.907Z" fill="#37474F"/>
<path d="M343.444 353.059V46.4084L186.711 136.854C184.014 138.612 181.769 140.98 180.159 143.768C178.549 146.556 177.619 149.684 177.444 152.898V459.627L334.177 369.182C336.879 367.41 339.126 365.028 340.736 362.227C342.346 359.426 343.274 356.285 343.444 353.059Z" fill="#C4B39B"/>
<path opacity="0.6" d="M343.444 353.059V46.4084L186.711 136.854C184.014 138.612 181.769 140.98 180.159 143.768C178.549 146.556 177.619 149.684 177.444 152.898V459.627L334.177 369.182C336.879 367.41 339.126 365.028 340.736 362.227C342.346 359.426 343.274 356.285 343.444 353.059Z" fill="white"/>
<path d="M253.038 82.2068L281.26 65.9135C282.938 64.9435 284.301 65.6251 284.301 67.4602C284.225 68.4827 283.91 69.4731 283.382 70.3518C282.854 71.2306 282.127 71.9732 281.26 72.5199L253.038 88.8657C251.36 89.8488 249.997 89.1541 249.997 87.332C250.063 86.2982 250.373 85.2947 250.901 84.4038C251.43 83.5129 252.162 82.7599 253.038 82.2068Z" fill="#181717"/>
<path d="M301.459 54.2082C303.032 53.3037 304.317 54.0378 304.317 55.8598C304.262 56.8518 303.975 57.8169 303.478 58.6775C302.982 59.5382 302.29 60.2702 301.459 60.8147C299.873 61.7191 298.602 60.9851 298.602 59.163C298.655 58.1706 298.941 57.2047 299.438 56.3437C299.934 55.4828 300.627 54.7511 301.459 54.2082Z" fill="#181717"/>
<path d="M312.85 47.6145C314.423 46.6969 315.708 47.431 315.708 49.2661C315.654 50.2565 315.367 51.2202 314.87 52.0789C314.374 52.9376 313.682 53.667 312.85 54.2079C311.277 55.1254 309.993 54.3914 309.993 52.5563C310.047 51.5658 310.334 50.6021 310.83 49.7435C311.327 48.8848 312.019 48.1554 312.85 47.6145Z" fill="#181717"/>
<path d="M221.395 100.44C222.981 99.5227 224.266 100.27 224.266 102.092C224.213 103.084 223.924 104.049 223.425 104.908C222.926 105.767 222.231 106.496 221.395 107.034C219.822 107.951 218.538 107.217 218.538 105.395C218.59 104.402 218.876 103.436 219.372 102.575C219.869 101.714 220.562 100.982 221.395 100.44Z" fill="#181717"/>
<path d="M232.891 93.8337C234.477 92.9292 235.762 93.6633 235.762 95.4853C235.708 96.4775 235.421 97.443 234.924 98.3038C234.428 99.1646 233.736 99.8964 232.904 100.44C231.318 101.358 230.033 100.611 230.033 98.7885C230.089 97.7966 230.376 96.8314 230.872 95.9708C231.368 95.1102 232.06 94.3782 232.891 93.8337Z" fill="#181717"/>
<path d="M343.444 320.879V353.085C343.128 358.558 340.67 363.686 336.602 367.36C335.857 368.036 335.045 368.634 334.177 369.143L331.202 370.834C317.726 359.613 307.502 351.027 307.502 351.027C284.301 323.632 286.975 302.986 289.806 302.75C290.134 302.75 290.698 302.593 291.484 302.423C298.989 300.924 306.734 301.12 314.154 302.995C321.574 304.87 328.482 308.378 334.374 313.263C336.615 315.033 339.722 317.68 343.444 320.879Z" fill="#F2D1D0"/>
<path d="M336.602 367.333C335.857 368.01 335.045 368.607 334.177 369.116L331.201 370.833L210.031 440.791C206.229 426.241 199.964 402.135 199.885 401.703C199.885 401.48 213.583 381.018 214.513 357.135C215.444 333.252 208.798 322.779 206.649 320.432C207.619 320.039 229.221 313.957 229.221 313.957L272.294 305.358L291.432 302.356C291.432 302.356 317.386 315.071 331.555 343.49C335.416 350.816 337.163 359.071 336.602 367.333Z" fill="#C4B39B"/>
<path opacity="0.2" d="M336.602 367.333C335.857 368.01 335.045 368.607 334.177 369.116L331.201 370.833L210.031 440.791C206.229 426.241 199.964 402.135 199.885 401.703C199.885 401.48 213.583 381.018 214.513 357.135C215.444 333.252 208.798 322.779 206.649 320.432C207.619 320.039 229.221 313.957 229.221 313.957L272.294 305.358L291.432 302.356C291.432 302.356 317.386 315.071 331.555 343.49C335.416 350.816 337.163 359.071 336.602 367.333Z" fill="#181717"/>
<path d="M206.675 320.446C193.724 321.888 185.047 328.062 177.418 340.999V459.614L195.599 449.128L212.495 403.25C212.495 403.25 233.31 334.485 206.675 320.446Z" fill="#F2D1D0"/>
<path d="M227.504 297.677C227.962 296.065 224.148 290.809 223.296 289.354C221.631 286.496 219.796 283.73 217.882 281.03C213.832 275.341 210.017 269.521 205.849 263.989C201.127 258.014 197.111 251.513 193.881 244.616C189.857 235.571 187.839 225.386 189.765 215.673C191.692 205.96 197.945 196.85 207.042 192.931C210.974 174.016 227.884 158.522 247.087 156.228C266.972 153.842 288.037 164.368 307.227 155.468C309.613 154.354 311.933 152.846 314.554 152.623C320.414 152.033 325.29 157.945 325.84 163.818C326.391 169.69 323.822 175.353 321.344 180.688C323.61 181.386 325.626 182.723 327.151 184.539C328.676 186.354 329.645 188.571 329.941 190.924C330.237 193.276 329.848 195.664 328.821 197.801C327.794 199.938 326.172 201.733 324.149 202.971C327.44 211.531 324.215 221.585 318.067 228.375C311.92 235.165 303.294 239.202 294.604 242.125C285.913 245.048 276.895 247.067 268.493 250.698C258.636 255.047 249.855 261.509 242.772 269.628C235.689 277.746 230.476 287.322 227.504 297.677Z" fill="#263238"/>
<path d="M303.675 191.109C308.184 195.697 317.281 206.694 316.271 246.622C315.406 280.467 304.474 288.803 298.903 291.189C293.332 293.575 282.767 292.093 272.451 290.35V306.866C272.451 306.866 287.093 317.025 290.802 326.253C293.66 333.463 275.414 343.477 247.716 331.496C236.391 326.62 227.241 314.181 227.241 314.181L227.622 265.301C227.622 265.301 221.526 271.186 211.25 262.155C202.756 254.696 199.911 242.152 206.557 235.427C213.203 228.703 225.459 230.577 230.151 240.185C230.151 240.185 248.699 241.719 270.655 229.699C292.611 217.679 302.128 204.217 303.675 191.109Z" fill="#F2D1D0"/>
<path d="M277.943 240.578C277.948 241.414 277.706 242.231 277.25 242.931C276.793 243.63 276.14 244.179 275.374 244.51C274.607 244.842 273.76 244.941 272.938 244.794C272.116 244.648 271.355 244.264 270.749 243.689C270.144 243.113 269.721 242.373 269.533 241.559C269.345 240.746 269.4 239.895 269.692 239.112C269.983 238.33 270.498 237.65 271.173 237.158C271.848 236.666 272.652 236.383 273.487 236.344C274.058 236.325 274.628 236.42 275.163 236.623C275.698 236.826 276.187 237.134 276.602 237.528C277.017 237.922 277.349 238.395 277.579 238.918C277.809 239.442 277.933 240.006 277.943 240.578Z" fill="#263238"/>
<path d="M274.693 265.654L290.658 268.551C290.515 269.613 290.16 270.636 289.613 271.558C289.066 272.48 288.339 273.282 287.475 273.917C286.612 274.552 285.629 275.006 284.586 275.253C283.543 275.5 282.461 275.535 281.404 275.354C279.247 274.921 277.342 273.668 276.09 271.859C274.838 270.05 274.337 267.826 274.693 265.654Z" fill="#B16668"/>
<path d="M281.391 275.354C282.466 275.544 283.568 275.509 284.629 275.249C284.551 273.455 283.784 271.76 282.487 270.517C281.191 269.274 279.464 268.579 277.668 268.577C276.706 268.575 275.755 268.776 274.876 269.167C275.259 270.712 276.076 272.116 277.23 273.212C278.385 274.308 279.828 275.051 281.391 275.354Z" fill="#DCADAD"/>
<path d="M311.788 226.894L302.075 222.961C302.299 222.317 302.652 221.724 303.112 221.22C303.572 220.715 304.13 220.31 304.751 220.028C305.373 219.746 306.045 219.593 306.728 219.579C307.41 219.565 308.089 219.69 308.721 219.947C310.027 220.489 311.073 221.513 311.644 222.807C312.215 224.1 312.267 225.564 311.788 226.894Z" fill="#263238"/>
<path d="M309.547 237.433C309.554 238.268 309.315 239.086 308.86 239.787C308.405 240.487 307.755 241.039 306.989 241.372C306.224 241.706 305.377 241.807 304.554 241.664C303.732 241.52 302.969 241.138 302.362 240.564C301.755 239.991 301.33 239.252 301.139 238.439C300.949 237.626 301.001 236.775 301.291 235.991C301.58 235.208 302.093 234.527 302.766 234.033C303.439 233.538 304.243 233.253 305.077 233.212C305.648 233.195 306.217 233.29 306.751 233.493C307.285 233.696 307.773 234.002 308.189 234.394C308.604 234.786 308.938 235.257 309.171 235.778C309.404 236.299 309.532 236.862 309.547 237.433Z" fill="#263238"/>
<path d="M289.596 235.716L292.533 260.49L305.3 254.408L289.596 235.716Z" fill="#DCADAD"/>
<path d="M272.386 290.402C261.506 288.96 239.117 282.472 235.683 273.611C235.683 273.611 236.823 279.182 243.548 284.923C250.272 290.664 272.386 297.179 272.386 297.179V290.402Z" fill="#DCADAD"/>
<path d="M228.434 252.717C229.811 252.6 231.152 252.213 232.379 251.578C233.607 250.943 234.697 250.072 235.588 249.015C236.479 247.959 237.153 246.737 237.572 245.42C237.991 244.103 238.146 242.716 238.029 241.339C237.912 239.962 237.525 238.622 236.89 237.394C236.255 236.167 235.384 235.076 234.328 234.185C233.271 233.294 232.049 232.62 230.732 232.201C229.415 231.782 228.029 231.627 226.652 231.744L228.434 252.717Z" fill="#263238"/>
<path d="M317.438 360.753C325.146 356.296 331.385 345.495 331.385 336.595C331.385 327.694 325.146 324.103 317.438 328.547C309.731 332.99 303.504 343.804 303.504 352.692C303.504 361.579 309.744 365.197 317.438 360.753Z" fill="#DCADAD"/>
<path fill-rule="evenodd" clip-rule="evenodd" d="M309.534 354.96C309.993 354.514 312.156 352.338 312.562 351.905C312.769 351.714 312.927 351.476 313.025 351.212C313.123 350.948 313.157 350.665 313.126 350.385C313.126 349.664 313.06 347.763 313.06 347.226C313.055 346.963 313.107 346.703 313.214 346.463C313.32 346.223 313.478 346.009 313.676 345.836C314.808 344.56 316.135 343.472 317.609 342.612C318.713 341.98 319.944 341.599 321.213 341.498C321.659 341.498 321.646 341.956 321.633 342.415C321.62 342.874 321.633 343.398 321.633 343.883C321.633 344.027 321.633 344.145 321.633 344.263C321.66 344.519 321.704 344.773 321.764 345.024C321.829 345.443 322.039 345.535 322.249 345.548C322.459 345.561 324.425 345.941 325.237 346.072C326.05 346.203 326.207 345.613 326.391 345.26C326.574 344.906 326.797 344.539 327.007 344.145C327.32 343.522 327.491 342.837 327.505 342.14C327.705 340.452 327.291 338.75 326.338 337.342C326.048 336.998 325.68 336.728 325.264 336.556C324.294 336.228 323.249 336.196 322.262 336.464C318.596 337.116 315.269 339.02 312.85 341.851C308.59 346.688 308.918 347.095 308.42 348.261C307.693 350.027 307.41 351.945 307.594 353.845C307.961 355.156 308.498 355.746 308.695 355.733C308.892 355.72 309.088 355.431 309.534 354.96Z" fill="white"/>
<path opacity="0.5" d="M280.172 382.263C287.866 377.82 294.119 367.006 294.119 358.118C294.119 349.231 287.866 345.613 280.172 350.07C272.477 354.527 266.225 365.328 266.225 374.215C266.225 383.102 272.477 386.707 280.172 382.263Z" fill="white"/>
<path d="M280.29 371.266C278.442 372.341 276.934 371.2 276.934 368.723V360.963C276.952 359.706 277.266 358.472 277.848 357.358C278.431 356.245 279.268 355.284 280.29 354.553C282.138 353.478 283.646 354.619 283.646 357.083V364.856C283.624 366.112 283.31 367.346 282.727 368.459C282.145 369.571 281.31 370.533 280.29 371.266Z" fill="white"/>
<path d="M278.691 374.622C277.947 374.624 277.218 374.41 276.593 374.006C275.822 373.421 275.213 372.65 274.823 371.765C274.433 370.879 274.276 369.909 274.365 368.946C274.365 368.737 274.448 368.537 274.595 368.39C274.743 368.242 274.943 368.159 275.152 368.159C275.36 368.159 275.56 368.242 275.708 368.39C275.855 368.537 275.938 368.737 275.938 368.946C275.862 369.643 275.959 370.349 276.22 371C276.48 371.651 276.897 372.229 277.432 372.682C277.812 372.912 278.245 373.04 278.689 373.051C279.132 373.063 279.571 372.958 279.962 372.747C284.563 370.663 284.93 365.21 284.865 362.969C284.864 362.76 284.945 362.559 285.089 362.407C285.233 362.256 285.429 362.166 285.638 362.156C285.741 362.154 285.843 362.173 285.938 362.211C286.033 362.249 286.12 362.306 286.193 362.378C286.267 362.45 286.325 362.536 286.364 362.63C286.404 362.725 286.424 362.827 286.424 362.929C286.569 368.251 284.393 372.459 280.604 374.189C280.004 374.466 279.352 374.613 278.691 374.622Z" fill="white"/>
<path d="M278.297 378.37C278.124 378.37 277.956 378.313 277.818 378.208C277.68 378.103 277.582 377.955 277.537 377.787C277.492 377.62 277.504 377.442 277.57 377.282C277.637 377.122 277.754 376.989 277.904 376.902L281.837 374.608C281.926 374.555 282.024 374.52 282.127 374.505C282.23 374.491 282.335 374.497 282.435 374.524C282.536 374.551 282.629 374.598 282.711 374.662C282.793 374.726 282.861 374.806 282.911 374.897C283.012 375.078 283.039 375.292 282.985 375.492C282.931 375.693 282.801 375.865 282.623 375.971L278.691 378.265C278.573 378.34 278.436 378.376 278.297 378.37Z" fill="white"/>
<path opacity="0.5" d="M242.906 403.787C250.6 399.343 256.839 388.529 256.839 379.629C256.839 370.728 250.6 367.137 242.906 371.58C235.211 376.024 228.959 386.838 228.959 395.738C228.959 404.639 235.198 408.23 242.906 403.787Z" fill="white"/>
<path d="M241.175 387.402C240.753 387.405 240.337 387.297 239.969 387.088C239.528 386.797 239.174 386.393 238.943 385.918C238.712 385.442 238.614 384.914 238.659 384.387C238.717 383.152 239.07 381.948 239.687 380.876C240.305 379.804 241.171 378.896 242.211 378.227C242.623 377.871 243.135 377.653 243.677 377.603C244.219 377.552 244.763 377.671 245.234 377.943C245.705 378.215 246.08 378.627 246.306 379.122C246.532 379.617 246.599 380.17 246.497 380.704C246.439 381.94 246.086 383.144 245.468 384.215C244.85 385.287 243.985 386.195 242.945 386.865C242.412 387.194 241.802 387.379 241.175 387.402Z" fill="white"/>
<path d="M254.65 379.117C254.56 378.968 254.415 378.859 254.246 378.815C254.077 378.771 253.898 378.795 253.746 378.881L252.239 379.76V377.571C252.235 377.398 252.165 377.233 252.043 377.111C251.921 376.989 251.756 376.919 251.583 376.915C251.409 376.915 251.243 376.984 251.12 377.107C250.997 377.23 250.928 377.397 250.928 377.571V380.507L248.752 381.818C248.629 381.891 248.533 382.002 248.479 382.134C248.425 382.267 248.416 382.413 248.453 382.552C248.49 382.69 248.572 382.812 248.685 382.899C248.798 382.987 248.936 383.035 249.08 383.037C249.195 383.039 249.309 383.007 249.407 382.945L250.928 382.08V384.02C250.928 384.194 250.997 384.36 251.12 384.483C251.243 384.606 251.409 384.675 251.583 384.675C251.756 384.672 251.921 384.602 252.043 384.48C252.165 384.357 252.235 384.193 252.239 384.02V381.32L254.401 380.009C254.552 379.923 254.663 379.782 254.71 379.615C254.757 379.447 254.735 379.269 254.65 379.117Z" fill="white"/>
<path d="M248.083 388.293C247.331 387.919 246.491 387.756 245.654 387.82C244.816 387.885 244.011 388.175 243.325 388.66L241.372 389.787C239.597 390.925 238.119 392.471 237.062 394.294C236.004 396.118 235.396 398.168 235.29 400.274V401.663C237.217 402.725 239.838 402.542 242.748 400.864C245.851 398.936 248.412 396.253 250.194 393.064V392.724C250.262 391.865 250.103 391.003 249.733 390.225C249.362 389.447 248.793 388.781 248.083 388.293Z" fill="white"/>
<path opacity="0.5" d="M205.626 425.311C213.334 420.854 219.573 410.04 219.573 401.152C219.573 392.265 213.334 388.66 205.626 393.104C197.919 397.548 191.679 408.362 191.679 417.249C191.679 426.136 197.932 429.754 205.626 425.311Z" fill="white"/>
<path d="M205.626 418.822C208.055 417.246 210.076 415.119 211.525 412.613C212.974 410.107 213.809 407.293 213.963 404.403C213.963 399.16 210.227 396.944 205.626 399.592C203.203 401.173 201.186 403.302 199.738 405.807C198.289 408.312 197.451 411.122 197.29 414.011C197.303 419.333 201.025 421.483 205.626 418.822Z" fill="white"/>
<path opacity="0.3" d="M205.626 173.229C213.334 168.785 219.573 157.971 219.573 149.071C219.573 140.17 213.334 136.579 205.626 141.022C197.919 145.466 191.679 156.28 191.679 165.181C191.679 174.081 197.932 177.673 205.626 173.229Z" fill="white"/>
<path d="M205.626 147.498C203.203 149.079 201.186 151.208 199.738 153.713C198.289 156.217 197.451 159.028 197.29 161.917C197.29 165.076 198.6 167.16 200.645 167.684L199.728 172.285L204.053 167.514C204.623 167.315 205.172 167.061 205.692 166.754C208.12 165.178 210.141 163.05 211.59 160.544C213.039 158.038 213.875 155.225 214.029 152.335C213.963 147 210.227 144.85 205.626 147.498Z" fill="white"/>
<path opacity="0.3" d="M242.892 151.706C250.6 147.262 256.839 136.448 256.839 127.56C256.839 118.673 250.6 115.055 242.892 119.499C235.185 123.943 228.959 134.744 228.959 143.657C228.959 152.571 235.198 156.149 242.892 151.706Z" fill="white"/>
<path d="M249.184 123.798L246.956 125.109V123.943C246.956 123.195 246.563 122.828 246.078 123.104L239.72 126.774C239.44 126.992 239.215 127.273 239.062 127.594C238.91 127.915 238.834 128.267 238.842 128.622V129.789L236.614 131.1C236.033 131.555 235.566 132.139 235.25 132.805C234.934 133.472 234.777 134.203 234.792 134.94V146.331C234.792 147.878 235.604 148.651 236.614 148.075L249.184 140.813C249.764 140.356 250.229 139.772 250.545 139.106C250.861 138.44 251.019 137.709 251.006 136.972V125.568C251.006 123.995 250.194 123.209 249.184 123.798ZM239.144 139.882C239.093 139.949 239.031 140.007 238.96 140.052C238.777 140.144 238.619 140.052 238.541 139.934C238.248 139.183 238.106 138.381 238.121 137.575C238.121 134.062 240.271 129.972 242.893 128.399C243.152 128.253 243.424 128.13 243.705 128.032L242.932 127.521C242.827 127.401 242.759 127.252 242.738 127.093C242.717 126.935 242.744 126.773 242.814 126.63C242.958 126.276 243.22 126.092 243.404 126.21L245.16 127.377C245.22 127.432 245.268 127.499 245.299 127.573C245.331 127.648 245.346 127.728 245.344 127.81C245.343 128.025 245.289 128.236 245.186 128.426L243.548 131.296C243.505 131.377 243.447 131.448 243.378 131.506C243.353 131.539 243.321 131.565 243.285 131.583C243.249 131.601 243.208 131.611 243.168 131.611C243.127 131.611 243.087 131.601 243.051 131.583C243.014 131.565 242.982 131.539 242.958 131.506C242.881 131.358 242.841 131.194 242.841 131.028C242.841 130.861 242.881 130.697 242.958 130.549L243.666 129.304C243.379 129.393 243.102 129.511 242.84 129.658C241.668 130.501 240.71 131.606 240.041 132.885C239.372 134.164 239.011 135.581 238.986 137.024C238.973 137.679 239.089 138.329 239.327 138.938C239.377 139.098 239.387 139.269 239.355 139.433C239.323 139.598 239.25 139.752 239.144 139.882ZM242.893 141.193C242.63 141.346 242.354 141.474 242.067 141.573L242.788 142.15C242.873 142.283 242.918 142.437 242.918 142.595C242.918 142.753 242.873 142.908 242.788 143.041C242.736 143.171 242.656 143.288 242.552 143.382C242.5 143.424 242.435 143.448 242.368 143.448C242.301 143.448 242.236 143.424 242.185 143.382L240.52 142.071C240.461 142.011 240.417 141.939 240.389 141.859C240.362 141.78 240.353 141.696 240.363 141.612C240.365 141.4 240.424 141.192 240.533 141.009L242.29 138.27C242.486 137.968 242.748 137.916 242.879 138.152C242.944 138.309 242.969 138.479 242.953 138.648C242.937 138.817 242.88 138.98 242.788 139.122L242.014 140.328C242.298 140.241 242.57 140.122 242.827 139.974C244.018 139.144 244.996 138.044 245.68 136.764C246.363 135.483 246.733 134.058 246.759 132.607C246.774 131.957 246.658 131.311 246.419 130.706C246.376 130.542 246.376 130.369 246.417 130.205C246.458 130.04 246.54 129.888 246.655 129.763C246.89 129.487 247.153 129.474 247.258 129.763C247.551 130.509 247.694 131.307 247.677 132.109C247.677 135.569 245.527 139.659 242.893 141.18V141.193Z" fill="white"/>
<path d="M324.451 70.0821L282.505 94.2665C280.851 95.342 279.475 96.7932 278.489 98.5016C277.502 100.21 276.934 102.128 276.829 104.098V177.07C276.829 180.688 279.359 182.156 282.505 180.347L324.451 156.163C326.102 155.084 327.476 153.632 328.462 151.924C329.448 150.217 330.018 148.301 330.127 146.332V73.3591C330.127 69.7413 327.584 68.2732 324.451 70.0821Z" fill="#455A64"/>
<path d="M329.655 149.228C328.782 152.087 326.924 154.544 324.412 156.162L322.065 157.473L320.951 158.129C317.241 152.977 313.978 148.206 313.978 148.206C312.953 145.406 312.078 142.553 311.356 139.659C310.795 137.452 310.384 135.21 310.124 132.948C312.491 132.232 315.018 132.232 317.386 132.948C319.745 134.06 321.688 135.897 322.93 138.191C324.267 140.276 327.086 144.955 329.655 149.228Z" fill="#C4B39B"/>
<path opacity="0.3" d="M329.655 149.228C328.782 152.087 326.924 154.544 324.412 156.162L322.065 157.473L320.951 158.129C317.241 152.977 313.978 148.206 313.978 148.206C312.953 145.406 312.078 142.553 311.356 139.659C310.795 137.452 310.384 135.21 310.124 132.948C312.491 132.232 315.018 132.232 317.386 132.948C319.745 134.06 321.688 135.897 322.93 138.191C324.267 140.276 327.086 144.955 329.655 149.228Z" fill="#181717"/>
<path d="M322.105 157.513L320.99 158.156L310.229 164.369L308.577 165.313L287.027 177.739L286.149 178.237L286.044 174.528L287.132 157.33C287.132 154.013 288.849 140.814 288.849 140.814L293.739 138.86L296.688 137.694L297.658 137.314L298.051 137.156L306.204 133.892C306.742 133.696 307.266 133.539 307.764 133.407C307.927 133.356 308.094 133.316 308.262 133.29C308.898 133.126 309.548 133.021 310.202 132.975C316.258 132.503 319.496 137.052 320.99 144.327C321.61 148.698 321.982 153.1 322.105 157.513Z" fill="#C4B39B"/>
<path d="M290.802 161.839C290.802 161.839 288.758 169.703 287.027 177.739L286.149 178.25L282.217 180.518C279.228 182.051 276.869 180.518 276.869 177.07V160.567C277.97 153.646 279.228 148.98 281.05 145.912C282.872 142.845 285.808 141.901 288.849 140.813C291.615 142.871 292.756 152.702 290.802 161.839Z" fill="#C4B39B"/>
<path opacity="0.3" d="M290.802 161.839C290.802 161.839 288.758 169.703 287.027 177.739L286.149 178.25L282.217 180.518C279.228 182.051 276.869 180.518 276.869 177.07V160.567C277.97 153.646 279.228 148.98 281.05 145.912C282.872 142.845 285.808 141.901 288.849 140.813C291.615 142.871 292.756 152.702 290.802 161.839Z" fill="#181717"/>
<path d="M294.617 102.734C293.781 103.043 293.014 103.515 292.362 104.122C291.709 104.73 291.184 105.461 290.816 106.273C289.924 108.541 290.239 113.574 291.432 118.922C292.077 122.317 293.079 125.634 294.42 128.819C294.626 129.233 294.927 129.592 295.299 129.868C295.67 130.144 296.101 130.328 296.557 130.405L296.413 123.851L296.203 119.302C297.598 116.866 298.556 114.204 299.034 111.438C299.401 107.138 298.628 105.539 298.628 105.539L294.617 102.734Z" fill="#263238"/>
<path d="M293.962 103.652L290.029 102.341C290.191 101.706 290.585 101.154 291.133 100.795C291.682 100.436 292.345 100.296 292.992 100.401C293.541 100.713 293.949 101.226 294.13 101.832C294.31 102.437 294.25 103.09 293.962 103.652Z" fill="#263238"/>
<path d="M299.113 108.318C299.113 115.095 303.924 119.736 309.796 118.687C315.668 117.638 320.427 111.268 320.414 104.478C320.401 97.6878 315.616 93.0475 309.731 94.1093C303.845 95.171 299.1 101.528 299.113 108.318Z" fill="#263238"/>
<path d="M296.36 118.543C295.403 119.67 294.617 117.324 293.817 116.498C293.018 115.672 290.383 114.82 289.072 118.241C287.761 121.663 290.278 125.687 292.244 126.395C295.128 127.43 296.413 123.852 296.413 123.852L296.714 138.651C299.506 143.042 306.152 143.96 309.337 142.452C312.837 140.814 310.648 138.126 308.302 136.147V131.638C309.919 131.644 311.53 131.45 313.099 131.061C315.721 130.117 317.032 127.601 317.858 124.179C319.396 116.147 319.396 107.896 317.858 99.864C314.921 97.7667 304.749 99.9951 298.615 105.579C299.074 114.558 297.317 117.416 296.36 118.543Z" fill="#F2D1D0"/>
<path d="M319.326 92.3786C319.247 92.2213 319.116 92.0772 318.945 92.1034C318.804 92.1474 318.681 92.2345 318.592 92.3524C317.863 93.1413 317.084 93.8813 316.258 94.5677C316.461 93.3527 316.461 92.1124 316.258 90.8974C316.14 90.1634 315.957 88.4724 315.157 88.4331C314.685 88.4331 314.279 88.9312 313.925 89.3769C310.714 93.4011 306.545 92.5359 302.691 93.3093C299.467 93.9909 295.574 96.1931 294.119 100.073C293.45 101.843 293.332 103.612 294.656 104.53C295.845 105.229 297.21 105.575 298.589 105.526C305.012 105.683 314.213 107.112 318.959 99.3652C319.647 98.2195 319.993 96.9002 319.955 95.5639C319.971 94.4642 319.752 93.3739 319.312 92.3655L319.326 92.3786Z" fill="#263238"/>
<path d="M308.289 131.638C308.289 131.638 302.429 131.323 300.424 130.445C299.192 129.899 298.19 128.939 297.592 127.732C297.888 128.999 298.436 130.194 299.205 131.245C300.712 133.172 308.38 133.434 308.38 133.434L308.289 131.638Z" fill="#DCADAD"/>
<path d="M306.768 115.082C306.78 115.442 306.672 115.796 306.46 116.088C306.249 116.38 305.947 116.593 305.602 116.695C304.959 116.799 304.422 116.275 304.422 115.489C304.41 115.129 304.518 114.775 304.73 114.483C304.941 114.191 305.243 113.978 305.588 113.876C306.296 113.771 306.768 114.309 306.768 115.082Z" fill="#263238"/>
<path d="M305.51 110.205L303.006 112.25C302.837 111.839 302.802 111.384 302.906 110.951C303.009 110.519 303.246 110.129 303.583 109.838C303.72 109.703 303.889 109.603 304.073 109.547C304.258 109.491 304.453 109.481 304.642 109.517C304.832 109.553 305.01 109.635 305.161 109.755C305.312 109.874 305.432 110.029 305.51 110.205Z" fill="#263238"/>
<path d="M306.558 122.776L311.395 123.995C311.263 124.743 310.85 125.412 310.241 125.866C309.632 126.319 308.872 126.522 308.118 126.434C307.774 126.298 307.46 126.095 307.195 125.837C306.93 125.58 306.719 125.271 306.573 124.931C306.428 124.591 306.352 124.225 306.35 123.855C306.347 123.485 306.418 123.119 306.558 122.776Z" fill="#B16668"/>
<path d="M307.384 124.428C307.079 124.43 306.777 124.488 306.493 124.599C306.564 125.026 306.754 125.425 307.042 125.75C307.329 126.075 307.702 126.312 308.118 126.434C308.688 126.565 309.286 126.466 309.783 126.158C309.617 125.654 309.295 125.215 308.865 124.904C308.434 124.593 307.915 124.427 307.384 124.428Z" fill="#DCADAD"/>
<path d="M316.783 109.301L314.489 107.689C314.561 107.503 314.672 107.335 314.815 107.196C314.958 107.057 315.129 106.95 315.317 106.883C315.504 106.816 315.704 106.79 315.903 106.807C316.102 106.824 316.294 106.883 316.468 106.981C316.787 107.268 316.994 107.659 317.051 108.084C317.109 108.509 317.014 108.94 316.783 109.301Z" fill="#263238"/>
<path d="M316.022 113.024C316.034 113.384 315.926 113.738 315.715 114.03C315.504 114.321 315.201 114.535 314.856 114.636C314.2 114.754 313.676 114.217 313.676 113.443C313.664 113.083 313.773 112.73 313.984 112.438C314.195 112.146 314.497 111.933 314.843 111.831C315.472 111.713 316.022 112.251 316.022 113.024Z" fill="#263238"/>
<path d="M310.53 112.736L310.936 120.797L314.62 118.687L310.53 112.736Z" fill="#DCADAD"/>
<path d="M509.576 197.794C519.84 197.099 525.031 199.17 531.493 210.26C538.728 222.673 553.999 253.516 554.917 255.6C556.673 259.533 557.473 263.701 553.75 267.175C543.565 276.731 524.441 292.775 524.441 292.775L517.336 275.472L532.253 258.864L519.656 233.894L509.576 197.794Z" fill="#F2D1D0"/>
<path d="M532.253 258.865C533.839 261.626 535.691 264.225 537.785 266.624C534.842 265.407 532.388 263.244 530.811 260.477L532.253 258.865Z" fill="#DCADAD"/>
<path d="M507.19 197.834C511.001 197.061 514.922 197.008 518.752 197.676C523.995 198.882 528.439 202.998 532.909 210.902C537.378 218.806 547.118 238.954 547.118 238.954C547.118 238.954 543.408 247.094 528.373 252.429L510.245 226.344L507.19 197.834Z" fill="#C4B39B"/>
<path opacity="0.3" d="M507.19 197.834C511.001 197.061 514.922 197.008 518.752 197.676C523.995 198.882 528.439 202.998 532.909 210.902C537.378 218.806 547.118 238.954 547.118 238.954C547.118 238.954 543.408 247.094 528.373 252.429L510.245 226.344L507.19 197.834Z" fill="#181717"/>
<path d="M419.026 513.056C418.488 514.806 418.443 516.67 418.894 518.444C419.406 519.518 422.643 523.084 429.224 524.382C435.804 525.679 444.862 524.382 448.755 524.146C452.648 523.91 464.891 525.456 468.784 525.928C474.892 526.754 479.598 525.417 481.892 523.202C482.263 522.759 482.537 522.243 482.695 521.688C482.853 521.132 482.892 520.549 482.809 519.977C482.791 518.504 482.575 517.041 482.167 515.625L419.026 513.056Z" fill="#37474F"/>
<path d="M481.066 509.229C481.184 509.727 481.302 510.238 481.394 510.762C481.993 513.36 482.184 516.036 481.958 518.693C481.171 520.62 479.008 521.694 477.265 522.245C472.664 523.7 469.164 523.464 464.065 522.507C458.932 521.752 453.745 521.432 448.558 521.55C444.547 521.825 439.029 522.586 435.004 522.219C431.593 522.072 428.226 521.386 425.029 520.187C422.408 519.047 419.616 517.565 418.96 514.813C418.174 509.006 420.612 506.437 423.378 504.824C426.143 503.212 430.023 503.33 434.205 503.055C437.993 502.793 440.759 502.793 444.115 502.53C447.033 502.395 449.933 501.996 452.779 501.338C455.309 500.538 457.917 497.3 458.992 497.182C458.992 497.182 475.836 497.051 477.448 497.182C479.31 497.34 479.873 503.094 480.07 504.352C480.253 505.336 480.293 506.384 480.555 507.328C480.752 507.957 480.922 508.586 481.066 509.229Z" fill="#455A64"/>
<path d="M429.158 521.432C428.634 517.251 427.939 508.193 435.634 502.95H436.617C433.136 501.944 429.441 501.944 425.96 502.95C419.799 504.588 417.072 509.569 418.606 514.839C418.606 514.8 419.982 519.899 429.158 521.432Z" fill="#FAFAFA"/>
<path d="M451.638 501.639C449.148 503.841 448.283 508.861 448.283 508.861C447.955 510.749 444.547 511.024 444.875 509.215C445.393 506.712 446.395 504.335 447.824 502.216C448.994 501.598 450.338 501.395 451.638 501.639Z" fill="#FAFAFA"/>
<path d="M444.652 502.491C442.778 504.34 441.55 506.744 441.152 509.347C440.811 511.142 437.967 511.116 438.163 509.347C438.163 509.347 438.504 504.903 441.165 502.793C441.68 502.467 442.265 502.269 442.872 502.217C443.479 502.164 444.089 502.258 444.652 502.491Z" fill="#FAFAFA"/>
<path d="M478.012 484.887C478.012 484.887 477.566 495.727 476.963 499.306C476.596 501.429 473.83 503.645 466.922 503.409C462.059 503.251 458.245 503.658 458.442 499.856L458.861 488.793L478.012 484.887Z" fill="#F2D1D0"/>
<path d="M488.8 459.352C488.551 462.302 488.158 464.976 489.363 468.226C491.094 472.893 494.764 475.043 496.914 476.878C499.19 479.121 501.285 481.54 503.179 484.113C505.29 486.735 505.801 488.334 509.026 491.034C511.07 492.725 516.786 494.115 520.298 492.621C523.051 491.454 524.008 490.51 523.838 486.302C523.667 482.095 510.231 480.64 510.231 480.64L488.8 459.352Z" fill="#37474F"/>
<path d="M522.094 473.732C523.248 474.138 523.536 476.222 523.707 480.352C523.838 483.471 525.227 488.046 520.692 490.012C517.048 491.598 511.215 490.55 508.75 487.6C505.67 483.93 503.586 480.692 499.195 476.209C495.38 472.277 491.421 470.966 489.717 463.232C488.629 458.225 489.495 456.154 493.034 454.725C497.897 452.746 505.539 459.195 509.34 460.204C512.63 461.135 520.954 473.312 522.094 473.732Z" fill="#455A64"/>
<path d="M509.34 460.204L508.698 459.994C506.531 460.08 504.424 460.73 502.585 461.879C500.746 463.029 499.238 464.638 498.211 466.548C497.556 467.859 499.522 468.973 500.741 467.859C503.468 462.721 509.039 461.58 511.228 461.305C510.677 460.818 510.036 460.444 509.34 460.204Z" fill="#FAFAFA"/>
<path d="M512.486 462.564C510.44 462.757 508.474 463.458 506.767 464.602C505.059 465.747 503.664 467.299 502.708 469.118C502.052 470.429 504.018 471.53 505.25 470.429C506.174 468.818 507.437 467.427 508.951 466.352C510.465 465.277 512.194 464.543 514.02 464.202C513.495 463.613 512.984 463.062 512.486 462.564Z" fill="#FAFAFA"/>
<path d="M522.75 466.26L522.094 474.977C522.094 474.977 516.563 479.028 508.632 475.318C508.396 474.833 507.728 467.047 507.728 467.047L522.75 466.26Z" fill="#F2D1D0"/>
<path d="M491.959 469C491.959 469 492.339 459.733 505.486 458.448L506.247 458.854C504.749 456.526 502.442 454.836 499.771 454.109C495.406 452.982 491.907 454.109 489.652 456.875C487.397 459.641 489.678 467.178 491.959 469Z" fill="#FAFAFA"/>
<path d="M526.59 408.231C524.716 392.986 523.969 384.479 523.969 384.479C523.969 384.479 523.589 363.034 524.899 343.241C525.476 334.524 525.765 324.89 525.948 316.199C526.179 306.533 525.411 296.869 523.654 287.362C523.654 287.362 456.148 273.939 455.309 298.713C454.299 328.39 455.086 388.045 455.505 395.791C456.108 406.684 455.387 417.643 456.069 438.786C456.646 456.311 457.97 492.359 457.97 492.359C467.25 495.531 478.235 492.359 478.235 492.359C478.235 492.359 485.221 442.089 486.021 429.571C486.873 416.109 485.444 409.28 485.444 409.28L492.431 346.544C492.431 346.544 492.955 366.678 493.558 377.558C494.161 388.438 495.721 395.084 498.552 415.349C501.003 432.914 507.374 468.358 507.374 468.358C512.332 470.282 517.831 470.282 522.789 468.358C522.789 468.358 528.478 423.476 526.59 408.231Z" fill="#455A64"/>
<path d="M517.336 321.6C517.336 321.6 508.881 332.388 498.028 337.028C498.028 337.028 493.309 374.963 493.348 374.216L492.116 336.032C492.116 336.032 508.344 328.849 517.336 321.6Z" fill="#37474F"/>
<path d="M482.521 188.33L483.583 210.902L505.971 209.709L505.277 183.467L482.521 188.33Z" fill="#F2D1D0"/>
<path d="M527.94 209.29C526.066 203.129 519.551 198.056 511.333 197.807C509.511 197.807 505.657 197.807 505.657 197.807C504.726 201.609 493.073 203.051 483.111 200.678C480.096 201.478 467.578 204.492 465.074 205.318C457.917 207.704 455.702 215.005 454.588 238.364C454.588 238.364 454.811 284.425 454.588 306.408C467.185 313.053 486.663 312.228 500.466 310.825C522.225 308.623 525.463 300.745 525.463 300.745C524.559 287.925 525.109 283.102 525.463 270.439C525.725 260.936 528.465 250.869 529.317 240.094C530.628 224.089 529.225 213.524 527.94 209.29Z" fill="#C4B39B"/>
<path d="M467.525 160.619C467.525 160.619 462.19 168.72 462.806 169.507C463.423 170.293 467.342 171.027 467.342 171.027L467.525 160.619Z" fill="#DCADAD"/>
<path d="M482.285 138.218C471.484 140.499 467.172 143.658 466.555 162.101C465.9 180.046 468.155 185.958 470.488 188.317C472.074 189.942 480.909 190.244 485.365 189.012C490.936 187.478 503.546 183.008 509.445 173.99C516.392 163.386 518.214 149.006 510.756 143.107C500.296 134.862 486.676 137.287 482.285 138.218Z" fill="#F2D1D0"/>
<path d="M470.475 188.37C471.786 189.68 477.946 190.139 482.587 189.575L482.521 186.954C478.671 188.361 474.546 188.846 470.475 188.37Z" fill="#DCADAD"/>
<path d="M465.074 145.139C467.76 147.072 471.096 147.876 474.368 147.38C474.301 148.825 474.686 150.254 475.469 151.47C476.566 153.129 478.229 154.331 480.149 154.852C478.969 157.168 478.341 159.725 478.313 162.324C478.239 163.144 478.418 163.967 478.825 164.683C478.951 164.942 479.149 165.16 479.396 165.31C479.643 165.46 479.927 165.536 480.215 165.529C480.504 165.522 480.784 165.433 481.023 165.271C481.263 165.109 481.45 164.883 481.564 164.618C482.171 163.223 482.936 161.904 483.845 160.685C485.006 159.271 486.65 158.337 488.459 158.064C495.249 157.329 496.088 166.191 493.375 169.861C488.931 175.877 485.169 171.814 485.169 171.814C484.988 174.64 485.412 177.473 486.413 180.122C487.415 182.772 488.97 185.177 490.976 187.177C495.792 188.589 500.893 188.72 505.775 187.557C511.804 179.272 515.593 175.248 518.791 168.104C525.581 152.991 522.304 143.514 517.061 139.516C516.012 132.542 510.507 129.422 504.28 127.994C494.934 125.844 486.191 131.389 476.937 129.304C475.414 128.99 473.909 128.596 472.428 128.125C471.858 127.856 471.208 127.809 470.606 127.994C470.275 128.218 470.017 128.532 469.861 128.9C469.705 129.267 469.659 129.672 469.728 130.065C469.846 131.847 471.654 133.827 472.572 134.784C470.551 134.972 468.514 134.853 466.529 134.43C465.831 134.324 465.12 134.351 464.432 134.508C463.676 134.799 463.035 135.326 462.602 136.011C462.17 136.696 461.971 137.502 462.033 138.31C462.027 139.599 462.294 140.874 462.819 142.052C463.343 143.229 464.112 144.282 465.074 145.139Z" fill="#263238"/>
<path d="M517.231 141.875L523.694 138.061C523.188 137.204 522.362 136.583 521.399 136.334C520.435 136.086 519.412 136.231 518.555 136.737C517.698 137.243 517.077 138.068 516.829 139.032C516.581 139.995 516.725 141.018 517.231 141.875Z" fill="#263238"/>
<path d="M386.387 223.499C388.143 226.802 407.517 262.273 413.153 267.634C417.164 271.462 423.378 274.057 429.814 268.538C441.807 258.249 459.739 240.762 459.739 240.762C474.302 232.281 475.823 213.235 469.243 206.577C469.243 206.577 463.396 202.185 454.653 210.404C440.13 224.063 421.555 244.485 421.555 244.485C417.977 239.766 414.805 236.03 410.938 230.656C407.858 226.37 403.073 221.874 402.876 216.237C402.772 213.327 403.846 210.417 404.292 207.56C404.856 203.837 405.38 200.14 405.996 196.418C406.219 195.686 406.148 194.896 405.8 194.216C405.402 193.816 404.867 193.583 404.304 193.566C403.741 193.549 403.192 193.749 402.772 194.124C401.813 194.979 401.083 196.061 400.648 197.27L398.905 201.071C398.629 201.674 398.236 202.382 397.594 202.382C395.955 202.382 395.077 198.174 394.789 197.021C394.279 194.747 394.08 192.414 394.199 190.087C394.264 188.33 394.304 186.246 392.888 185.21C392.243 184.865 391.523 184.684 390.791 184.684C390.059 184.684 389.339 184.865 388.694 185.21C385.055 186.676 382.096 189.449 380.396 192.983C378.05 197.978 379.085 203.785 380.396 208.91C381.813 213.991 383.824 218.888 386.387 223.499Z" fill="#F2D1D0"/>
<path d="M421.555 244.538C417.898 248.549 415.749 256.492 415.749 256.492C415.749 256.492 415.355 248.077 419.681 242.073L421.555 244.538Z" fill="#DCADAD"/>
<path d="M470.685 203.863C464.969 204.138 459.451 205.619 455.099 209.29C451.796 212.082 428.201 235.886 428.201 235.886C428.201 235.886 433.104 248.994 445.53 255.928L468.26 235.886C468.26 235.886 480.634 219.33 470.685 203.863Z" fill="#C4B39B"/>
<g opacity="0.3">
<path d="M470.685 203.863C464.969 204.138 459.451 205.619 455.099 209.29C451.796 212.082 428.201 235.886 428.201 235.886C428.201 235.886 433.104 248.994 445.53 255.928L468.26 235.886C468.26 235.886 480.634 219.33 470.685 203.863Z" fill="#181717"/>
</g>
<path d="M439.579 35.2273L388.117 64.8646C387.488 65.2699 386.963 65.8186 386.588 66.4657C386.212 67.1129 385.994 67.84 385.954 68.5873V130.431C385.995 131.178 386.213 131.905 386.592 132.55C386.97 133.195 387.498 133.741 388.13 134.141L395.837 138.466C396.508 138.806 397.249 138.983 398 138.983C398.752 138.983 399.493 138.806 400.163 138.466L451.639 108.842C452.264 108.431 452.785 107.879 453.158 107.23C453.531 106.581 453.747 105.854 453.788 105.106V43.2494C453.749 42.5036 453.532 41.7779 453.156 41.1327C452.78 40.4875 452.255 39.9414 451.625 39.5398L443.931 35.2142C443.255 34.8762 442.509 34.7014 441.753 34.7036C440.998 34.7059 440.253 34.8853 439.579 35.2273Z" fill="#C4B39B"/>
<path d="M398.053 137.208V75.364C398.093 74.6163 398.308 73.8885 398.682 73.2395C399.055 72.5905 399.576 72.0385 400.202 71.6282L451.678 42.004C452.858 41.3092 453.828 41.8729 453.828 43.3148V105.146C453.786 105.893 453.571 106.62 453.197 107.269C452.824 107.918 452.303 108.47 451.678 108.881L400.202 138.506C398.97 139.135 398.053 138.571 398.053 137.208Z" fill="#C4B39B"/>
<path opacity="0.2" d="M400.163 138.44C399.49 138.77 398.75 138.942 398 138.942C397.251 138.942 396.511 138.77 395.837 138.44L388.13 134.115C387.499 133.714 386.972 133.168 386.593 132.523C386.215 131.878 385.996 131.152 385.954 130.405V68.5874C385.987 67.8049 386.227 67.045 386.649 66.3853L398.643 73.2408C398.266 73.8858 398.063 74.6174 398.053 75.3643V137.195C398.053 138.453 398.892 139.187 400.163 138.44Z" fill="#181717"/>
<path opacity="0.4" d="M453.762 42.856C453.592 41.7681 452.7 41.3879 451.625 42.004L400.163 71.6282C399.53 72.0308 399.007 72.585 398.643 73.2405L386.636 66.385C386.992 65.7569 387.501 65.2292 388.117 64.8514L439.592 35.2271C440.262 34.8945 441 34.7214 441.748 34.7214C442.497 34.7214 443.235 34.8945 443.905 35.2271L451.612 39.5528C452.185 39.9191 452.672 40.4032 453.043 40.9728C453.414 41.5423 453.659 42.1844 453.762 42.856Z" fill="white"/>
<path d="M385.954 89.7832L368.625 107.414C368.426 107.616 368.274 107.861 368.182 108.129C368.089 108.398 368.057 108.684 368.088 108.966C368.12 109.248 368.213 109.52 368.363 109.762C368.513 110.004 368.714 110.209 368.953 110.363C369.307 110.599 380.947 117.271 380.947 117.271L398.053 96.7305L385.954 89.7832Z" fill="#C4B39B"/>
<path opacity="0.1" d="M385.954 89.7832L368.625 107.414C368.426 107.616 368.274 107.861 368.182 108.129C368.089 108.398 368.057 108.684 368.088 108.966C368.12 109.248 368.213 109.52 368.363 109.762C368.513 110.004 368.714 110.209 368.953 110.363C369.307 110.599 380.947 117.271 380.947 117.271L398.053 96.7305L385.954 89.7832Z" fill="#181717"/>
<path d="M398.053 96.7302L380.711 114.374C380.434 114.66 380.254 115.025 380.195 115.419C380.136 115.812 380.202 116.215 380.382 116.569C380.562 116.924 380.849 117.214 381.201 117.398C381.554 117.583 381.955 117.653 382.349 117.598L398.079 115.331C399.691 115.317 399.691 96.7302 398.053 96.7302Z" fill="#C4B39B"/>
<path d="M410.243 81.2759L432.134 68.6266C433.864 67.6173 435.28 68.43 435.28 70.4356V97.1629C435.217 98.2526 434.9 99.3125 434.354 100.257C433.808 101.202 433.047 102.005 432.134 102.603L410.243 115.252C408.5 116.248 407.097 115.449 407.097 113.443V86.7158C407.157 85.6256 407.473 84.565 408.02 83.6198C408.567 82.6747 409.328 81.8717 410.243 81.2759Z" fill="white"/>
<path d="M440.379 75.9278L446.448 69.5835C447.182 68.797 447.758 69.0461 447.758 70.1209V88.1576C447.749 88.687 447.546 89.1947 447.189 89.5856C446.832 89.9765 446.345 90.2238 445.818 90.2811L440.955 90.7137C440.708 90.7398 440.457 90.7128 440.22 90.6347C439.984 90.5565 439.767 90.4288 439.583 90.2602C439.4 90.0916 439.254 89.8859 439.156 89.6567C439.058 89.4275 439.01 89.1802 439.015 88.931V79.2835C439.088 78.0454 439.567 76.8659 440.379 75.9278Z" fill="white"/>
</svg>
