<svg width="40" height="40" viewBox="0 0 40 40" fill="none" xmlns="http://www.w3.org/2000/svg">
<path d="M21.713 3.33331C23.588 3.33831 24.5396 3.34831 25.3613 3.37165L25.6846 3.38331C26.058 3.39665 26.4263 3.41331 26.8713 3.43331C28.6446 3.51665 29.8546 3.79665 30.9163 4.20831C32.0163 4.63165 32.943 5.20498 33.8696 6.12998C34.7175 6.96287 35.3733 7.97077 35.7913 9.08331C36.203 10.145 36.483 11.355 36.5663 13.13C36.5863 13.5733 36.603 13.9416 36.6163 14.3166L36.6263 14.64C36.6513 15.46 36.6613 16.4116 36.6646 18.2866L36.6663 19.53V21.7133C36.6704 22.929 36.6576 24.1447 36.628 25.36L36.618 25.6833C36.6046 26.0583 36.588 26.4266 36.568 26.87C36.4846 28.645 36.2013 29.8533 35.7913 30.9166C35.3733 32.0292 34.7175 33.0371 33.8696 33.87C33.0368 34.7178 32.0289 35.3736 30.9163 35.7916C29.8546 36.2033 28.6446 36.4833 26.8713 36.5666L25.6846 36.6166L25.3613 36.6266C24.5396 36.65 23.588 36.6616 21.713 36.665L20.4696 36.6666H18.288C17.0717 36.6709 15.8555 36.6582 14.6396 36.6283L14.3163 36.6183C13.9207 36.6033 13.5251 36.5861 13.1296 36.5666C11.3563 36.4833 10.1463 36.2033 9.08298 35.7916C7.97103 35.3734 6.96372 34.7176 6.13131 33.87C5.28289 33.0373 4.62649 32.0293 4.20798 30.9166C3.79631 29.855 3.51631 28.645 3.43298 26.87L3.38298 25.6833L3.37465 25.36C3.34392 24.1447 3.33003 22.929 3.33298 21.7133V18.2866C3.32837 17.071 3.34059 15.8553 3.36965 14.64L3.38131 14.3166C3.39465 13.9416 3.41131 13.5733 3.43131 13.13C3.51465 11.355 3.79465 10.1466 4.20631 9.08331C4.6258 7.97031 5.28335 6.96237 6.13298 6.12998C6.9649 5.28256 7.97163 4.62677 9.08298 4.20831C10.1463 3.79665 11.3546 3.51665 13.1296 3.43331C13.573 3.41331 13.943 3.39665 14.3163 3.38331L14.6396 3.37331C15.855 3.3437 17.0706 3.33092 18.2863 3.33498L21.713 3.33331ZM19.9996 11.6666C17.7895 11.6666 15.6699 12.5446 14.1071 14.1074C12.5443 15.6702 11.6663 17.7898 11.6663 20C11.6663 22.2101 12.5443 24.3297 14.1071 25.8925C15.6699 27.4553 17.7895 28.3333 19.9996 28.3333C22.2098 28.3333 24.3294 27.4553 25.8922 25.8925C27.455 24.3297 28.333 22.2101 28.333 20C28.333 17.7898 27.455 15.6702 25.8922 14.1074C24.3294 12.5446 22.2098 11.6666 19.9996 11.6666ZM19.9996 15C20.6563 14.9999 21.3065 15.1291 21.9131 15.3803C22.5198 15.6314 23.0711 15.9996 23.5354 16.4639C23.9998 16.9281 24.3682 17.4792 24.6196 18.0858C24.8709 18.6924 25.0004 19.3425 25.0005 19.9991C25.0006 20.6558 24.8714 21.306 24.6202 21.9126C24.369 22.5193 24.0008 23.0706 23.5366 23.5349C23.0724 23.9993 22.5213 24.3677 21.9147 24.6191C21.3081 24.8704 20.6579 24.9999 20.0013 25C18.6752 25 17.4035 24.4732 16.4658 23.5355C15.5281 22.5978 15.0013 21.3261 15.0013 20C15.0013 18.6739 15.5281 17.4021 16.4658 16.4644C17.4035 15.5268 18.6752 15 20.0013 15M28.7513 9.16665C28.1988 9.16665 27.6689 9.38614 27.2782 9.77684C26.8875 10.1675 26.668 10.6974 26.668 11.25C26.668 11.8025 26.8875 12.3324 27.2782 12.7231C27.6689 13.1138 28.1988 13.3333 28.7513 13.3333C29.3038 13.3333 29.8338 13.1138 30.2245 12.7231C30.6152 12.3324 30.8346 11.8025 30.8346 11.25C30.8346 10.6974 30.6152 10.1675 30.2245 9.77684C29.8338 9.38614 29.3038 9.16665 28.7513 9.16665Z" fill="#DEDEDE"/>
</svg>
