<svg width="192" height="51" viewBox="0 0 192 51" fill="none" xmlns="http://www.w3.org/2000/svg">
<path d="M184.783 15.0253V18.7288H191.742V21.8425H181.528V5.3302H191.624V8.44395H184.783V11.9587H191.034V15.0253H184.783Z" fill="#181717"/>
<path d="M170.932 12.9731H179.212V14.2469C179.212 16.6058 178.457 18.5165 176.948 19.979C175.438 21.4416 173.488 22.1728 171.098 22.1728C168.55 22.1728 166.435 21.3472 164.752 19.696C163.085 18.029 162.252 16.0004 162.252 13.61C162.252 11.2039 163.077 9.1674 164.728 7.50044C166.395 5.83348 168.456 5 170.909 5C172.434 5 173.834 5.34597 175.108 6.03792C176.381 6.72986 177.38 7.66556 178.103 8.84501L175.32 10.4491C174.927 9.77285 174.329 9.22244 173.527 8.79784C172.725 8.37323 171.844 8.16093 170.885 8.16093C169.297 8.16093 167.999 8.67989 166.993 9.71781C165.987 10.7243 165.483 12.0217 165.483 13.61C165.483 15.1669 165.994 16.4564 167.017 17.4786C168.039 18.4851 169.407 18.9883 171.121 18.9883C172.363 18.9883 173.401 18.7131 174.235 18.1627C175.068 17.6123 175.634 16.8417 175.933 15.851H170.932V12.9731Z" fill="#181717"/>
<path d="M162.002 21.8425H158.464L157.473 18.8703H150.892L149.901 21.8425H146.386L152.165 5.3302H156.199L162.002 21.8425ZM154.194 9.08086L151.93 15.8273H156.459L154.194 9.08086Z" fill="#181717"/>
<path d="M139.055 22.1728C137.215 22.1728 135.705 21.6538 134.526 20.6159C133.346 19.578 132.757 18.1862 132.757 16.4406V5.3302H135.988V16.1812C135.988 17.0618 136.24 17.7538 136.743 18.257C137.262 18.7445 138.033 18.9883 139.055 18.9883C140.077 18.9883 140.84 18.7445 141.343 18.257C141.862 17.7538 142.122 17.0618 142.122 16.1812V5.3302H145.377V16.4406C145.377 18.1862 144.787 19.578 143.608 20.6159C142.428 21.6538 140.911 22.1728 139.055 22.1728Z" fill="#181717"/>
<path d="M122.418 12.9731H130.698V14.2469C130.698 16.6058 129.943 18.5165 128.433 19.979C126.924 21.4416 124.974 22.1728 122.583 22.1728C120.036 22.1728 117.921 21.3472 116.238 19.696C114.571 18.029 113.737 16.0004 113.737 13.61C113.737 11.2039 114.563 9.1674 116.214 7.50044C117.881 5.83348 119.941 5 122.395 5C123.92 5 125.32 5.34597 126.593 6.03792C127.867 6.72986 128.866 7.66556 129.589 8.84501L126.806 10.4491C126.413 9.77285 125.815 9.22244 125.013 8.79784C124.211 8.37323 123.33 8.16093 122.371 8.16093C120.783 8.16093 119.485 8.67989 118.479 9.71781C117.472 10.7243 116.969 12.0217 116.969 13.61C116.969 15.1669 117.48 16.4564 118.502 17.4786C119.525 18.4851 120.893 18.9883 122.607 18.9883C123.849 18.9883 124.887 18.7131 125.721 18.1627C126.554 17.6123 127.12 16.8417 127.419 15.851H122.418V12.9731Z" fill="#181717"/>
<path d="M108.174 15.4027V5.3302H111.429V21.8425H108.952L101.876 11.7464V21.8425H98.6204V5.3302H101.097L108.174 15.4027Z" fill="#181717"/>
<path d="M97.0171 21.8425H93.4787L92.488 18.8703H85.9066L84.9159 21.8425H81.4011L87.1804 5.3302H91.2142L97.0171 21.8425ZM89.2091 9.08086L86.9445 15.8273H91.4736L89.2091 9.08086Z" fill="#181717"/>
<path d="M74.2553 5.3302V18.7288H80.5536V21.8425H71V5.3302H74.2553Z" fill="#181717"/>
<path d="M153.46 36.2325C153.46 36.9874 154.238 37.5771 155.795 38.0017C156.377 38.1275 156.865 38.2612 157.258 38.4027C157.667 38.5285 158.107 38.7251 158.579 38.9924C159.066 39.2598 159.436 39.6136 159.687 40.0539C159.939 40.4943 160.065 41.0132 160.065 41.6108C160.065 42.6802 159.648 43.5373 158.815 44.182C157.981 44.8268 156.928 45.1492 155.654 45.1492C154.521 45.1492 153.539 44.9054 152.705 44.4179C151.887 43.9147 151.305 43.2385 150.959 42.3893L152.729 41.3749C152.917 41.9411 153.271 42.3892 153.79 42.7195C154.309 43.0497 154.93 43.2149 155.654 43.2149C156.361 43.2149 156.928 43.0812 157.352 42.8139C157.777 42.5465 157.989 42.1455 157.989 41.6108C157.989 40.8088 157.211 40.2269 155.654 39.8652C155.135 39.7237 154.742 39.6136 154.474 39.535C154.207 39.4563 153.837 39.3148 153.366 39.1104C152.909 38.9059 152.564 38.6936 152.328 38.4735C152.092 38.2376 151.872 37.9309 151.667 37.5535C151.478 37.1603 151.384 36.7279 151.384 36.2561C151.384 35.2339 151.777 34.3926 152.564 33.7321C153.366 33.0716 154.364 32.7413 155.559 32.7413C156.519 32.7413 157.368 32.9615 158.107 33.4018C158.862 33.8264 159.428 34.424 159.805 35.1946L158.083 36.1617C157.659 35.1553 156.817 34.652 155.559 34.652C154.962 34.652 154.459 34.7936 154.05 35.0766C153.656 35.3597 153.46 35.745 153.46 36.2325Z" fill="#181717"/>
<path d="M144.25 32.7413C145.633 32.7413 146.742 33.1817 147.576 34.0623C148.409 34.9273 148.826 36.1067 148.826 37.6007V44.8425H146.774V37.7186C146.774 36.7751 146.514 36.0359 145.995 35.5013C145.476 34.9666 144.761 34.6992 143.849 34.6992C142.795 34.6992 141.961 35.0295 141.348 35.69C140.735 36.3347 140.428 37.3019 140.428 38.5914V44.8425H138.376V33.048H140.428V34.7464C141.246 33.4097 142.52 32.7413 144.25 32.7413Z" fill="#181717"/>
<path d="M134.14 43.3564C132.945 44.5516 131.475 45.1492 129.729 45.1492C127.983 45.1492 126.513 44.5516 125.318 43.3564C124.123 42.1612 123.525 40.6908 123.525 38.9453C123.525 37.1997 124.123 35.7293 125.318 34.5341C126.513 33.3389 127.983 32.7413 129.729 32.7413C131.475 32.7413 132.945 33.3389 134.14 34.5341C135.351 35.745 135.956 37.2154 135.956 38.9453C135.956 40.6751 135.351 42.1455 134.14 43.3564ZM129.729 43.1441C130.908 43.1441 131.899 42.7431 132.701 41.9411C133.503 41.139 133.904 40.1404 133.904 38.9453C133.904 37.7501 133.503 36.7515 132.701 35.9494C131.899 35.1474 130.908 34.7464 129.729 34.7464C128.565 34.7464 127.582 35.1474 126.78 35.9494C125.978 36.7515 125.577 37.7501 125.577 38.9453C125.577 40.1404 125.978 41.139 126.78 41.9411C127.582 42.7431 128.565 43.1441 129.729 43.1441Z" fill="#181717"/>
<path d="M122.241 34.4161L116.202 42.8846H122.476V44.8425H113.395V43.4743L119.41 35.0059H113.631V33.048H122.241V34.4161Z" fill="#181717"/>
<path d="M109.674 30.9014C109.281 30.9014 108.951 30.7677 108.683 30.5004C108.416 30.233 108.282 29.9107 108.282 29.5332C108.282 29.1558 108.416 28.8334 108.683 28.5661C108.951 28.283 109.281 28.1415 109.674 28.1415C110.052 28.1415 110.374 28.283 110.641 28.5661C110.909 28.8334 111.042 29.1558 111.042 29.5332C111.042 29.9107 110.909 30.233 110.641 30.5004C110.374 30.7677 110.052 30.9014 109.674 30.9014ZM110.688 44.8425H108.636V33.048H110.688V44.8425Z" fill="#181717"/>
<path d="M102.948 33.048V35.0295C103.624 33.567 104.851 32.8357 106.628 32.8357V34.9823C105.622 34.9351 104.757 35.2025 104.033 35.7843C103.31 36.3662 102.948 37.3019 102.948 38.5914V44.8425H100.896V33.048H102.948Z" fill="#181717"/>
<path d="M96.6603 43.3564C95.4651 44.5516 93.9947 45.1492 92.2491 45.1492C90.5036 45.1492 89.0332 44.5516 87.838 43.3564C86.6428 42.1612 86.0452 40.6908 86.0452 38.9453C86.0452 37.1997 86.6428 35.7293 87.838 34.5341C89.0332 33.3389 90.5036 32.7413 92.2491 32.7413C93.9947 32.7413 95.4651 33.3389 96.6603 34.5341C97.8712 35.745 98.4767 37.2154 98.4767 38.9453C98.4767 40.6751 97.8712 42.1455 96.6603 43.3564ZM92.2491 43.1441C93.4286 43.1441 94.4193 42.7431 95.2214 41.9411C96.0234 41.139 96.4244 40.1404 96.4244 38.9453C96.4244 37.7501 96.0234 36.7515 95.2214 35.9494C94.4193 35.1474 93.4286 34.7464 92.2491 34.7464C91.0854 34.7464 90.1025 35.1474 89.3005 35.9494C88.4985 36.7515 88.0975 37.7501 88.0975 38.9453C88.0975 40.1404 88.4985 41.139 89.3005 41.9411C90.1025 42.7431 91.0854 43.1441 92.2491 43.1441Z" fill="#181717"/>
<path d="M81.2141 35.3361V28.3302H83.3842V44.8425H81.2141V37.412H73.1938V44.8425H71V28.3302H73.1938V35.3361H81.2141Z" fill="#181717"/>
<path d="M34.991 24.8836L29.1744 25.1579C29.1391 25.1579 29.1058 25.1658 29.0725 25.1697C28.4353 24.777 27.7727 24.4276 27.0925 24.1276C22.9756 22.3079 17.9569 21.402 13.4911 21.7257C11.8875 21.8421 10.1505 22.1421 8.47438 22.7086C5.71215 23.6421 3.11264 25.2961 1.53646 28.0395C-3.77823 37.2961 5.8729 46.4915 12.5638 48.9191C18.5548 51.0922 27.0101 51.7237 32.1758 46.2882C34.2088 44.1487 35.338 41.2217 35.6712 38.1448C35.9614 35.4684 35.487 33.0862 34.5028 31.0415L35.9104 26.048C36.081 25.4461 35.6144 24.8539 34.9929 24.8836H34.991Z" fill="#D291DE"/>
<path d="M38.606 2.4136C33.0129 -1.05417 24.444 -1.15088 20.2212 4.54321C18.5313 6.82085 17.7589 10.0537 19.1528 12.5248C21.8072 17.2281 27.7316 18.2367 32.9992 17.1748L36.23 19.6676C36.6338 19.9794 37.22 19.7998 37.3847 19.3163L38.8785 14.9386C39.1255 14.7866 39.3666 14.6327 39.596 14.4709C44.3853 11.1176 43.2306 5.2794 38.604 2.40966L38.606 2.4136Z" fill="#44B4FF"/>
<path d="M56.3429 20.2809C54.5531 18.7059 51.8516 17.7723 49.5912 18.6526C47.6465 19.4105 46.284 20.7802 45.4116 22.45L41.7986 23.8691C41.3261 24.0546 41.1732 24.6526 41.4986 25.0454L44.1687 28.2684C44.2158 30.6743 44.849 33.0605 45.8959 34.8763C48.3013 39.0448 53.4337 38.6816 56.3547 35.2434C59.8874 31.0888 60.8166 24.2184 56.3429 20.2789V20.2809Z" fill="#A0E468"/>
</svg>
