<svg width="740" height="552" viewBox="0 0 740 552" fill="none" xmlns="http://www.w3.org/2000/svg">
<path d="M740 484.552H0V484.922H740V484.552Z" fill="#EBEBEB"/>
<path d="M658.985 501.498H583.653V501.868H658.985V501.498Z" fill="#EBEBEB"/>
<path d="M147.512 497.117H77.6408V497.487H147.512V497.117Z" fill="#EBEBEB"/>
<path d="M589.04 494.631H560.639V495.001H589.04V494.631Z" fill="#EBEBEB"/>
<path d="M490.206 504.443H469.367V504.813H490.206V504.443Z" fill="#EBEBEB"/>
<path d="M456.18 504.443H403.729V504.813H456.18V504.443Z" fill="#EBEBEB"/>
<path d="M373.271 498.198H288.926V498.568H373.271V498.198Z" fill="#EBEBEB"/>
<path d="M350.76 418.544H64.9868C62.7481 418.54 60.6024 417.648 59.0207 416.064C57.4391 414.479 56.5508 412.332 56.5508 410.093V8.3768C56.5703 6.15092 57.4672 4.02261 59.0467 2.45416C60.6262 0.885718 62.7608 0.00381305 64.9868 0H350.76C353.001 0 355.151 0.89035 356.736 2.47518C358.32 4.06001 359.211 6.20951 359.211 8.4508V410.093C359.211 412.335 358.32 414.484 356.736 416.069C355.151 417.654 353.001 418.544 350.76 418.544ZM64.9868 0.296001C62.8462 0.299922 60.7946 1.15302 59.2824 2.66804C57.7701 4.18305 56.9208 6.2362 56.9208 8.3768V410.093C56.9208 412.234 57.7701 414.287 59.2824 415.802C60.7946 417.317 62.8462 418.17 64.9868 418.174H350.76C352.902 418.17 354.955 417.317 356.47 415.803C357.984 414.288 358.837 412.235 358.841 410.093V8.3768C358.837 6.23484 357.984 4.18173 356.47 2.66713C354.955 1.15254 352.902 0.299913 350.76 0.296001H64.9868Z" fill="#EBEBEB"/>
<path d="M670.899 418.544H385.111C382.871 418.54 380.724 417.648 379.14 416.065C377.556 414.481 376.664 412.333 376.66 410.093V8.3768C376.683 6.14957 377.584 4.02127 379.165 2.45324C380.747 0.885201 382.883 0.00377147 385.111 0H670.899C673.122 0.00770265 675.253 0.891329 676.829 2.45936C678.406 4.02739 679.301 6.15347 679.32 8.3768V410.093C679.32 412.329 678.434 414.474 676.855 416.058C675.277 417.642 673.135 418.536 670.899 418.544ZM385.111 0.296001C382.969 0.299913 380.916 1.15254 379.401 2.66713C377.887 4.18173 377.034 6.23484 377.03 8.3768V410.093C377.034 412.235 377.887 414.288 379.401 415.803C380.916 417.317 382.969 418.17 385.111 418.174H670.899C673.041 418.17 675.094 417.317 676.608 415.803C678.123 414.288 678.976 412.235 678.98 410.093V8.3768C678.976 6.23484 678.123 4.18173 676.608 2.66713C675.094 1.15254 673.041 0.299913 670.899 0.296001H385.111Z" fill="#EBEBEB"/>
<path d="M577.748 45.3916H427.084V484.552H577.748V45.3916Z" fill="#EBEBEB"/>
<path d="M567.58 475.672V54.2716L437.251 54.2716V475.672H567.58Z" fill="#FAFAFA"/>
<path d="M422.57 45.3916H271.906V484.552H422.57V45.3916Z" fill="#EBEBEB"/>
<path d="M422.57 482.835H427.084L427.084 47.1232H422.57L422.57 482.835Z" fill="#E0E0E0"/>
<path d="M412.402 475.657V54.2568L282.073 54.2568V475.657H412.402Z" fill="#FAFAFA"/>
<path d="M646.568 42.0912H203.086C202.565 42.0873 202.066 41.8787 201.698 41.5104C201.33 41.142 201.121 40.6436 201.117 40.1228C201.121 39.6019 201.33 39.1035 201.698 38.7352C202.066 38.3669 202.565 38.1582 203.086 38.1544H646.568C647.088 38.1582 647.587 38.3669 647.955 38.7352C648.323 39.1035 648.532 39.6019 648.536 40.1228C648.532 40.6436 648.323 41.142 647.955 41.5104C647.587 41.8787 647.088 42.0873 646.568 42.0912Z" fill="#E0E0E0"/>
<path d="M567.58 62.6632V54.2716L437.251 54.2716V62.6632L567.58 62.6632Z" fill="#E0E0E0"/>
<path d="M567.58 68.4056V54.2568L437.251 54.2568V68.4056H567.58Z" fill="#E0E0E0"/>
<path d="M412.402 85.174V54.2568L282.073 54.2568V85.174H412.402Z" fill="#E0E0E0"/>
<g opacity="0.8">
<path d="M597.091 28.9488H555.355V479.15H597.091V28.9488Z" fill="#F5F5F5"/>
<path d="M586.08 28.9487H566.381V479.15H586.08V28.9487Z" fill="#F0F0F0"/>
<path d="M619.484 28.9487H577.748V479.15H619.484V28.9487Z" fill="#F5F5F5"/>
<path d="M608.472 28.9487H588.774V479.15H608.472V28.9487Z" fill="#F0F0F0"/>
<path d="M640.352 28.9487H598.616V479.15H640.352V28.9487Z" fill="#F5F5F5"/>
</g>
<g opacity="0.8">
<path d="M268.561 28.9488H207.984V479.15H268.561V28.9488Z" fill="#F5F5F5"/>
<path d="M252.562 28.9487H223.968V479.15H252.562V28.9487Z" fill="#F0F0F0"/>
<path d="M301.047 28.9487H240.47V479.15H301.047V28.9487Z" fill="#F5F5F5"/>
<path d="M285.048 28.9487H256.454V479.15H285.048V28.9487Z" fill="#F0F0F0"/>
<path d="M331.328 28.9487H270.751V479.15H331.328V28.9487Z" fill="#F5F5F5"/>
</g>
<path d="M179.228 75.0804H81.5037V295.112H179.228V75.0804Z" fill="#F0F0F0"/>
<path d="M179.228 295.127H182.306L182.306 75.0953H179.228L179.228 295.127Z" fill="#E6E6E6"/>
<path d="M170.348 286.232V83.9604H90.3836L90.3836 286.232H170.348Z" fill="#FAFAFA"/>
<path d="M185.385 404.144H85.0704C82.8642 404.14 80.7494 403.263 79.188 401.704C77.6267 400.145 76.7458 398.032 76.738 395.826C76.7458 393.62 77.6267 391.506 79.188 389.948C80.7494 388.389 82.8642 387.512 85.0704 387.508H185.385C187.588 387.516 189.699 388.395 191.258 389.953C192.816 391.511 193.695 393.622 193.702 395.826C193.695 398.03 192.816 400.141 191.258 401.699C189.699 403.257 187.588 404.136 185.385 404.144Z" fill="#F5F5F5"/>
<path d="M109.194 404.144H92.7219L73.9999 484.552H90.4575L109.194 404.144Z" fill="#E6E6E6"/>
<path d="M142.05 404.144H125.593L116.372 484.552H132.83L142.05 404.144Z" fill="#E6E6E6"/>
<path d="M161.261 404.144H177.718L196.455 484.552H179.983L161.261 404.144Z" fill="#E6E6E6"/>
<path d="M370 551.389C528.482 551.389 656.957 543.888 656.957 534.635C656.957 525.382 528.482 517.882 370 517.882C211.518 517.882 83.0428 525.382 83.0428 534.635C83.0428 543.888 211.518 551.389 370 551.389Z" fill="#F5F5F5"/>
<path d="M465.564 360.173H339.275C336.88 360.173 334.939 362.114 334.939 364.509V369.482C334.939 371.877 336.88 373.818 339.275 373.818H465.564C467.959 373.818 469.9 371.877 469.9 369.482V364.509C469.9 362.114 467.959 360.173 465.564 360.173Z" fill="#2C2C2C"/>
<path d="M464.365 525.755H469.9L463.536 373.818H455.87L464.365 525.755Z" fill="#C8B79E"/>
<path opacity="0.6" d="M464.365 525.755H469.9L463.536 373.818H455.87L464.365 525.755Z" fill="white"/>
<path d="M413.408 525.755H407.873L414.237 373.818H421.904L413.408 525.755Z" fill="#C8B79E"/>
<path opacity="0.6" d="M413.408 525.755H407.873L414.237 373.818H421.904L413.408 525.755Z" fill="white"/>
<path d="M391.445 525.755H396.98L390.602 373.818H382.95L391.445 525.755Z" fill="#C8B79E"/>
<path opacity="0.6" d="M391.445 525.755H396.98L390.602 373.818H382.95L391.445 525.755Z" fill="white"/>
<path d="M340.474 525.755H334.939L341.318 373.818H348.969L340.474 525.755Z" fill="#C8B79E"/>
<path opacity="0.6" d="M340.474 525.755H334.939L341.318 373.818H348.969L340.474 525.755Z" fill="white"/>
<g opacity="0.3">
<path d="M463.536 373.804H455.87L456.225 380.271H463.802L463.536 373.804Z" fill="#C8B79E"/>
<path d="M413.971 380.271H421.534L421.904 373.804H414.237L413.971 380.271Z" fill="#C8B79E"/>
<path d="M382.95 373.804L383.305 380.271H390.883L390.602 373.804H382.95Z" fill="#C8B79E"/>
<path d="M341.036 380.271H348.629L348.984 373.804H341.318L341.036 380.271Z" fill="#C8B79E"/>
</g>
<path d="M387.878 503.422L375.358 510.082L355.614 483.427L368.15 476.767L387.878 503.422Z" fill="#F3CBCB"/>
<path d="M370.829 505.968L383.912 496.88C384.019 496.789 384.144 496.721 384.279 496.681C384.414 496.641 384.555 496.63 384.695 496.648C384.834 496.666 384.968 496.713 385.088 496.787C385.208 496.86 385.312 496.957 385.392 497.073L393.221 506.974C393.598 507.52 393.745 508.191 393.632 508.844C393.518 509.497 393.153 510.08 392.614 510.467C388.012 513.545 385.94 514.626 379.916 518.207C376.201 520.398 367.321 525.607 361.86 527.99C356.399 530.373 354.208 524.897 356.31 523.402C361.298 519.88 367.898 512.953 369.393 508.084C369.624 507.239 370.129 506.494 370.829 505.968Z" fill="#2C2C2C"/>
<path opacity="0.2" d="M368.165 476.782L355.614 483.427L365.131 496.274L377.385 489.229L368.165 476.782Z" fill="#2C2C2C"/>
<path d="M398.401 318.896C398.401 318.896 301.106 315.862 300.721 356.517C300.248 414.948 355.703 491.686 355.703 491.686L377.4 477.256C377.4 477.256 339.394 421.474 339.068 375.861C367.736 367.765 435.268 372.901 444.015 349.073C451.178 329.626 447.434 318.896 447.434 318.896H398.401Z" fill="#C8B79E"/>
<path opacity="0.2" d="M398.401 318.896C398.401 318.896 301.106 315.862 300.721 356.517C300.248 414.948 355.703 491.686 355.703 491.686L377.4 477.256C377.4 477.256 339.394 421.474 339.068 375.861C367.736 367.765 435.268 372.901 444.015 349.073C451.178 329.626 447.434 318.896 447.434 318.896H398.401Z" fill="#2C2C2C"/>
<path d="M383.29 480.97L357.479 496.777L349.384 488.563L377.74 470.699L383.29 480.97Z" fill="#2C2C2C"/>
<path d="M368.12 510.866C369.154 510.119 370.097 509.255 370.932 508.291C370.977 508.244 371.006 508.185 371.016 508.121C371.026 508.057 371.017 507.992 370.99 507.933C370.963 507.874 370.92 507.825 370.864 507.791C370.809 507.757 370.745 507.741 370.681 507.744C370.133 507.744 365.279 507.744 364.243 509.327C364.124 509.504 364.052 509.708 364.034 509.921C364.016 510.133 364.052 510.346 364.139 510.541C364.237 510.848 364.415 511.123 364.654 511.339C364.893 511.555 365.185 511.703 365.501 511.769C366.455 511.801 367.388 511.48 368.12 510.866ZM369.911 508.424C368.12 510.289 366.537 511.281 365.619 511.118C365.413 511.073 365.224 510.971 365.073 510.825C364.921 510.679 364.813 510.493 364.761 510.289C364.706 510.2 364.677 510.098 364.677 509.993C364.677 509.889 364.706 509.786 364.761 509.697C365.353 508.868 367.972 508.498 369.911 508.424Z" fill="#C8B79E"/>
<path d="M370.873 508.35C370.915 508.318 370.95 508.278 370.977 508.232C371.005 508.182 371.02 508.126 371.02 508.069C371.02 508.012 371.005 507.956 370.977 507.906C370.888 507.758 368.816 504.236 366.862 503.91C366.599 503.859 366.328 503.871 366.071 503.946C365.813 504.021 365.577 504.156 365.382 504.34C365.159 504.506 364.998 504.741 364.923 505.009C364.848 505.277 364.864 505.562 364.968 505.82C365.59 507.3 369.008 508.498 370.651 508.395L370.873 508.35ZM366.004 504.68C366.111 504.6 366.233 504.544 366.363 504.513C366.493 504.483 366.628 504.479 366.759 504.502C367.928 504.695 369.349 506.545 370.089 507.67C368.476 507.522 366.048 506.486 365.649 505.524C365.575 505.346 365.53 505.094 365.9 504.769C365.93 504.798 365.96 504.754 366.004 504.68Z" fill="#C8B79E"/>
<path d="M364.716 519.761L350.656 519.095L348.348 485.899L362.408 486.565L364.716 519.761Z" fill="#F3CBCB"/>
<path d="M350.331 516.698L366.241 516.194C366.509 516.174 366.775 516.26 366.98 516.435C367.185 516.61 367.313 516.858 367.336 517.127L368.505 529.692C368.529 530.357 368.289 531.004 367.837 531.493C367.385 531.981 366.758 532.27 366.093 532.297C360.558 532.297 357.894 532.134 350.893 532.297C346.586 532.43 338.121 533.066 332.216 532.297C326.31 531.527 327.213 525.74 329.774 525.518C335.856 525.03 344.011 520.827 347.918 517.556C348.606 517.012 349.454 516.71 350.331 516.698Z" fill="#2C2C2C"/>
<path d="M345.388 519.317C346.66 519.249 347.92 519.04 349.147 518.696C349.208 518.679 349.264 518.646 349.307 518.598C349.349 518.551 349.377 518.492 349.386 518.429C349.396 518.366 349.387 518.301 349.36 518.244C349.333 518.186 349.29 518.137 349.236 518.104C348.777 517.808 344.677 515.144 342.975 515.913C342.781 515.998 342.611 516.131 342.482 516.299C342.352 516.467 342.267 516.665 342.235 516.875C342.148 517.185 342.144 517.513 342.225 517.825C342.305 518.137 342.467 518.422 342.694 518.651C343.475 519.206 344.438 519.444 345.388 519.317ZM348.214 518.252C345.698 518.829 343.774 518.814 343.153 518.178C343.008 518.024 342.907 517.835 342.857 517.63C342.808 517.425 342.813 517.211 342.872 517.008C342.884 516.905 342.923 516.807 342.986 516.724C343.048 516.641 343.131 516.576 343.227 516.535C344.144 516.135 346.542 517.245 348.214 518.252Z" fill="#C8B79E"/>
<path d="M349.073 518.71C349.121 518.724 349.172 518.724 349.221 518.71C349.269 518.684 349.309 518.646 349.338 518.599C349.367 518.552 349.382 518.499 349.384 518.444C349.384 518.266 349.591 514.182 348.111 512.85C347.917 512.664 347.681 512.529 347.423 512.457C347.165 512.384 346.893 512.377 346.631 512.435C346.348 512.451 346.078 512.562 345.866 512.75C345.654 512.938 345.511 513.192 345.462 513.471C345.18 514.951 347.386 517.911 348.821 518.71C348.903 518.737 348.991 518.737 349.073 518.71ZM346.956 513.027C347.087 513.019 347.218 513.039 347.34 513.085C347.462 513.131 347.574 513.202 347.667 513.294C348.555 514.093 348.732 516.416 348.747 517.734C347.474 516.727 345.994 514.537 346.187 513.516C346.187 513.323 346.32 513.086 346.794 513.012L346.956 513.027Z" fill="#C8B79E"/>
<path opacity="0.2" d="M362.422 486.565L348.348 485.899L349.665 504.887L363.695 504.872L362.422 486.565Z" fill="#2C2C2C"/>
<path d="M433.004 318.896C433.004 318.896 331.209 328.515 334.909 359.166C340.267 403.359 342.901 498.612 342.901 498.612L368.846 499.633C368.846 499.633 379.842 413.793 374.159 368.461C400.503 368.461 465.001 370.355 470.877 354.489C476.072 340.459 474.222 318.969 474.222 318.969L433.004 318.896Z" fill="#C8B79E"/>
<path d="M371.717 501.232L340.578 499.692L339.453 486.136L373.611 488.489L371.717 501.232Z" fill="#2C2C2C"/>
<path d="M410.419 229.119C410.226 231.605 410.034 233.766 409.753 236.045C409.472 238.324 409.176 240.485 408.82 242.794C408.125 247.234 407.237 251.674 406.201 256.218C404.184 265.606 400.903 274.677 396.448 283.183C395.118 285.573 393.588 287.845 391.874 289.976C389.959 292.382 387.694 294.487 385.155 296.222C380.271 299.466 374.622 301.374 368.772 301.757C363.649 302.093 358.505 301.593 353.542 300.277C351.201 299.678 348.897 298.937 346.646 298.057C345.521 297.628 344.426 297.154 343.345 296.577C342.265 296 341.258 295.526 340.015 294.86L343.908 284.959L346.734 285.314L349.694 285.61C351.678 285.773 353.631 285.877 355.614 285.877C359.21 285.938 362.798 285.525 366.285 284.648C369.08 283.978 371.667 282.631 373.818 280.726C374.741 279.863 375.565 278.9 376.275 277.855C377.15 276.509 377.931 275.105 378.614 273.652C380.179 270.256 381.461 266.736 382.447 263.129C383.572 259.385 384.474 255.463 385.288 251.467C386.102 247.471 386.768 243.43 387.434 239.36L388.308 233.233C388.574 231.22 388.87 229.06 389.062 227.313L410.419 229.119Z" fill="#F3CBCB"/>
<path d="M410.508 217.057C400.148 207.008 387.272 212.942 382.151 231.857C379.253 241.954 377.271 252.291 376.231 262.744L409.19 269.552C415.184 251.511 421.164 227.358 410.508 217.057Z" fill="#2C2C2C"/>
<path opacity="0.3" d="M399.896 237.629C402.249 235.512 408.939 245.029 413.024 256.765C411.869 261.205 410.552 265.482 409.205 269.493L389.373 265.394C390.957 253.672 394.612 242.394 399.896 237.629Z" fill="#2C2C2C"/>
<path d="M341.673 280.519L334.273 277.692L333.947 293.395C333.947 293.395 346.379 298.768 348.91 292.596L348.022 288.674C347.594 286.946 346.807 285.327 345.713 283.922C344.62 282.518 343.243 281.358 341.673 280.519Z" fill="#F3CBCB"/>
<path d="M325.541 278.107L321.175 291.279L334.006 293.395L334.332 277.692L325.541 278.107Z" fill="#F3CBCB"/>
<path d="M336.73 288.6C336.573 288.602 336.42 288.561 336.286 288.48C336.152 288.398 336.045 288.281 335.975 288.141L322.758 262.7C322.654 262.5 322.632 262.266 322.699 262.05C322.765 261.834 322.914 261.652 323.114 261.546C323.317 261.446 323.55 261.429 323.765 261.498C323.981 261.567 324.161 261.716 324.268 261.916L337.44 287.312C337.545 287.513 337.566 287.746 337.5 287.963C337.433 288.179 337.284 288.36 337.085 288.467C336.976 288.534 336.856 288.579 336.73 288.6Z" fill="#2C2C2C"/>
<path d="M409.279 206.978L425.086 202.538L445.391 201.591C448.475 201.443 451.522 202.313 454.063 204.068C456.604 205.822 458.497 208.363 459.451 211.3C463.314 223.14 466.851 240.189 469.471 254.945C472.431 271.506 473.911 296.385 474.222 318.97H398.401C396.67 271.832 390.676 243.963 388.041 228.542C387.516 225.519 387.996 222.408 389.407 219.684C390.818 216.96 393.083 214.774 395.856 213.46L409.279 206.978Z" fill="#2C2C2C"/>
<path opacity="0.3" d="M469.471 254.886C467.428 243.268 464.794 230.184 461.864 219.366C448.351 217.086 441.81 246.716 445.82 261.412C449.831 276.109 471.217 267.199 471.217 267.199C470.714 262.774 470.122 258.615 469.471 254.886Z" fill="#2C2C2C"/>
<path d="M422.392 171.68C425.648 179.672 423.694 194.324 417.271 190.18C410.848 186.036 420.409 166.826 422.392 171.68Z" fill="#2C2C2C"/>
<path d="M418.84 176.801L412.698 186.184L404.351 198.956C405.429 200.049 406.302 201.328 406.926 202.73C408.406 205.809 409.723 208.103 403.256 212.513C402.561 212.959 402.009 213.595 401.665 214.345C401.321 215.095 401.2 215.929 401.317 216.746C401.702 218.744 403.685 220.683 410.656 219.454C417.374 218.168 423.504 214.766 428.149 209.746C430.473 207.422 429.94 205.676 427.705 203.263C421.312 196.455 419.417 185.577 418.84 176.801Z" fill="#F3CBCB"/>
<path opacity="0.2" d="M406.349 195.804L411.47 186.702C411.578 186.939 411.697 187.19 411.825 187.457C412.28 188.581 412.646 189.739 412.92 190.92C413.852 194.96 410.715 200.732 407.266 203.485L406.867 202.701C406.246 201.39 405.449 200.17 404.499 199.075C404.438 199.014 404.368 198.965 404.292 198.927L406.349 195.804Z" fill="#2C2C2C"/>
<path d="M375.609 165.76C373.7 170.067 380.464 182.262 388.204 177.334C395.944 172.405 378.984 158.138 375.609 165.76Z" fill="#2C2C2C"/>
<path d="M412.92 222.074C412.818 222.075 412.719 222.041 412.64 221.975C412.561 221.91 412.508 221.819 412.491 221.719C411.928 218.063 409.531 215.799 406.822 213.046C403.389 209.686 399.496 205.868 398.224 198.394C398.204 198.284 398.229 198.171 398.293 198.079C398.356 197.988 398.454 197.925 398.564 197.906C398.674 197.886 398.787 197.911 398.879 197.975C398.97 198.038 399.033 198.136 399.052 198.246C400.296 205.454 404.084 209.168 407.414 212.439C410.152 215.118 412.728 217.649 413.334 221.586C413.345 221.641 413.344 221.698 413.332 221.753C413.319 221.809 413.296 221.861 413.262 221.907C413.229 221.952 413.187 221.991 413.138 222.02C413.089 222.048 413.035 222.067 412.979 222.074H412.92Z" fill="white"/>
<path d="M416.072 161.424C419.032 174.832 421.341 182.543 416.561 191.024C409.338 203.855 391.282 202.109 384.415 189.766C378.229 178.666 374.544 158.597 386.043 149.939C388.616 148.026 391.63 146.793 394.806 146.355C397.982 145.918 401.218 146.288 404.212 147.434C407.207 148.579 409.864 150.462 411.937 152.907C414.01 155.353 415.433 158.282 416.072 161.424Z" fill="#F3CBCB"/>
<path d="M420.054 170.629C415.436 177.186 403.33 165.153 404.321 157.072C392.304 163.91 379.25 173.042 371.332 165.346C362.186 156.466 364.687 143.738 375.402 142.598C373.508 146.298 384.282 147.941 390.01 142.228C399.704 132.638 415.022 134.636 414.74 142.406C422.126 139.475 430.192 156.229 420.054 170.629Z" fill="#2C2C2C"/>
<path d="M413.32 144.581C416.176 142.45 414.282 134.858 407.651 132.638C413.956 133.452 420.483 138.143 413.32 144.581Z" fill="#2C2C2C"/>
<path d="M424.331 170.037C424.458 173.103 423.458 176.11 421.519 178.488C418.973 181.522 415.051 179.11 414.119 175.321C413.305 171.932 414.356 166.678 417.7 165.05C421.045 163.422 424.153 166.219 424.331 170.037Z" fill="#F3CBCB"/>
<path d="M396.832 172.302C397.188 173.382 396.921 174.477 396.211 174.729C395.5 174.98 394.731 174.314 394.302 173.249C393.872 172.183 394.213 171.073 394.923 170.807C395.634 170.54 396.477 171.206 396.832 172.302Z" fill="#2C2C2C"/>
<path d="M384.696 176.742C385.066 177.837 384.785 178.932 384.075 179.184C383.364 179.435 382.521 178.769 382.166 177.704C381.81 176.638 382.092 175.528 382.787 175.276C383.483 175.025 384.341 175.661 384.696 176.742Z" fill="#2C2C2C"/>
<path d="M388.855 176.12C388.904 179.357 388.526 182.587 387.73 185.725C389.906 186.524 392.304 184.645 392.304 184.645L388.855 176.12Z" fill="#DCADAD"/>
<path d="M395.352 190.668C396.613 190.254 397.776 189.588 398.771 188.71C399.765 187.832 400.571 186.761 401.139 185.562C401.174 185.48 401.175 185.387 401.142 185.304C401.108 185.221 401.044 185.154 400.962 185.118C400.877 185.088 400.784 185.092 400.702 185.127C400.619 185.163 400.554 185.229 400.518 185.311C399.882 186.603 398.957 187.732 397.815 188.61C396.673 189.488 395.344 190.091 393.932 190.372C393.885 190.378 393.841 190.394 393.801 190.418C393.761 190.442 393.726 190.474 393.699 190.512C393.671 190.549 393.652 190.593 393.643 190.638C393.633 190.684 393.632 190.731 393.641 190.777C393.651 190.823 393.669 190.866 393.696 190.904C393.722 190.943 393.757 190.975 393.796 191C393.836 191.024 393.88 191.04 393.927 191.047C393.973 191.054 394.02 191.051 394.065 191.038C394.502 190.944 394.932 190.82 395.352 190.668Z" fill="#2C2C2C"/>
<path d="M397.942 167.595C398.045 167.546 398.133 167.469 398.194 167.373C398.289 167.222 398.32 167.039 398.281 166.864C398.243 166.69 398.137 166.538 397.987 166.441C397.111 165.85 396.104 165.484 395.053 165.376C394.002 165.267 392.941 165.419 391.963 165.819C391.881 165.856 391.808 165.908 391.747 165.974C391.686 166.04 391.639 166.117 391.608 166.201C391.578 166.286 391.565 166.375 391.57 166.465C391.575 166.554 391.598 166.642 391.638 166.722C391.717 166.882 391.857 167.004 392.025 167.062C392.194 167.12 392.379 167.11 392.54 167.033C393.312 166.735 394.144 166.628 394.966 166.72C395.788 166.813 396.576 167.103 397.262 167.566C397.361 167.634 397.477 167.674 397.598 167.679C397.718 167.684 397.838 167.655 397.942 167.595Z" fill="#2C2C2C"/>
<path d="M382.299 169.726C382.327 169.615 382.327 169.498 382.299 169.386C382.227 169.222 382.094 169.093 381.928 169.026C381.761 168.96 381.576 168.961 381.411 169.031C380.425 169.413 379.55 170.033 378.863 170.836C378.176 171.64 377.699 172.601 377.474 173.634C377.445 173.808 377.486 173.988 377.588 174.132C377.691 174.276 377.847 174.374 378.022 174.403C378.196 174.433 378.375 174.392 378.52 174.289C378.664 174.186 378.762 174.03 378.791 173.856C378.984 173.049 379.37 172.301 379.917 171.677C380.464 171.053 381.154 170.571 381.929 170.274C382.032 170.222 382.12 170.144 382.185 170.048C382.249 169.952 382.289 169.842 382.299 169.726Z" fill="#2C2C2C"/>
<path d="M456.832 211.64C458.312 214.038 459.496 216.198 460.724 218.507C461.952 220.816 463.136 223.066 464.291 225.374C466.629 229.977 468.731 234.713 470.773 239.538C472.816 244.363 474.606 249.336 476.146 254.516C477.83 259.953 478.96 265.546 479.52 271.21C479.819 274.517 479.705 277.848 479.18 281.126C478.842 283.288 478.183 285.389 477.226 287.357C476.117 289.581 474.578 291.563 472.697 293.188C471.004 294.66 469.072 295.831 466.984 296.651C465.233 297.339 463.411 297.836 461.553 298.131C458.414 298.622 455.226 298.707 452.066 298.383C449.244 298.143 446.444 297.693 443.689 297.036C441.059 296.437 438.461 295.706 435.904 294.846C430.881 293.182 426 291.113 421.312 288.659L425.056 278.699C434.262 280.445 444.148 282.058 452.451 281.555C454.266 281.46 456.065 281.152 457.808 280.638C459.288 280.194 460.043 279.528 459.984 279.32C459.925 279.113 459.895 279.32 459.866 279.172C459.836 279.024 459.866 279.01 459.866 278.255C459.957 276.591 459.858 274.923 459.57 273.282C458.862 269.058 457.757 264.911 456.269 260.894C454.789 256.602 452.998 252.266 451.06 247.974C449.121 243.682 447.034 239.375 444.918 235.083C443.852 232.932 442.752 230.806 441.617 228.704L438.272 222.503L456.832 211.64Z" fill="#F3CBCB"/>
<path d="M449.92 201.739C435.623 199.563 428.593 211.832 435.327 230.155C438.804 240.066 443.173 249.641 448.381 258.763L479.209 245.251C473.6 227.121 464.542 203.974 449.92 201.739Z" fill="#2C2C2C"/>
<path d="M417.123 277.337L410.522 279.32L419.891 292.64C419.891 292.64 433.773 287.668 430.932 281.629L427.439 279.646C424.449 277.914 420.66 276.124 417.123 277.337Z" fill="#F3CBCB"/>
<path d="M404.676 288.496L411.292 295.097L419.891 292.626L410.522 279.32L404.676 288.496Z" fill="#F3CBCB"/>
<path d="M419.106 174.27C420.283 174.27 421.238 173.117 421.238 171.695C421.238 170.273 420.283 169.12 419.106 169.12C417.929 169.12 416.975 170.273 416.975 171.695C416.975 173.117 417.929 174.27 419.106 174.27Z" fill="white"/>
<path d="M420.868 178.503L419.639 178.458L418.884 172.524L421.223 172.006L420.868 178.503Z" fill="white"/>
<path d="M429.363 290.376C424.923 290.376 420.986 289.71 418.603 287.549C417.714 286.693 417.023 285.654 416.575 284.504C416.128 283.354 415.936 282.121 416.013 280.889C416.149 274.786 417.099 268.729 418.84 262.878C420.897 254.812 422.525 248.448 417.582 240.589C409.708 228.112 412.062 210.663 417.582 199.726C421.8 191.364 420.32 182.04 419.787 178.606C419.713 178.162 419.654 177.807 419.624 177.57C419.618 177.515 419.623 177.458 419.64 177.405C419.656 177.351 419.683 177.302 419.719 177.259C419.755 177.216 419.799 177.181 419.849 177.155C419.899 177.13 419.953 177.115 420.009 177.112C420.121 177.099 420.233 177.131 420.322 177.2C420.41 177.269 420.468 177.37 420.483 177.482C420.483 177.704 420.557 178.044 420.616 178.473C421.178 182.04 422.644 191.497 418.292 200.111C412.89 210.841 410.582 227.935 418.292 240.071C423.428 248.226 421.682 255.078 419.654 263.011C417.949 268.782 417.018 274.754 416.886 280.771C416.806 281.884 416.97 283 417.366 284.043C417.763 285.086 418.382 286.03 419.18 286.809C423.176 290.406 431.997 289.488 440.522 288.6C444.34 288.215 448.292 287.801 451.77 287.801C451.884 287.801 451.993 287.846 452.073 287.927C452.154 288.007 452.199 288.116 452.199 288.23C452.199 288.344 452.154 288.453 452.073 288.533C451.993 288.614 451.884 288.659 451.77 288.659C448.336 288.659 444.37 289.059 440.611 289.458C436.879 289.953 433.125 290.259 429.363 290.376Z" fill="white"/>
<path d="M469.486 287.209H452.643C452.153 287.209 451.755 287.606 451.755 288.097V289.281C451.755 289.771 452.153 290.169 452.643 290.169H469.486C469.976 290.169 470.374 289.771 470.374 289.281V288.097C470.374 287.606 469.976 287.209 469.486 287.209Z" fill="white"/>
<path d="M575.187 300.026H164.813C163.507 300.022 162.256 299.501 161.332 298.578C160.409 297.654 159.888 296.403 159.884 295.097C159.888 293.791 160.409 292.54 161.332 291.617C162.256 290.693 163.507 290.173 164.813 290.169H575.187C576.493 290.173 577.744 290.693 578.668 291.617C579.591 292.54 580.112 293.791 580.116 295.097C580.112 296.403 579.591 297.654 578.668 298.578C577.744 299.501 576.493 300.022 575.187 300.026Z" fill="#C8B79E"/>
<path opacity="0.3" d="M575.187 300.026H479.12C477.814 300.022 476.563 299.501 475.64 298.578C474.716 297.654 474.196 296.403 474.192 295.097C474.196 293.791 474.716 292.54 475.64 291.617C476.563 290.693 477.814 290.173 479.12 290.169H575.187C576.493 290.173 577.744 290.693 578.668 291.617C579.591 292.54 580.112 293.791 580.116 295.097C580.112 296.403 579.591 297.654 578.668 298.578C577.744 299.501 576.493 300.022 575.187 300.026Z" fill="#2C2C2C"/>
<path d="M570.658 532.238H580.116L569.238 300.026H556.154L570.658 532.238Z" fill="#2C2C2C"/>
<path opacity="0.1" d="M570.658 532.238H580.116L569.238 300.026H556.154L570.658 532.238Z" fill="white"/>
<path d="M483.649 532.238H474.192L485.07 300.026H498.153L483.649 532.238Z" fill="#2C2C2C"/>
<path opacity="0.2" d="M483.649 532.238H474.192L485.07 300.026H498.153L483.649 532.238Z" fill="white"/>
<path d="M256.366 532.238H265.808L254.93 300.026H241.847L256.366 532.238Z" fill="#2C2C2C"/>
<path opacity="0.1" d="M256.366 532.238H265.808L254.93 300.026H241.847L256.366 532.238Z" fill="white"/>
<path d="M169.342 532.238H159.884L170.762 300.026H183.846L169.342 532.238Z" fill="#2C2C2C"/>
<path opacity="0.2" d="M169.342 532.238H159.884L170.762 300.026H183.846L169.342 532.238Z" fill="white"/>
<path d="M489.125 312.384H173.515V331.846H489.125V312.384Z" fill="#2C2C2C"/>
<path opacity="0.2" d="M489.125 312.384H173.515V331.846H489.125V312.384Z" fill="white"/>
<path d="M225.448 277.086C224.901 277.086 224.377 277.302 223.988 277.687C223.6 278.073 223.38 278.596 223.376 279.143V288.023C223.376 288.572 223.595 289.099 223.983 289.488C224.372 289.876 224.899 290.095 225.448 290.095H292.566C292.744 290.095 292.915 290.025 293.043 289.901C293.17 289.776 293.243 289.607 293.247 289.429V277.678C293.243 277.5 293.17 277.33 293.043 277.206C292.915 277.081 292.744 277.012 292.566 277.012L225.448 277.086Z" fill="#C8B79E"/>
<path opacity="0.9" d="M265.172 278.329H293.292V288.926H265.172C264.854 288.926 264.549 288.799 264.324 288.575C264.099 288.35 263.973 288.045 263.973 287.727V279.513C263.977 279.197 264.105 278.896 264.329 278.675C264.554 278.453 264.856 278.329 265.172 278.329Z" fill="white"/>
<path d="M260.554 277.086H192.755C191.611 277.086 190.683 278.013 190.683 279.158V288.112C190.683 289.256 191.611 290.184 192.755 290.184H260.554C261.698 290.184 262.626 289.256 262.626 288.112V279.158C262.626 278.013 261.698 277.086 260.554 277.086Z" fill="#C8B79E"/>
<path opacity="0.2" d="M260.554 277.086H192.755C191.611 277.086 190.683 278.013 190.683 279.158V288.112C190.683 289.256 191.611 290.184 192.755 290.184H260.554C261.698 290.184 262.626 289.256 262.626 288.112V279.158C262.626 278.013 261.698 277.086 260.554 277.086Z" fill="#2C2C2C"/>
<path opacity="0.5" d="M227.21 277.086H216.924C216.458 277.086 216.08 277.463 216.08 277.929V289.34C216.08 289.806 216.458 290.184 216.924 290.184H227.21C227.675 290.184 228.053 289.806 228.053 289.34V277.929C228.053 277.463 227.675 277.086 227.21 277.086Z" fill="#C8B79E"/>
<path opacity="0.5" d="M242.054 277.086H231.783C231.317 277.086 230.939 277.463 230.939 277.929V289.34C230.939 289.806 231.317 290.184 231.783 290.184H242.054C242.52 290.184 242.898 289.806 242.898 289.34V277.929C242.898 277.463 242.52 277.086 242.054 277.086Z" fill="#C8B79E"/>
<path d="M213.312 260.954C213.04 260.954 212.771 261.007 212.519 261.111C212.268 261.215 212.04 261.368 211.847 261.56C211.655 261.753 211.502 261.981 211.398 262.233C211.294 262.484 211.24 262.754 211.24 263.026V275.014C211.24 275.286 211.294 275.555 211.398 275.807C211.502 276.058 211.655 276.286 211.847 276.479C212.04 276.671 212.268 276.824 212.519 276.928C212.771 277.032 213.04 277.086 213.312 277.086H286.025C286.203 277.082 286.372 277.008 286.497 276.881C286.621 276.754 286.691 276.583 286.691 276.405V261.605C286.691 261.427 286.621 261.256 286.497 261.129C286.372 261.001 286.203 260.928 286.025 260.924L213.312 260.954Z" fill="#C8B79E"/>
<path opacity="0.9" d="M253.08 262.212H286.735V275.842H253.08C252.762 275.842 252.457 275.716 252.232 275.491C252.007 275.267 251.881 274.962 251.881 274.644V263.44C251.877 263.28 251.905 263.121 251.964 262.972C252.022 262.823 252.11 262.688 252.222 262.573C252.333 262.459 252.467 262.368 252.614 262.306C252.762 262.244 252.92 262.212 253.08 262.212Z" fill="white"/>
<path d="M248.403 260.954H191.394C190.249 260.954 189.322 261.881 189.322 263.026V274.999C189.322 276.143 190.249 277.071 191.394 277.071H248.403C249.547 277.071 250.475 276.143 250.475 274.999V263.026C250.475 261.881 249.547 260.954 248.403 260.954Z" fill="#C8B79E"/>
<path opacity="0.2" d="M248.403 260.954H191.394C190.249 260.954 189.322 261.881 189.322 263.026V274.999C189.322 276.143 190.249 277.071 191.394 277.071H248.403C249.547 277.071 250.475 276.143 250.475 274.999V263.026C250.475 261.881 249.547 260.954 248.403 260.954Z" fill="white"/>
<path opacity="0.6" d="M243.06 264.15H201.31C200.615 264.15 200.052 264.714 200.052 265.408V272.616C200.052 273.311 200.615 273.874 201.31 273.874H243.06C243.755 273.874 244.318 273.311 244.318 272.616V265.408C244.318 264.714 243.755 264.15 243.06 264.15Z" fill="#C8B79E"/>
<path d="M234.639 253.243C233.5 253.243 232.567 253.79 232.567 254.456V259.74C232.567 260.406 233.5 260.954 234.639 260.954H301.772C302.142 260.954 302.438 260.776 302.438 260.569V253.642C302.438 253.42 302.142 253.243 301.772 253.243H234.639Z" fill="#C8B79E"/>
<path opacity="0.9" d="M274.096 253.968H302.438V260.214H274.096C273.853 260.214 273.619 260.117 273.447 259.945C273.275 259.773 273.178 259.539 273.178 259.296V254.856C273.186 254.618 273.286 254.392 273.457 254.226C273.629 254.061 273.858 253.968 274.096 253.968Z" fill="white"/>
<path d="M270.233 253.243H201.458C200.583 253.243 199.874 253.952 199.874 254.826V259.385C199.874 260.259 200.583 260.968 201.458 260.968H270.233C271.108 260.968 271.817 260.259 271.817 259.385V254.826C271.817 253.952 271.108 253.243 270.233 253.243Z" fill="#C8B79E"/>
<path opacity="0.2" d="M270.233 253.243H201.458C200.583 253.243 199.874 253.952 199.874 254.826V259.385C199.874 260.259 200.583 260.968 201.458 260.968H270.233C271.108 260.968 271.817 260.259 271.817 259.385V254.826C271.817 253.952 271.108 253.243 270.233 253.243Z" fill="#2C2C2C"/>
<path opacity="0.5" d="M210.101 253.243H207.955C207.783 253.243 207.644 253.382 207.644 253.554V260.658C207.644 260.829 207.783 260.968 207.955 260.968H210.101C210.272 260.968 210.412 260.829 210.412 260.658V253.554C210.412 253.382 210.272 253.243 210.101 253.243Z" fill="#C8B79E"/>
<path opacity="0.5" d="M265.926 253.243H263.825C263.653 253.243 263.514 253.382 263.514 253.554V260.658C263.514 260.829 263.653 260.968 263.825 260.968H265.926C266.098 260.968 266.237 260.829 266.237 260.658V253.554C266.237 253.382 266.098 253.243 265.926 253.243Z" fill="#C8B79E"/>
<path d="M222.503 242.084C221.364 242.084 220.431 242.631 220.431 243.297V252.014C220.431 252.695 221.364 253.243 222.503 253.243H295.216C295.586 253.243 295.896 253.065 295.896 252.843V242.483C295.896 242.261 295.586 242.084 295.216 242.084H222.503Z" fill="#C8B79E"/>
<path opacity="0.9" d="M261.96 242.809H295.896V252.503H261.96C261.717 252.503 261.483 252.406 261.311 252.234C261.139 252.062 261.042 251.829 261.042 251.585V243.726C261.042 243.483 261.139 243.25 261.311 243.078C261.483 242.906 261.717 242.809 261.96 242.809Z" fill="white"/>
<path d="M258.082 242.084H200.096C199.221 242.084 198.512 242.793 198.512 243.667V251.659C198.512 252.534 199.221 253.243 200.096 253.243H258.082C258.957 253.243 259.666 252.534 259.666 251.659V243.667C259.666 242.793 258.957 242.084 258.082 242.084Z" fill="#C8B79E"/>
<path opacity="0.1" d="M258.082 242.084H200.096C199.221 242.084 198.512 242.793 198.512 243.667V251.659C198.512 252.534 199.221 253.243 200.096 253.243H258.082C258.957 253.243 259.666 252.534 259.666 251.659V243.667C259.666 242.793 258.957 242.084 258.082 242.084Z" fill="#2C2C2C"/>
<path d="M384.682 287.712H323.602C323.275 287.712 322.961 287.841 322.728 288.071C322.495 288.301 322.363 288.613 322.359 288.94C322.363 289.268 322.495 289.58 322.728 289.81C322.961 290.04 323.275 290.169 323.602 290.169H384.682C385.007 290.169 385.32 290.039 385.55 289.809C385.781 289.579 385.91 289.266 385.91 288.94C385.91 288.615 385.781 288.302 385.55 288.072C385.32 287.841 385.007 287.712 384.682 287.712Z" fill="white"/>
<path d="M504.177 284.782H544.314L547.94 290.036H500.551L504.177 284.782Z" fill="#2C2C2C"/>
<path d="M566.159 195.108C566.159 196.177 565.842 197.221 565.249 198.11C564.655 198.998 563.812 199.69 562.824 200.099C561.837 200.508 560.751 200.615 559.703 200.407C558.655 200.198 557.693 199.684 556.937 198.928C556.182 198.173 555.667 197.21 555.459 196.162C555.251 195.114 555.358 194.028 555.766 193.041C556.175 192.054 556.868 191.21 557.756 190.617C558.644 190.023 559.689 189.706 560.757 189.706C561.467 189.704 562.17 189.843 562.827 190.114C563.483 190.384 564.079 190.782 564.581 191.284C565.083 191.786 565.481 192.383 565.752 193.039C566.023 193.695 566.161 194.399 566.159 195.108Z" fill="#2C2C2C"/>
<path d="M525.578 288.334C525.296 288.333 525.019 288.263 524.771 288.13C524.523 287.997 524.312 287.805 524.155 287.571C523.999 287.337 523.902 287.069 523.874 286.789C523.846 286.509 523.887 286.226 523.994 285.966L562.666 194.442C562.866 194.06 563.202 193.767 563.608 193.621C564.014 193.475 564.459 193.488 564.857 193.655C565.254 193.823 565.573 194.134 565.751 194.527C565.93 194.92 565.954 195.365 565.819 195.774L527.146 287.283C527.016 287.592 526.798 287.857 526.519 288.043C526.241 288.23 525.913 288.331 525.578 288.334Z" fill="#2C2C2C"/>
<path d="M564.235 196.84C563.868 196.836 563.51 196.717 563.214 196.5L492.988 143.826C492.627 143.556 492.388 143.152 492.324 142.706C492.26 142.259 492.377 141.805 492.648 141.444C492.918 141.083 493.322 140.844 493.769 140.78C494.215 140.716 494.669 140.832 495.03 141.103L565.271 193.747C565.555 193.965 565.764 194.266 565.868 194.608C565.972 194.951 565.967 195.317 565.853 195.656C565.739 195.995 565.521 196.29 565.231 196.5C564.941 196.709 564.593 196.823 564.235 196.825V196.84Z" fill="#2C2C2C"/>
<path d="M569.637 195.108C569.637 196.177 569.32 197.221 568.727 198.11C568.133 198.998 567.29 199.69 566.302 200.099C565.315 200.508 564.229 200.615 563.181 200.407C562.133 200.198 561.171 199.684 560.415 198.928C559.66 198.173 559.145 197.21 558.937 196.162C558.729 195.114 558.836 194.028 559.244 193.041C559.653 192.054 560.346 191.21 561.234 190.617C562.122 190.023 563.167 189.706 564.235 189.706C564.945 189.704 565.649 189.843 566.305 190.114C566.961 190.384 567.557 190.782 568.059 191.284C568.561 191.786 568.959 192.383 569.23 193.039C569.501 193.695 569.639 194.399 569.637 195.108Z" fill="#2C2C2C"/>
<path d="M494.009 147.852C496.984 147.852 499.396 145.44 499.396 142.465C499.396 139.49 496.984 137.078 494.009 137.078C491.034 137.078 488.622 139.49 488.622 142.465C488.622 145.44 491.034 147.852 494.009 147.852Z" fill="#2C2C2C"/>
<path d="M486.461 167.092C484.772 168.781 482.62 169.931 480.278 170.397C477.935 170.863 475.507 170.624 473.3 169.71C471.093 168.796 469.207 167.248 467.88 165.262C466.553 163.276 465.845 160.941 465.845 158.552C465.845 156.164 466.553 153.829 467.88 151.843C469.207 149.857 471.093 148.309 473.3 147.395C475.507 146.481 477.935 146.242 480.278 146.708C482.62 147.174 484.772 148.324 486.461 150.013C488.722 152.28 489.992 155.351 489.992 158.552C489.992 161.754 488.722 164.825 486.461 167.092Z" fill="#C8B79E"/>
<path opacity="0.7" d="M486.461 167.092C484.772 168.781 482.62 169.931 480.278 170.397C477.935 170.863 475.507 170.624 473.3 169.71C471.093 168.796 469.207 167.248 467.88 165.262C466.553 163.276 465.845 160.941 465.845 158.552C465.845 156.164 466.553 153.829 467.88 151.843C469.207 149.857 471.093 148.309 473.3 147.395C475.507 146.481 477.935 146.242 480.278 146.708C482.62 147.174 484.772 148.324 486.461 150.013C488.722 152.28 489.992 155.351 489.992 158.552C489.992 161.754 488.722 164.825 486.461 167.092Z" fill="white"/>
<path d="M494.009 142.465C491.608 140.061 488.756 138.154 485.618 136.853C482.479 135.552 479.114 134.882 475.716 134.882C472.319 134.882 468.954 135.552 465.815 136.853C462.676 138.154 459.825 140.061 457.424 142.465L494.009 179.08C496.416 176.677 498.325 173.823 499.628 170.682C500.93 167.541 501.601 164.173 501.601 160.772C501.601 157.372 500.93 154.004 499.628 150.863C498.325 147.721 496.416 144.868 494.009 142.465Z" fill="#2C2C2C"/>
<g opacity="0.2">
<path d="M457.409 142.465L303.755 290.169H461.39L494.009 179.065L457.409 142.465Z" fill="#C8B79E"/>
<path opacity="0.7" d="M457.409 142.465L303.755 290.169H461.39L494.009 179.065L457.409 142.465Z" fill="white"/>
</g>
</svg>
