<svg width="38" height="38" viewBox="0 0 38 38" fill="none" xmlns="http://www.w3.org/2000/svg">
<path d="M32.5145 20.2855H29.5757C29.8753 21.1056 30.0389 21.9907 30.0389 22.9131V34.02C30.0389 34.4046 29.972 34.7737 29.8502 35.1171H34.7086C36.5235 35.1171 37.9999 33.6406 37.9999 31.8258V25.7709C38 22.7463 35.5392 20.2855 32.5145 20.2855ZM7.96107 22.9132C7.96107 21.9907 8.12473 21.1057 8.42427 20.2856H5.48551C2.4608 20.2856 0 22.7464 0 25.7711V31.8259C0 33.6407 1.47643 35.1172 3.2913 35.1172H8.14981C8.02477 34.7649 7.96093 34.3939 7.96107 34.0201V22.9132ZM22.3592 17.4277H15.6408C12.6161 17.4277 10.1553 19.8885 10.1553 22.9132V34.0201C10.1553 34.6259 10.6465 35.1172 11.2524 35.1172H26.7476C27.3535 35.1172 27.8447 34.626 27.8447 34.0201V22.9132C27.8447 19.8885 25.3839 17.4277 22.3592 17.4277ZM19 2.88269C15.3624 2.88269 12.403 5.84209 12.403 9.47977C12.403 11.9472 13.7648 14.1021 15.776 15.2335C16.7299 15.7701 17.8297 16.0768 19 16.0768C20.1703 16.0768 21.2701 15.7701 22.224 15.2335C24.2352 14.1021 25.597 11.9471 25.597 9.47977C25.597 5.84216 22.6376 2.88269 19 2.88269ZM7.41579 9.03164C4.6953 9.03164 2.4821 11.2448 2.4821 13.9653C2.4821 16.6858 4.6953 18.899 7.41579 18.899C8.08432 18.8996 8.74592 18.7635 9.35995 18.4991C10.392 18.0548 11.243 17.2682 11.7696 16.283C12.1511 15.5701 12.3503 14.7739 12.3495 13.9653C12.3495 11.2449 10.1363 9.03164 7.41579 9.03164ZM30.5842 9.03164C27.8637 9.03164 25.6505 11.2448 25.6505 13.9653C25.6497 14.7739 25.8489 15.5701 26.2304 16.283C26.757 17.2683 27.608 18.0549 28.6401 18.4991C29.2541 18.7635 29.9157 18.8996 30.5842 18.899C33.3047 18.899 35.5179 16.6858 35.5179 13.9653C35.5179 11.2448 33.3047 9.03164 30.5842 9.03164Z" fill="#C4B39B"/>
</svg>
