<svg width="38" height="38" viewBox="0 0 38 38" fill="none" xmlns="http://www.w3.org/2000/svg">
<path d="M33.2878 8.59302H28.71V20.7513C28.71 24.5774 25.5972 27.6901 21.7712 27.6901H14.5084L11.9002 28.7539C12.6231 30.4297 14.291 31.6057 16.2288 31.6057H23.9282L33.597 35.5493L33.5868 31.5963C36.0465 31.4416 38 29.3915 38 26.8935V13.3052C38 10.7069 35.8861 8.59302 33.2878 8.59302Z" fill="#C4B39B"/>
<path d="M14.0719 25.4635H21.7713C24.3696 25.4635 26.4835 23.3496 26.4835 20.7513V7.16303C26.4835 4.5647 24.3696 2.45081 21.7713 2.45081H4.71222C2.1139 2.45081 0 4.5647 0 7.16303V20.7513C0 23.2478 1.95143 25.297 4.40911 25.4539L4.406 29.4059L14.0719 25.4635ZM17.6701 15.0589V12.8323L19.8966 12.8322L19.8966 15.0588L17.6701 15.0589ZM8.81333 15.0588H6.58677V12.8322H8.81333V15.0588ZM12.1285 12.8322H14.355V15.0588H12.1285V12.8322Z" fill="#C4B39B"/>
</svg>
