<svg width="38" height="38" viewBox="0 0 38 38" fill="none" xmlns="http://www.w3.org/2000/svg">
<path d="M22.426 8.56781H12.2135C11.7473 8.56781 11.3003 8.38265 10.9707 8.05305C10.6411 7.72346 10.456 7.27643 10.456 6.81031V4.1325C10.456 3.16231 11.2433 2.375 12.2135 2.375H22.426C23.3962 2.375 24.1835 3.16231 24.1835 4.1325V6.81031C24.1835 7.04111 24.138 7.26965 24.0497 7.48288C23.9614 7.69611 23.8319 7.88985 23.6687 8.05305C23.5055 8.21625 23.3118 8.34571 23.0985 8.43403C22.8853 8.52235 22.6568 8.56781 22.426 8.56781ZM34.2357 21.3631C33.1432 20.2706 31.3619 20.2706 30.2694 21.3631L28.9727 22.667L32.9413 26.6344L34.2357 25.3401C35.34 24.2369 35.34 22.4675 34.2357 21.3631ZM27.7163 23.9281L20.7932 30.8394C20.6507 30.9937 20.5557 31.1838 20.52 31.3856L19.9975 34.4613C19.8788 35.1381 20.4725 35.72 21.1494 35.6131L24.225 35.0906C24.4269 35.055 24.6169 34.96 24.7594 34.8175L31.6825 27.8944L27.7163 23.9281Z" fill="#C4B39B"/>
<path d="M27.4431 5.47438H25.9647V6.81032C25.9634 7.74847 25.5902 8.64783 24.9268 9.3112C24.2635 9.97457 23.3641 10.3478 22.4259 10.3491H12.2134C11.2752 10.3481 10.3757 9.97499 9.71222 9.31155C9.04878 8.64811 8.67564 7.74856 8.6747 6.81032V5.47438H7.17251C4.83314 5.47438 2.93314 7.37438 2.93314 9.71375V31.3856C2.93314 33.725 4.83314 35.625 7.17251 35.625H18.4027C18.2156 35.1589 18.1602 34.6504 18.2424 34.1549L18.7637 31.0876C18.8563 30.5437 19.1057 30.0414 19.4809 29.6317L27.0394 22.0839L29.0047 20.1079C29.7263 19.3897 30.6688 18.9354 31.6801 18.8183V9.72563C31.6834 9.16763 31.5762 8.6145 31.3646 8.09815C31.153 7.58181 30.8413 7.11248 30.4474 6.71724C30.0535 6.32201 29.5852 6.00869 29.0695 5.79537C28.5539 5.58205 28.0011 5.47296 27.4431 5.47438ZM15.4708 23.0886H10.3182C10.0347 23.0886 9.76291 22.976 9.56248 22.7755C9.36205 22.5751 9.24945 22.3033 9.24945 22.0198C9.24945 21.7364 9.36205 21.4645 9.56248 21.2641C9.76291 21.0637 10.0347 20.9511 10.3182 20.9511H15.4708C15.7542 20.9511 16.0261 21.0637 16.2265 21.2641C16.4269 21.4645 16.5395 21.7364 16.5395 22.0198C16.5395 22.3033 16.4269 22.5751 16.2265 22.7755C16.0261 22.976 15.7542 23.0886 15.4708 23.0886ZM21.7788 17.0228H10.3194C10.0359 17.0228 9.7641 16.9102 9.56367 16.7098C9.36324 16.5094 9.25064 16.2375 9.25064 15.9541C9.25064 15.6706 9.36324 15.3988 9.56367 15.1983C9.7641 14.9979 10.0359 14.8853 10.3194 14.8853H21.7788C22.0622 14.8853 22.3341 14.9979 22.5345 15.1983C22.7349 15.3988 22.8475 15.6706 22.8475 15.9541C22.8475 16.2375 22.7349 16.5094 22.5345 16.7098C22.3341 16.9102 22.0622 17.0228 21.7788 17.0228Z" fill="#C4B39B"/>
</svg>
