<svg width="38" height="38" viewBox="0 0 38 38" fill="none" xmlns="http://www.w3.org/2000/svg">
<path d="M19 3C14.3476 3 10.5625 6.78506 10.5625 11.4375C10.5625 16.0899 14.3476 19.875 19 19.875C23.6524 19.875 27.4375 16.0899 27.4375 11.4375C27.4375 6.78506 23.6524 3 19 3ZM29.4979 25.3872C27.1879 23.0417 24.1256 21.75 20.875 21.75H17.125C13.8745 21.75 10.8121 23.0417 8.50212 25.3872C6.20344 27.7212 4.9375 30.8021 4.9375 34.0625C4.9375 34.5802 5.35725 35 5.875 35H32.125C32.6427 35 33.0625 34.5802 33.0625 34.0625C33.0625 30.8021 31.7966 27.7212 29.4979 25.3872Z" fill="#C4B39B"/>
</svg>
