<svg width="124" height="124" viewBox="0 0 124 124" fill="none" xmlns="http://www.w3.org/2000/svg">
<g clip-path="url(#clip0_3_1454)">
<path d="M38.7047 112.537C38.7047 117.674 34.5347 121.822 29.42 121.822C24.3055 121.822 20.1355 117.675 20.1355 112.537C20.1355 107.422 24.3055 103.252 29.42 103.252C34.5347 103.252 38.7047 107.422 38.7047 112.537Z" fill="#C8B79E"/>
<path d="M121.831 20.3753V83.4096C121.831 86.6651 119.192 89.3045 115.936 89.3045H70.8612C70.8612 94.1971 66.8919 98.1465 61.9993 98.1465C57.1262 98.1465 53.1573 94.1969 53.1573 89.3045H8.08228C4.8268 89.3045 2.18744 86.6654 2.18744 83.4096V20.3753C2.18744 17.1198 4.82656 14.4804 8.08228 14.4804H115.936C119.192 14.4806 121.831 17.1198 121.831 20.3753Z" fill="#D291DE"/>
<path d="M121.822 20.3839V83.4091C121.822 86.6704 119.198 89.3141 115.937 89.3141H70.8582C70.8582 94.1964 66.883 98.1523 62.0007 98.1523C57.1185 98.1523 53.1626 94.1964 53.1626 89.3141H8.08397C4.82267 89.3141 2.17896 86.6704 2.17896 83.4091V69.1484C14.2205 77.0602 28.6164 81.653 44.0929 81.653C82.6877 81.653 114.586 53.0737 119.777 15.9071C121.031 16.9875 121.822 18.5893 121.822 20.3839Z" fill="black" fill-opacity="0.0705882"/>
<path d="M62.009 15.8538V89.3023C62.009 81.7373 55.8981 75.6264 48.3527 75.6264H10.7248V2.17798H48.3527C55.8981 2.17798 62.009 8.28885 62.009 15.8538Z" fill="#F5F5F5"/>
<path d="M62.0089 15.8538V89.3023C62.0089 81.7373 68.1198 75.6264 75.6652 75.6264H113.293V2.17798H75.6652C68.1198 2.17798 62.0089 8.28885 62.0089 15.8538Z" fill="#F5F5F5"/>
<path d="M121.822 110.618H40.4589C39.5444 105.348 34.9484 101.322 29.4207 101.322C23.893 101.322 19.297 105.348 18.3825 110.618H2.17822C1.11163 110.618 0.248474 111.482 0.248474 112.548C0.248474 113.615 1.11163 114.478 2.17822 114.478H18.3859C19.3096 119.737 23.9007 123.751 29.4207 123.751C34.9406 123.751 39.5318 119.737 40.4555 114.478H121.822C122.888 114.478 123.752 113.615 123.752 112.548C123.752 111.482 122.888 110.618 121.822 110.618ZM29.4207 119.892C25.3783 119.892 22.0909 116.613 22.0693 112.576C22.0693 112.566 22.0749 112.558 22.0749 112.548C22.0749 112.536 22.0681 112.526 22.0679 112.513C22.081 108.469 25.3735 105.182 29.4207 105.182C33.4761 105.182 36.7759 108.481 36.7759 112.537C36.7759 116.592 33.4761 119.892 29.4207 119.892Z" fill="#181717"/>
<path d="M29.4207 109.054C29.1672 109.054 28.9162 109.104 28.6821 109.201C28.4479 109.298 28.2351 109.44 28.0559 109.619C27.8766 109.798 27.7345 110.011 27.6376 110.245C27.5406 110.479 27.4908 110.73 27.4909 110.984V114.089C27.4909 115.156 28.3541 116.019 29.4207 116.019C30.4873 116.019 31.3504 115.156 31.3504 114.089V110.984C31.3506 110.73 31.3007 110.479 31.2038 110.245C31.1069 110.011 30.9647 109.798 30.7855 109.619C30.6063 109.44 30.3935 109.298 30.1593 109.201C29.9251 109.104 29.6741 109.054 29.4207 109.054ZM115.936 12.5487H115.222V2.17822C115.222 1.92477 115.172 1.67378 115.076 1.43959C114.979 1.2054 114.836 0.99262 114.657 0.813401C114.478 0.634182 114.265 0.492042 114.031 0.395108C113.797 0.298175 113.546 0.248347 113.292 0.248474H75.6645C69.788 0.248474 64.6641 3.52455 62.0094 8.34626C59.3546 3.52455 54.2301 0.248474 48.3525 0.248474H10.7245C10.4711 0.248347 10.2201 0.298175 9.9859 0.395108C9.75172 0.492042 9.53893 0.634182 9.35971 0.813401C9.18049 0.99262 9.03835 1.2054 8.94142 1.43959C8.84449 1.67378 8.79466 1.92477 8.79479 2.17822V12.5487H8.08421C3.7631 12.5487 0.248474 16.0633 0.248474 20.3844V83.4098C0.248474 87.729 3.7631 91.2436 8.08421 91.2436H51.4053C52.3173 96.2639 56.7215 100.082 62 100.082C67.2899 100.082 71.7015 96.2639 72.6153 91.2436H115.936C120.246 91.2436 123.752 87.729 123.752 83.4098V20.3844C123.752 16.0633 120.246 12.5487 115.936 12.5487ZM75.6645 4.10797H111.363V73.6972H75.6645C70.9946 73.6972 66.798 75.7645 63.9389 79.0323V15.8541C63.9392 9.377 69.1988 4.10797 75.6645 4.10797ZM48.3525 4.10797C54.8182 4.10797 60.0797 9.377 60.0797 15.8541V79.034C57.2209 75.7645 53.024 73.6972 48.3525 73.6972H12.6543V4.10797H48.3525ZM119.892 83.4098C119.892 85.6016 118.117 87.3844 115.936 87.3844H70.859C70.6055 87.3843 70.3545 87.4341 70.1203 87.531C69.8861 87.628 69.6734 87.7701 69.4941 87.9493C69.3149 88.1285 69.1728 88.3413 69.0759 88.5755C68.9789 88.8097 68.9291 89.0607 68.9292 89.3141C68.9292 93.1228 65.8217 96.2228 62 96.2228C58.1914 96.2228 55.0914 93.1228 55.0914 89.3141C55.0915 89.0607 55.0417 88.8097 54.9447 88.5755C54.8478 88.3413 54.7056 88.1285 54.5264 87.9493C54.3472 87.7701 54.1344 87.628 53.9002 87.531C53.666 87.4341 53.4151 87.3843 53.1616 87.3844H8.08421C5.89241 87.3844 4.10797 85.6016 4.10797 83.4098V20.3844C4.10797 18.1926 5.89265 16.4082 8.08421 16.4082H8.79479V75.6269C8.79466 75.8804 8.84449 76.1314 8.94142 76.3655C9.03835 76.5997 9.18049 76.8125 9.35971 76.9917C9.53893 77.171 9.75172 77.3131 9.9859 77.41C10.2201 77.507 10.4711 77.5568 10.7245 77.5567H48.3525C54.8182 77.5567 60.0797 82.8257 60.0797 89.3027C60.0797 90.3693 60.9428 91.2325 62.0094 91.2325C63.076 91.2325 63.9392 90.3693 63.9392 89.3027C63.9392 82.8257 69.1988 77.5567 75.6647 77.5567H113.293C113.546 77.5568 113.797 77.507 114.031 77.41C114.265 77.3131 114.478 77.171 114.657 76.9917C114.837 76.8125 114.979 76.5997 115.076 76.3655C115.173 76.1314 115.223 75.8804 115.222 75.6269V16.4082H115.937C118.117 16.4082 119.892 18.1929 119.892 20.3844V83.4098H119.892Z" fill="#181717"/>
<path d="M32.5829 18.4471H40.1435C41.2101 18.4471 42.0733 17.584 42.0733 16.5174C42.0733 15.4508 41.2101 14.5876 40.1435 14.5876H32.5829C31.5163 14.5876 30.6532 15.4508 30.6532 16.5174C30.6532 17.584 31.5163 18.4471 32.5829 18.4471ZM23.0698 29.6355H49.6564C50.723 29.6355 51.5862 28.7723 51.5862 27.7057C51.5862 26.6391 50.723 25.776 49.6564 25.776H23.0698C22.0032 25.776 21.14 26.6391 21.14 27.7057C21.14 28.7723 22.0032 29.6355 23.0698 29.6355ZM23.0698 40.8238H49.6564C50.723 40.8238 51.5862 39.9607 51.5862 38.8941C51.5862 37.8275 50.723 36.9643 49.6564 36.9643H23.0698C22.0032 36.9643 21.14 37.8275 21.14 38.8941C21.14 39.9607 22.0032 40.8238 23.0698 40.8238ZM32.5829 48.1546C31.5163 48.1546 30.6532 49.0177 30.6532 50.0843C30.6532 51.1509 31.5163 52.0141 32.5829 52.0141H40.1435C41.2101 52.0141 42.0733 51.1509 42.0733 50.0843C42.0733 49.0177 41.2101 48.1546 40.1435 48.1546H32.5829ZM23.0698 63.2022H49.6564C50.723 63.2022 51.5862 62.339 51.5862 61.2724C51.5862 60.2058 50.723 59.3427 49.6564 59.3427H23.0698C22.0032 59.3427 21.14 60.2058 21.14 61.2724C21.14 62.339 22.0032 63.2022 23.0698 63.2022ZM83.7244 18.4471H91.5771C92.6437 18.4471 93.5069 17.584 93.5069 16.5174C93.5069 15.4508 92.6437 14.5876 91.5771 14.5876H83.7244C82.6578 14.5876 81.7947 15.4508 81.7947 16.5174C81.7947 17.584 82.6578 18.4471 83.7244 18.4471ZM74.3566 29.6355H100.945C102.012 29.6355 102.875 28.7723 102.875 27.7057C102.875 26.6391 102.012 25.776 100.945 25.776H74.3566C73.29 25.776 72.4269 26.6391 72.4269 27.7057C72.4269 28.7723 73.29 29.6355 74.3566 29.6355ZM74.3566 40.8238H100.945C102.012 40.8238 102.875 39.9607 102.875 38.8941C102.875 37.8275 102.012 36.9643 100.945 36.9643H74.3566C73.29 36.9643 72.4269 37.8275 72.4269 38.8941C72.4269 39.9607 73.29 40.8238 74.3566 40.8238ZM83.7244 48.1546C82.6578 48.1546 81.7947 49.0177 81.7947 50.0843C81.7947 51.1509 82.6578 52.0141 83.7244 52.0141H91.5771C92.6437 52.0141 93.5069 51.1509 93.5069 50.0843C93.5069 49.0177 92.6437 48.1546 91.5771 48.1546H83.7244ZM74.3566 63.2022H100.945C102.012 63.2022 102.875 62.339 102.875 61.2724C102.875 60.2058 102.012 59.3427 100.945 59.3427H74.3566C73.29 59.3427 72.4269 60.2058 72.4269 61.2724C72.4269 62.339 73.29 63.2022 74.3566 63.2022Z" fill="#181717"/>
</g>
<defs>
<clipPath id="clip0_3_1454">
<rect width="124" height="124" fill="white"/>
</clipPath>
</defs>
</svg>
