<svg width="124" height="124" viewBox="0 0 124 124" fill="none" xmlns="http://www.w3.org/2000/svg">
<path d="M95.9288 5.59089V107.897C95.9288 109.309 94.7842 110.453 93.3722 110.453H19.7472C14.5741 110.453 10.3804 106.26 10.3804 101.086V12.4012C10.3804 9.81246 11.4332 7.47075 13.1195 5.7735C14.8168 4.08691 17.1585 3.03436 19.7472 3.03436H93.3722C94.7842 3.03436 95.9288 4.17894 95.9288 5.59089Z" fill="white"/>
<path d="M31.0048 3.03436H19.7472C17.1585 3.03436 14.8168 4.08715 13.1195 5.7735C11.4329 7.47075 10.3804 9.81247 10.3804 12.4012V101.086C10.3804 106.264 14.5698 110.453 19.7472 110.453H31.0048V3.03436Z" fill="#D291DE"/>
<path d="M105.112 46.0285V70.3085L95.9288 62.4243L86.7455 70.3085V46.0285H105.112Z" fill="#D291DE"/>
<path d="M95.9288 91.7193V107.897C95.9288 109.309 94.7842 110.453 93.3722 110.453H20.08C14.8543 110.453 10.3082 106.178 10.3814 100.953C10.4167 98.4172 11.462 96.1266 13.1195 94.4584C14.8168 92.7718 17.1585 91.7193 19.7472 91.7193H95.9288Z" fill="white"/>
<path d="M108.425 45.2366C115.333 38.3278 115.333 27.1264 108.425 20.2176C101.516 13.3088 90.3145 13.3088 83.4057 20.2176C76.4969 27.1264 76.4969 38.3278 83.4057 45.2366C90.3145 52.1454 101.516 52.1454 108.425 45.2366Z" fill="#C8B79E"/>
<path d="M101.202 38.0142C104.122 35.0941 104.122 30.3597 101.202 27.4397C98.2822 24.5196 93.5478 24.5196 90.6277 27.4397C87.7077 30.3597 87.7077 35.0941 90.6277 38.0142C93.5478 40.9342 98.2822 40.9342 101.202 38.0142Z" fill="white"/>
<path d="M44.6383 101.651V120.965L37.5391 115.949L30.4398 120.965V101.651H44.6383Z" fill="#D291DE"/>
<path d="M86.9843 32.7203C86.9843 37.6522 90.9969 41.6642 95.9288 41.6642C100.861 41.6642 104.873 37.6522 104.873 32.7203C104.873 27.7883 100.861 23.7758 95.9288 23.7758C90.9971 23.7758 86.9843 27.7883 86.9843 32.7203ZM101.939 32.7203C101.939 36.0344 99.2436 38.7301 95.929 38.7301C92.6144 38.7301 89.9186 36.0344 89.9186 32.7203C89.9186 29.4062 92.6144 26.7099 95.929 26.7099C99.2436 26.7099 101.939 29.4062 101.939 32.7203Z" fill="#181717"/>
<path d="M29.7651 122.268C30.004 122.392 30.2723 122.448 30.5408 122.429C30.8093 122.411 31.0675 122.319 31.2872 122.164L37.5395 117.746L43.7919 122.164C44.0115 122.319 44.2696 122.41 44.5379 122.429C44.8061 122.447 45.0743 122.392 45.3131 122.268C45.5519 122.144 45.7521 121.957 45.8919 121.728C46.0318 121.498 46.1058 121.234 46.106 120.965V111.921H93.372C95.5909 111.921 97.3962 110.115 97.3962 107.897V65.6178L104.156 71.4213C104.369 71.6043 104.63 71.7222 104.908 71.7613C105.186 71.8003 105.469 71.7587 105.724 71.6415C105.979 71.5245 106.195 71.3367 106.347 71.1004C106.499 70.8641 106.579 70.5892 106.579 70.3085V48.6349C111.705 45.1932 115.087 39.3453 115.087 32.7205C115.087 22.6516 107.275 14.3903 97.3959 13.6364V5.5909C97.3959 3.37247 95.5907 1.56744 93.3718 1.56744H19.7475C13.7609 1.56744 8.91299 6.40466 8.91299 12.4015V101.087C8.91299 106.984 13.7134 111.921 19.7475 111.921H28.9729V120.965C28.973 121.234 29.047 121.498 29.1867 121.728C29.3264 121.957 29.5265 122.144 29.7651 122.268ZM43.1716 118.133L38.3865 114.751C38.1387 114.576 37.8428 114.482 37.5394 114.482C37.2361 114.482 36.9402 114.576 36.6924 114.751L31.9072 118.133V103.119H43.1716V118.133ZM103.645 67.1152L96.8849 61.3117C96.6189 61.0832 96.2797 60.9575 95.929 60.9575C95.5783 60.9575 95.2391 61.0832 94.9731 61.3117L88.2132 67.1152V50.2423C93.0506 52.381 98.6129 52.4673 103.645 50.2423V67.1152ZM112.153 32.7203C112.153 41.6659 104.875 48.9439 95.929 48.9439C86.9833 48.9439 79.7054 41.6659 79.7054 32.7203C79.7054 23.7741 86.9833 16.4959 95.929 16.4959C104.875 16.4959 112.153 23.7741 112.153 32.7203ZM94.4618 5.5909V13.6361C84.5828 14.3901 76.771 22.6516 76.771 32.7203C76.771 39.3451 80.1527 45.1929 85.2788 48.6346V70.3083C85.2787 70.589 85.3591 70.8639 85.5106 71.1003C85.6621 71.3366 85.8782 71.5246 86.1333 71.6417C86.3884 71.7589 86.6718 71.8004 86.9498 71.7613C87.2278 71.7222 87.4888 71.6041 87.7017 71.4211L94.4616 65.6176V90.2524H32.4723V4.50155H93.3718C93.6606 4.50187 93.9376 4.61672 94.142 4.82092C94.3463 5.02513 94.4613 5.30202 94.4618 5.5909ZM19.7477 4.50155H29.5382V90.2526H19.7477C16.7785 90.2526 13.9323 91.4459 11.8473 93.6808V12.4012C11.8473 8.03458 15.3707 4.50155 19.7477 4.50155ZM20.08 108.986C15.6923 108.986 11.7856 105.396 11.8483 100.974C11.9084 96.6503 15.4169 93.1865 19.7475 93.1865H94.4616V107.897C94.4611 108.186 94.3461 108.463 94.1417 108.667C93.9374 108.871 93.6604 108.986 93.3715 108.986H46.1057V103.119H87.4578C87.8469 103.119 88.2201 102.964 88.4952 102.689C88.7704 102.414 88.9249 102.041 88.9249 101.651C88.9249 101.262 88.7704 100.889 88.4952 100.614C88.2201 100.339 87.8469 100.184 87.4578 100.184H17.7213C17.3322 100.184 16.959 100.339 16.6839 100.614C16.4088 100.889 16.2542 101.262 16.2542 101.651C16.2542 102.041 16.4088 102.414 16.6839 102.689C16.959 102.964 17.3322 103.119 17.7213 103.119H28.9731V108.986H28.9133H20.08Z" fill="#181717"/>
</svg>
