<svg width="124" height="124" viewBox="0 0 124 124" fill="none" xmlns="http://www.w3.org/2000/svg">
<path d="M11.625 67.8125C11.625 38.905 35.03 15.5 63.9375 15.5C85.87 15.5 104.625 29.0237 112.414 48.205C106.33 26.0012 86.1025 9.6875 62 9.6875C33.0925 9.6875 9.6875 33.0925 9.6875 62C9.6875 68.9362 11.0825 75.5625 13.5238 81.6075C12.3225 77.2287 11.625 72.6175 11.625 67.8125Z" fill="white"/>
<path d="M42.8188 71.6875H33.2475C27.745 71.6875 23.0175 67.8512 21.8938 62.5037L19.0263 49.2125C18.5225 46.81 20.3438 44.5237 22.8238 44.5237H52.3125C54.6763 44.5237 56.4975 46.6162 56.1488 48.9412L54.3275 61.69C53.9331 64.4623 52.5522 66.9994 50.4382 68.8358C48.3242 70.6721 45.619 71.6846 42.8188 71.6875Z" fill="#D291DE"/>
<path d="M21.9713 59.7137C20.925 54.87 24.6063 50.3362 29.5663 50.3362L54.25 50.375C54.8312 50.375 55.4125 50.4912 55.8775 50.7237L56.1488 48.98C56.2284 48.4305 56.1887 47.8702 56.0322 47.3375C55.8758 46.8047 55.6064 46.3119 55.2423 45.8927C54.8782 45.4734 54.4281 45.1376 53.9225 44.9081C53.4169 44.6785 52.8678 44.5606 52.3125 44.5625H22.8238C20.3438 44.5625 18.5225 46.8487 19.0263 49.2512L21.855 62.5037C22.1263 63.8212 22.6688 65.0612 23.3275 66.185L21.9713 59.7137Z" fill="white"/>
<path d="M80.755 71.6875H90.3262C95.8287 71.6875 100.556 67.8512 101.68 62.5037L104.509 49.2513C105.012 46.8488 103.191 44.5625 100.711 44.5625H71.2225C68.8587 44.5625 67.0375 46.655 67.3862 48.98L69.2075 61.7288C69.6251 64.4945 71.0192 67.0194 73.1374 68.8462C75.2556 70.6729 77.9579 71.6809 80.755 71.6875Z" fill="#D291DE"/>
<path d="M69.9825 59.21C69.8272 58.1116 69.9095 56.9927 70.2239 55.9288C70.5382 54.865 71.0773 53.881 71.8047 53.0434C72.532 52.2059 73.4307 51.5342 74.44 51.0738C75.4493 50.6135 76.5457 50.3752 77.655 50.375H102.688C103.23 50.375 103.772 50.4913 104.237 50.7238L104.548 49.2513C105.051 46.8488 103.23 44.5625 100.75 44.5625H71.2613C68.8975 44.5625 67.0763 46.655 67.425 48.98L69.2463 61.7288C69.4788 63.4338 70.1375 64.9838 71.0288 66.34L69.9825 59.21Z" fill="white"/>
<path d="M91.0625 36.8125C90.9075 36.8125 90.7525 36.8125 90.5588 36.735C90.52 36.735 83.235 34.875 77.5 34.875C76.415 34.875 75.5625 34.0225 75.5625 32.9375C75.5625 31.8525 76.4538 31 77.5 31C83.7388 31 91.2175 32.8988 91.5663 33.015C92.6125 33.2863 93.2325 34.3325 92.9613 35.3788C92.7288 36.2313 91.915 36.8125 91.0625 36.8125ZM32.9375 36.8125C32.5064 36.8147 32.0873 36.6701 31.7492 36.4025C31.4112 36.1349 31.1743 35.7602 31.0775 35.34C30.8063 34.3325 31.4263 33.2475 32.4725 33.015C32.7825 32.8988 40.3775 31 46.5 31C47.585 31 48.4375 31.8525 48.4375 32.9375C48.4375 34.0225 47.585 34.875 46.5 34.875C40.8813 34.875 33.48 36.735 33.4025 36.735C33.2475 36.8125 33.0925 36.8125 32.9375 36.8125ZM42.8188 73.6637H33.2475C26.8925 73.6637 21.3125 69.1688 19.995 62.93L17.1663 49.6388C16.8175 47.895 17.205 46.1513 18.3288 44.7563C19.4138 43.4 21.0413 42.625 22.8238 42.625H52.3125C54.0175 42.625 55.6063 43.3613 56.6913 44.64C57.815 45.9188 58.28 47.585 58.0475 49.2512L56.265 62C55.2963 68.6263 49.5225 73.6637 42.8188 73.6637ZM22.8238 46.5C22.5342 46.5044 22.2492 46.5725 21.9891 46.6997C21.7289 46.8268 21.5 47.0098 21.3187 47.2355C21.1374 47.4612 21.0081 47.7242 20.94 48.0057C20.872 48.2871 20.8668 48.5801 20.925 48.8637L23.7538 62.1163C24.2253 64.2854 25.4235 66.2285 27.1499 67.6238C28.8764 69.0191 31.0277 69.7829 33.2475 69.7887H42.8188C47.6238 69.7887 51.7313 66.2237 52.4288 61.4575L54.25 48.7087C54.2891 48.4325 54.268 48.1511 54.1883 47.8838C54.1086 47.6164 53.9721 47.3695 53.7881 47.1597C53.6042 46.95 53.3771 46.7825 53.1224 46.6686C52.8677 46.5548 52.5915 46.4973 52.3125 46.5H22.8238ZM90.3263 73.6637H80.755C74.0513 73.6637 68.2775 68.665 67.3475 62L65.5263 49.29C65.4162 48.4669 65.4817 47.6297 65.7182 46.8337C65.9548 46.0376 66.3571 45.3006 66.8988 44.6711C67.4404 44.0416 68.1092 43.5339 68.861 43.1812C69.6129 42.8286 70.4309 42.639 71.2613 42.625H100.75C102.494 42.625 104.16 43.4 105.284 44.795C106.408 46.1513 106.834 47.9337 106.446 49.6775L103.618 62.93C102.944 65.9593 101.263 68.6705 98.8482 70.6203C96.4339 72.57 93.4295 73.643 90.3263 73.6637ZM100.75 46.5H71.2613C70.9823 46.4973 70.706 46.5548 70.4514 46.6686C70.1967 46.7825 69.9696 46.95 69.7856 47.1597C69.6017 47.3695 69.4652 47.6164 69.3854 47.8838C69.3057 48.1511 69.2847 48.4325 69.3238 48.7087L71.145 61.4188C71.4827 63.7215 72.6334 65.8274 74.3889 67.3555C76.1445 68.8836 78.3889 69.733 80.7163 69.75H90.2875C94.8213 69.75 98.8125 66.5338 99.7425 62.0775L102.571 48.825C102.688 48.2438 102.571 47.6625 102.184 47.1975C102.015 46.9779 101.798 46.8006 101.549 46.6795C101.3 46.5584 101.027 46.497 100.75 46.5Z" fill="#181717"/>
<path d="M67.6575 52.6613C67.27 52.6613 66.8438 52.545 66.495 52.2738C63.7825 50.22 60.0625 50.1813 57.2725 52.1188L55.8775 50.7238L54.7925 49.135L55.0638 48.9413C59.21 46.035 64.7513 46.1513 68.82 49.1738C69.6725 49.8325 69.8663 51.0338 69.2075 51.8863C69.0315 52.1315 68.7983 52.3303 68.5283 52.4653C68.2582 52.6003 67.9594 52.6676 67.6575 52.6613Z" fill="#181717"/>
<path d="M62 116.25C32.085 116.25 7.75 91.915 7.75 62C7.75 57.2725 8.37 52.545 9.57125 48.0112C9.8425 46.965 10.8887 46.345 11.935 46.655C12.9812 46.9263 13.6013 47.9725 13.2913 49.0187C12.2063 53.2037 11.625 57.5825 11.625 62C11.625 89.7838 34.2162 112.375 62 112.375C89.7838 112.375 112.375 89.7838 112.375 62C112.375 57.5825 111.794 53.2038 110.67 48.9412C110.539 48.448 110.608 47.9232 110.862 47.4806C111.116 47.0381 111.534 46.7135 112.026 46.5775C112.519 46.4468 113.044 46.5159 113.487 46.7698C113.929 47.0237 114.254 47.442 114.39 47.9338C115.63 52.5062 116.25 57.2337 116.25 62C116.25 91.915 91.915 116.25 62 116.25ZM14.2213 42.5475C13.9001 42.5481 13.5839 42.468 13.3018 42.3143C13.0197 42.1607 12.7808 41.9386 12.6071 41.6684C12.4335 41.3982 12.3305 41.0887 12.3079 40.7683C12.2852 40.4479 12.3436 40.1269 12.4775 39.835C16.7634 30.2842 23.7174 22.1751 32.503 16.483C41.2886 10.7909 51.5316 7.75831 62 7.75C83.3125 7.75 102.726 20.305 111.484 39.7188C111.91 40.6875 111.484 41.85 110.515 42.2762C109.546 42.7025 108.384 42.2762 107.958 41.3075C99.82 23.2887 81.8013 11.625 62 11.625C42.16 11.625 24.1025 23.3275 16.0038 41.4237C15.6938 42.1213 14.9963 42.5475 14.2213 42.5475Z" fill="#181717"/>
<path d="M62 93C57.0788 93 52.2738 92.3413 47.8175 91.1012C46.7713 90.7912 46.19 89.745 46.5 88.6987C46.81 87.6525 47.8563 87.0712 48.9025 87.3812C53.01 88.5437 57.4275 89.125 62 89.125C75.5625 89.125 84.5525 84.0875 89.7062 79.9025C90.52 79.205 91.76 79.36 92.4188 80.1738C93.0775 80.9875 92.9613 82.2275 92.1475 82.8862C86.49 87.4975 76.6862 93 62 93ZM114.312 50.375H105.013C103.928 50.375 103.075 49.5225 103.075 48.4375C103.075 47.3525 103.928 46.5 105.013 46.5H114.312C115.397 46.5 116.25 47.3525 116.25 48.4375C116.25 49.5225 115.397 50.375 114.312 50.375ZM18.6 50.375H9.6875C8.6025 50.375 7.75 49.5225 7.75 48.4375C7.75 47.3525 8.6025 46.5 9.6875 46.5H18.6C19.685 46.5 20.5375 47.3525 20.5375 48.4375C20.5375 49.5225 19.685 50.375 18.6 50.375Z" fill="#181717"/>
<path d="M27 87L31.4504 96.4665L42 97.6949L34.2003 104.772L36.2707 114.999L27 109.907L17.7293 115L19.7997 104.774L12 97.6935L22.551 96.4651L27 87Z" fill="#C8B79E" stroke="#181717" stroke-width="4" stroke-linejoin="round"/>
</svg>
