<svg width="40" height="40" viewBox="0 0 40 40" fill="none" xmlns="http://www.w3.org/2000/svg">
<circle cx="20" cy="20" r="20" transform="rotate(180 20 20)" fill="#114bc8"/>
<path d="M18.1818 25.542C18.1216 25.6057 18.0746 25.6805 18.0434 25.7623C18.0122 25.8442 17.9974 25.9313 17.9999 26.0189C18.0023 26.1064 18.022 26.1926 18.0578 26.2725C18.0936 26.3524 18.1448 26.4245 18.2084 26.4847C18.2721 26.5448 18.347 26.5918 18.4288 26.6231C18.5106 26.6543 18.5978 26.669 18.6853 26.6666C18.7728 26.6641 18.859 26.6444 18.9389 26.6086C19.0189 26.5728 19.091 26.5217 19.1511 26.458L24.8178 20.458C24.9348 20.3342 25 20.1703 25 20C25 19.8297 24.9348 19.6658 24.8178 19.542L19.1511 13.5413C19.0914 13.4763 19.0193 13.4238 18.9391 13.3868C18.8588 13.3499 18.7721 13.3292 18.6838 13.3261C18.5956 13.323 18.5076 13.3374 18.4249 13.3686C18.3423 13.3997 18.2667 13.447 18.2024 13.5076C18.1382 13.5683 18.0867 13.6411 18.0509 13.7218C18.015 13.8025 17.9956 13.8895 17.9936 13.9778C17.9917 14.0661 18.0074 14.1539 18.0397 14.2361C18.0719 14.3183 18.1203 14.3933 18.1818 14.4567L23.4164 20L18.1818 25.542Z" fill="white"/>
</svg>
