<svg width="40" height="40" viewBox="0 0 40 40" fill="none" xmlns="http://www.w3.org/2000/svg">
<circle cx="20" cy="20" r="20" transform="matrix(1 8.74228e-08 8.74228e-08 -1 0 40)" fill="#114bc8"/>
<path d="M21.8182 25.542C21.8784 25.6057 21.9254 25.6805 21.9566 25.7623C21.9878 25.8442 22.0026 25.9313 22.0001 26.0189C21.9977 26.1064 21.978 26.1926 21.9422 26.2725C21.9064 26.3524 21.8552 26.4245 21.7916 26.4847C21.7279 26.5448 21.653 26.5918 21.5712 26.6231C21.4894 26.6543 21.4022 26.669 21.3147 26.6666C21.2272 26.6641 21.141 26.6444 21.0611 26.6086C20.9811 26.5728 20.909 26.5217 20.8489 26.458L15.1822 20.458C15.0652 20.3342 15 20.1703 15 20C15 19.8297 15.0652 19.6658 15.1822 19.542L20.8489 13.5413C20.9086 13.4763 20.9807 13.4238 21.0609 13.3868C21.1412 13.3499 21.2279 13.3292 21.3162 13.3261C21.4044 13.323 21.4924 13.3374 21.5751 13.3686C21.6577 13.3997 21.7333 13.447 21.7976 13.5076C21.8618 13.5683 21.9133 13.6411 21.9491 13.7218C21.985 13.8025 22.0044 13.8895 22.0064 13.9778C22.0083 14.0661 21.9926 14.1539 21.9603 14.2361C21.9281 14.3183 21.8797 14.3933 21.8182 14.4567L16.5836 20L21.8182 25.542Z" fill="white"/>
</svg>
